G04 Layer: TopSilkscreenLayer*
G04 EasyEDA v6.5.54, 2026-09-21 01:04:33*
G04 fc7dc202ae2448acb5ae20b8b62974b0,464b855ecb6c4de38edc212a3dabf789,10*
G04 Gerber Generator version 0.2*
G04 Scale: 100 percent, Rotated: No, Reflected: No *
G04 Dimensions in millimeters *
G04 leading zeros omitted , absolute positions ,4 integer and 5 decimal *
%FSLAX45Y45*%
%MOMM*%

%ADD10C,0.2032*%
%ADD11C,0.2540*%
%ADD12C,0.1500*%
%ADD13C,0.1524*%
%ADD14C,0.0174*%

%LPD*%
G36*
X459079Y-3279038D02*
G01*
X451002Y-3279749D01*
X445211Y-3280918D01*
X441706Y-3281934D01*
X436067Y-3283965D01*
X429107Y-3287471D01*
X424078Y-3290773D01*
X416712Y-3296412D01*
X410667Y-3302609D01*
X407111Y-3307232D01*
X403809Y-3312566D01*
X401421Y-3317341D01*
X398983Y-3323691D01*
X397256Y-3329330D01*
X396036Y-3334461D01*
X394817Y-3341827D01*
X393954Y-3349650D01*
X393954Y-3356508D01*
X418236Y-3356508D01*
X418795Y-3348278D01*
X419557Y-3342538D01*
X420776Y-3336493D01*
X422249Y-3331768D01*
X423722Y-3327857D01*
X426313Y-3322929D01*
X429463Y-3318510D01*
X432612Y-3315157D01*
X440588Y-3309162D01*
X445871Y-3306419D01*
X450088Y-3304946D01*
X456387Y-3303778D01*
X463346Y-3303676D01*
X467106Y-3304235D01*
X471373Y-3305301D01*
X475183Y-3363264D01*
X474929Y-3363722D01*
X458876Y-3375507D01*
X455676Y-3379114D01*
X453542Y-3382873D01*
X452170Y-3386937D01*
X451561Y-3391052D01*
X451866Y-3396234D01*
X453643Y-3405022D01*
X455523Y-3412642D01*
X458266Y-3421634D01*
X460501Y-3427831D01*
X464108Y-3436416D01*
X467766Y-3444138D01*
X471322Y-3450590D01*
X476250Y-3458718D01*
X481126Y-3465829D01*
X488137Y-3474770D01*
X492302Y-3479546D01*
X500786Y-3488283D01*
X508609Y-3495243D01*
X512064Y-3497834D01*
X516432Y-3499967D01*
X520852Y-3501034D01*
X526491Y-3501085D01*
X529945Y-3500424D01*
X533654Y-3499053D01*
X548741Y-3491484D01*
X597052Y-3523894D01*
X597509Y-3524707D01*
X595680Y-3530447D01*
X593140Y-3535426D01*
X591362Y-3538118D01*
X588111Y-3542029D01*
X584098Y-3545586D01*
X580186Y-3548227D01*
X576224Y-3550208D01*
X570128Y-3552748D01*
X565708Y-3553866D01*
X560832Y-3554476D01*
X554837Y-3554120D01*
X549554Y-3553206D01*
X544372Y-3551885D01*
X537514Y-3549396D01*
X530250Y-3546094D01*
X522020Y-3541420D01*
X513638Y-3535781D01*
X503224Y-3527602D01*
X497332Y-3522421D01*
X484784Y-3509924D01*
X474522Y-3497935D01*
X467106Y-3488283D01*
X455574Y-3471367D01*
X445465Y-3453841D01*
X439267Y-3441293D01*
X435254Y-3432251D01*
X429158Y-3416300D01*
X424637Y-3401618D01*
X421995Y-3390798D01*
X420522Y-3382975D01*
X419303Y-3374644D01*
X418592Y-3366058D01*
X418236Y-3356508D01*
X393954Y-3356508D01*
X393954Y-3366566D01*
X395325Y-3380282D01*
X396748Y-3389528D01*
X398475Y-3397910D01*
X400659Y-3406749D01*
X403809Y-3417773D01*
X406958Y-3427069D01*
X412445Y-3441293D01*
X416661Y-3450844D01*
X423875Y-3465576D01*
X434746Y-3484372D01*
X441909Y-3495192D01*
X447344Y-3502812D01*
X452729Y-3509924D01*
X460298Y-3519220D01*
X467156Y-3527094D01*
X480415Y-3540353D01*
X491185Y-3549548D01*
X500532Y-3556660D01*
X509574Y-3562654D01*
X518515Y-3567684D01*
X524560Y-3570579D01*
X531063Y-3573272D01*
X536600Y-3575202D01*
X545134Y-3577437D01*
X552907Y-3578707D01*
X561797Y-3578961D01*
X567690Y-3578402D01*
X573786Y-3577132D01*
X577748Y-3576015D01*
X586028Y-3572713D01*
X591769Y-3569868D01*
X597154Y-3566464D01*
X601014Y-3563518D01*
X605434Y-3559403D01*
X608126Y-3556457D01*
X611428Y-3552393D01*
X614070Y-3548379D01*
X616610Y-3543757D01*
X618337Y-3540048D01*
X620268Y-3534664D01*
X621995Y-3527806D01*
X622046Y-3520694D01*
X620877Y-3516071D01*
X618998Y-3511956D01*
X616458Y-3508298D01*
X612902Y-3504946D01*
X559358Y-3469182D01*
X555599Y-3467658D01*
X551738Y-3466846D01*
X546049Y-3466846D01*
X542188Y-3467709D01*
X539140Y-3468878D01*
X524357Y-3476244D01*
X517906Y-3470656D01*
X510793Y-3463340D01*
X506018Y-3457854D01*
X500938Y-3451301D01*
X495808Y-3443732D01*
X491998Y-3437382D01*
X486765Y-3427069D01*
X483768Y-3419906D01*
X481584Y-3414064D01*
X479348Y-3406749D01*
X477570Y-3399637D01*
X476402Y-3393795D01*
X476402Y-3392982D01*
X489254Y-3383635D01*
X492404Y-3381095D01*
X494995Y-3378250D01*
X497382Y-3374390D01*
X498906Y-3370478D01*
X499668Y-3366363D01*
X499668Y-3361385D01*
X495452Y-3300374D01*
X494182Y-3295954D01*
X492506Y-3292601D01*
X489864Y-3288842D01*
X487273Y-3286404D01*
X483463Y-3283813D01*
X480314Y-3282391D01*
X475488Y-3280918D01*
X469646Y-3279749D01*
X465226Y-3279241D01*
G37*
G36*
X497738Y-4317847D02*
G01*
X492861Y-4318152D01*
X490270Y-4318660D01*
X485343Y-4319066D01*
X482346Y-4319727D01*
X477824Y-4320336D01*
X476758Y-4320743D01*
X473354Y-4321251D01*
X460908Y-4324604D01*
X453186Y-4327398D01*
X452729Y-4327398D01*
X442315Y-4331817D01*
X433984Y-4335983D01*
X428447Y-4339132D01*
X419658Y-4344670D01*
X410870Y-4351172D01*
X401066Y-4359605D01*
X394411Y-4366310D01*
X389280Y-4372051D01*
X385368Y-4376877D01*
X380796Y-4382973D01*
X376834Y-4388866D01*
X370738Y-4399229D01*
X364845Y-4411319D01*
X364083Y-4413554D01*
X363677Y-4414012D01*
X360934Y-4421581D01*
X359003Y-4427677D01*
X355549Y-4441291D01*
X354177Y-4449165D01*
X352704Y-4460189D01*
X352704Y-4483303D01*
X354076Y-4494225D01*
X354482Y-4495749D01*
X354939Y-4499610D01*
X356514Y-4506976D01*
X360121Y-4519726D01*
X363321Y-4528718D01*
X365404Y-4533696D01*
X369925Y-4543044D01*
X374599Y-4551375D01*
X376326Y-4554016D01*
X376326Y-4554423D01*
X377190Y-4555185D01*
X377190Y-4555490D01*
X384403Y-4565751D01*
X388975Y-4571492D01*
X393395Y-4576419D01*
X400151Y-4583277D01*
X408533Y-4590694D01*
X417220Y-4597501D01*
X418033Y-4597755D01*
X418033Y-4598111D01*
X425653Y-4603038D01*
X426161Y-4603038D01*
X426161Y-4603496D01*
X428091Y-4604359D01*
X428345Y-4604766D01*
X435609Y-4608626D01*
X446176Y-4613757D01*
X446887Y-4613757D01*
X447344Y-4614367D01*
X449376Y-4614926D01*
X450697Y-4615637D01*
X452018Y-4615942D01*
X453643Y-4616754D01*
X455066Y-4617008D01*
X455523Y-4617618D01*
X457250Y-4617618D01*
X460197Y-4615230D01*
X460197Y-4614875D01*
X461264Y-4614418D01*
X461264Y-4614011D01*
X462991Y-4612284D01*
X464464Y-4609439D01*
X464464Y-4608474D01*
X465023Y-4607966D01*
X464972Y-4576521D01*
X464159Y-4575606D01*
X453237Y-4576521D01*
X444906Y-4576521D01*
X438048Y-4575505D01*
X434187Y-4574387D01*
X429514Y-4572355D01*
X426059Y-4570222D01*
X421792Y-4566564D01*
X418490Y-4562652D01*
X417830Y-4561382D01*
X417525Y-4561230D01*
X414832Y-4556201D01*
X413461Y-4553204D01*
X413156Y-4552899D01*
X412902Y-4551527D01*
X412089Y-4550511D01*
X411581Y-4548936D01*
X411226Y-4548682D01*
X409397Y-4545330D01*
X407466Y-4542586D01*
X403809Y-4538421D01*
X399694Y-4534916D01*
X396951Y-4532884D01*
X395732Y-4532223D01*
X392785Y-4529429D01*
X392785Y-4528058D01*
X393649Y-4527042D01*
X396748Y-4526178D01*
X400862Y-4525975D01*
X405536Y-4527092D01*
X408635Y-4528566D01*
X410667Y-4529886D01*
X413766Y-4532477D01*
X418541Y-4537811D01*
X418896Y-4537811D01*
X418896Y-4538370D01*
X419862Y-4539234D01*
X426669Y-4547971D01*
X429920Y-4551172D01*
X432917Y-4553356D01*
X435508Y-4554677D01*
X436778Y-4554931D01*
X438150Y-4555540D01*
X444246Y-4556607D01*
X452831Y-4556607D01*
X459079Y-4555591D01*
X460298Y-4554982D01*
X462026Y-4554677D01*
X465074Y-4553254D01*
X466394Y-4552086D01*
X466699Y-4549648D01*
X467207Y-4548581D01*
X467512Y-4547108D01*
X469900Y-4542180D01*
X472287Y-4538675D01*
X477316Y-4533544D01*
X477977Y-4532477D01*
X477367Y-4531969D01*
X472948Y-4531563D01*
X471220Y-4531156D01*
X465683Y-4530496D01*
X457504Y-4528718D01*
X449935Y-4526686D01*
X442163Y-4523892D01*
X435914Y-4520996D01*
X428294Y-4516577D01*
X423062Y-4512462D01*
X416306Y-4505655D01*
X412800Y-4501032D01*
X412445Y-4500321D01*
X412089Y-4500321D01*
X411835Y-4499356D01*
X411073Y-4498543D01*
X408940Y-4494580D01*
X407314Y-4490516D01*
X406704Y-4490008D01*
X406704Y-4489297D01*
X405688Y-4487164D01*
X405180Y-4485233D01*
X404622Y-4484370D01*
X404063Y-4481830D01*
X403555Y-4480763D01*
X402996Y-4477766D01*
X402437Y-4476242D01*
X401980Y-4472838D01*
X401370Y-4470501D01*
X400710Y-4463186D01*
X400202Y-4461510D01*
X400202Y-4441799D01*
X400710Y-4440631D01*
X401370Y-4435398D01*
X403555Y-4427880D01*
X404368Y-4426356D01*
X404368Y-4425797D01*
X406908Y-4420565D01*
X407568Y-4420057D01*
X407568Y-4419498D01*
X408838Y-4417822D01*
X408838Y-4417466D01*
X416001Y-4408017D01*
X416966Y-4406442D01*
X416966Y-4405630D01*
X416407Y-4404563D01*
X415848Y-4400905D01*
X415290Y-4399432D01*
X414172Y-4389323D01*
X414324Y-4383582D01*
X415290Y-4375658D01*
X415899Y-4373778D01*
X416356Y-4370984D01*
X417118Y-4369054D01*
X417423Y-4367377D01*
X417982Y-4366463D01*
X418541Y-4364532D01*
X419608Y-4362704D01*
X420420Y-4362297D01*
X425196Y-4362450D01*
X430784Y-4363415D01*
X431546Y-4363821D01*
X437642Y-4365548D01*
X439369Y-4366361D01*
X439978Y-4366361D01*
X442518Y-4367631D01*
X443128Y-4367631D01*
X443738Y-4368292D01*
X445566Y-4368800D01*
X446074Y-4369358D01*
X447801Y-4369866D01*
X447801Y-4370171D01*
X452729Y-4372711D01*
X457098Y-4375251D01*
X457250Y-4375607D01*
X460603Y-4377588D01*
X463194Y-4379417D01*
X463651Y-4379417D01*
X463651Y-4379772D01*
X464667Y-4380280D01*
X469493Y-4378655D01*
X474878Y-4377334D01*
X478942Y-4376826D01*
X481279Y-4376216D01*
X489305Y-4375556D01*
X491540Y-4375048D01*
X521512Y-4375048D01*
X523240Y-4375556D01*
X531368Y-4376216D01*
X532638Y-4376623D01*
X537768Y-4377334D01*
X539292Y-4377893D01*
X543661Y-4378655D01*
X552754Y-4373422D01*
X558749Y-4370222D01*
X566674Y-4366412D01*
X568299Y-4365904D01*
X568299Y-4365548D01*
X569823Y-4365294D01*
X571601Y-4364482D01*
X574395Y-4363567D01*
X577392Y-4362907D01*
X578459Y-4362348D01*
X584149Y-4361840D01*
X587756Y-4362348D01*
X589838Y-4366666D01*
X591108Y-4370984D01*
X592328Y-4377182D01*
X592328Y-4392574D01*
X590956Y-4402023D01*
X590956Y-4403344D01*
X592531Y-4405630D01*
X597509Y-4411624D01*
X599541Y-4414621D01*
X603402Y-4421581D01*
X605536Y-4426915D01*
X605891Y-4427169D01*
X606450Y-4429404D01*
X606856Y-4430268D01*
X607923Y-4434078D01*
X609142Y-4440072D01*
X610260Y-4453178D01*
X609346Y-4467707D01*
X607872Y-4477918D01*
X606094Y-4485690D01*
X603808Y-4492955D01*
X600354Y-4500219D01*
X596849Y-4505706D01*
X594817Y-4508296D01*
X589788Y-4513529D01*
X586689Y-4516018D01*
X581304Y-4519472D01*
X573938Y-4523232D01*
X573532Y-4523232D01*
X571398Y-4524298D01*
X570788Y-4524298D01*
X568401Y-4525314D01*
X561086Y-4527499D01*
X553720Y-4529023D01*
X552704Y-4529429D01*
X547827Y-4530090D01*
X546303Y-4530496D01*
X540410Y-4531156D01*
X538632Y-4531563D01*
X535635Y-4531817D01*
X534619Y-4532477D01*
X536194Y-4534103D01*
X537311Y-4534662D01*
X541934Y-4539132D01*
X541934Y-4539488D01*
X542544Y-4540046D01*
X545185Y-4544669D01*
X545185Y-4545177D01*
X545998Y-4546803D01*
X547065Y-4550613D01*
X548386Y-4559300D01*
X548741Y-4572558D01*
X548538Y-4607864D01*
X549706Y-4610862D01*
X551586Y-4613706D01*
X555955Y-4617618D01*
X556869Y-4617872D01*
X558647Y-4617364D01*
X558647Y-4616958D01*
X559612Y-4616958D01*
X565150Y-4614621D01*
X565810Y-4614621D01*
X567131Y-4613808D01*
X568807Y-4613300D01*
X569468Y-4612792D01*
X571144Y-4612233D01*
X571804Y-4611674D01*
X573532Y-4611166D01*
X574141Y-4610608D01*
X575614Y-4610100D01*
X576326Y-4609541D01*
X577900Y-4609033D01*
X578154Y-4608626D01*
X587552Y-4603394D01*
X595731Y-4598009D01*
X601980Y-4593336D01*
X608177Y-4588205D01*
X614578Y-4582414D01*
X620369Y-4576368D01*
X628650Y-4566666D01*
X633476Y-4560112D01*
X638149Y-4552950D01*
X640080Y-4549648D01*
X640486Y-4549343D01*
X646430Y-4537913D01*
X650443Y-4528921D01*
X650443Y-4528261D01*
X652526Y-4523333D01*
X652830Y-4521860D01*
X653643Y-4520133D01*
X653948Y-4518406D01*
X654456Y-4517542D01*
X657504Y-4505807D01*
X658215Y-4501489D01*
X658622Y-4501032D01*
X659231Y-4496155D01*
X659841Y-4493615D01*
X660298Y-4488230D01*
X661060Y-4484370D01*
X661060Y-4459376D01*
X660501Y-4456785D01*
X659841Y-4450384D01*
X659282Y-4447794D01*
X658774Y-4443526D01*
X658215Y-4441799D01*
X657707Y-4438396D01*
X657098Y-4436872D01*
X656590Y-4433671D01*
X656082Y-4432604D01*
X655574Y-4429810D01*
X655015Y-4428744D01*
X654456Y-4426204D01*
X653999Y-4425340D01*
X653288Y-4422749D01*
X651764Y-4418888D01*
X651510Y-4417618D01*
X649122Y-4411522D01*
X648512Y-4411065D01*
X648512Y-4410303D01*
X647496Y-4408322D01*
X646785Y-4406392D01*
X646480Y-4406392D01*
X645922Y-4404563D01*
X645363Y-4403902D01*
X644855Y-4402328D01*
X644448Y-4402074D01*
X643534Y-4399991D01*
X643229Y-4399991D01*
X642924Y-4398772D01*
X640638Y-4394708D01*
X639978Y-4394149D01*
X639978Y-4393641D01*
X632917Y-4382617D01*
X632460Y-4382617D01*
X632460Y-4382058D01*
X631393Y-4380890D01*
X630936Y-4380026D01*
X624738Y-4372356D01*
X620369Y-4367377D01*
X609498Y-4356658D01*
X604977Y-4352798D01*
X594410Y-4344873D01*
X589026Y-4341317D01*
X579475Y-4335780D01*
X579018Y-4335780D01*
X578866Y-4335424D01*
X572211Y-4332122D01*
X561746Y-4327652D01*
X552348Y-4324451D01*
X544626Y-4322267D01*
X541832Y-4321810D01*
X541070Y-4321403D01*
X533704Y-4319930D01*
X532434Y-4319930D01*
X528574Y-4319117D01*
X525170Y-4318812D01*
X519582Y-4317949D01*
G37*
G36*
X5991606Y-4457496D02*
G01*
X5907328Y-4457547D01*
X5900978Y-4458208D01*
X5894832Y-4459274D01*
X5890717Y-4460341D01*
X5888736Y-4461052D01*
X5887364Y-4461306D01*
X5887161Y-4461662D01*
X5886551Y-4461662D01*
X5883452Y-4462932D01*
X5876391Y-4466437D01*
X5869228Y-4471111D01*
X5862269Y-4477156D01*
X5857697Y-4482134D01*
X5851601Y-4490415D01*
X5851601Y-4490720D01*
X5850229Y-4492955D01*
X5846114Y-4502099D01*
X5843828Y-4509566D01*
X5842355Y-4518863D01*
X5842050Y-4518863D01*
X5842050Y-4535220D01*
X5898692Y-4535220D01*
X5899099Y-4530852D01*
X5900470Y-4526991D01*
X5902502Y-4523282D01*
X5905601Y-4519930D01*
X5908395Y-4517847D01*
X5911748Y-4516170D01*
X5916168Y-4515002D01*
X5922670Y-4515053D01*
X5925007Y-4515612D01*
X5926124Y-4516170D01*
X5926531Y-4516170D01*
X5929528Y-4517644D01*
X5932017Y-4519422D01*
X5934151Y-4521250D01*
X5936742Y-4524756D01*
X5938774Y-4529429D01*
X5939434Y-4532122D01*
X5939434Y-4538268D01*
X5938215Y-4542586D01*
X5936335Y-4546346D01*
X5933795Y-4549444D01*
X5930544Y-4552238D01*
X5930188Y-4552238D01*
X5930036Y-4552594D01*
X5925921Y-4554524D01*
X5922264Y-4555591D01*
X5915812Y-4555591D01*
X5911291Y-4554118D01*
X5909106Y-4553102D01*
X5906516Y-4551324D01*
X5903620Y-4548632D01*
X5901639Y-4545736D01*
X5899810Y-4541672D01*
X5899251Y-4539894D01*
X5898692Y-4535220D01*
X5842050Y-4535220D01*
X5842050Y-4574743D01*
X5898743Y-4574743D01*
X5898946Y-4573574D01*
X5939536Y-4573574D01*
X5939434Y-4698746D01*
X5962243Y-4698746D01*
X5962243Y-4573778D01*
X5962497Y-4573574D01*
X5999886Y-4573625D01*
X5999988Y-4592574D01*
X6000445Y-4593082D01*
X6001461Y-4591913D01*
X6001461Y-4591405D01*
X6001816Y-4591405D01*
X6002680Y-4589780D01*
X6006185Y-4585766D01*
X6010046Y-4582414D01*
X6012535Y-4580636D01*
X6015634Y-4578858D01*
X6021374Y-4576267D01*
X6024473Y-4575302D01*
X6029350Y-4574235D01*
X6033312Y-4573676D01*
X6044285Y-4573676D01*
X6052870Y-4574895D01*
X6056426Y-4575810D01*
X6060744Y-4577232D01*
X6066231Y-4579874D01*
X6070295Y-4582820D01*
X6074105Y-4586630D01*
X6076492Y-4589729D01*
X6079947Y-4596231D01*
X6081725Y-4601006D01*
X6083046Y-4605934D01*
X6084062Y-4611471D01*
X6084824Y-4618228D01*
X6085281Y-4625644D01*
X6085281Y-4698898D01*
X6046114Y-4698898D01*
X6045860Y-4628692D01*
X6044844Y-4621834D01*
X6043625Y-4617669D01*
X6041136Y-4613148D01*
X6038342Y-4610150D01*
X6035192Y-4608220D01*
X6033058Y-4607306D01*
X6032195Y-4607153D01*
X6032042Y-4606950D01*
X6029858Y-4606544D01*
X6024473Y-4606188D01*
X6018123Y-4606950D01*
X6014720Y-4608118D01*
X6011773Y-4609592D01*
X6009690Y-4611116D01*
X6007506Y-4613402D01*
X6005677Y-4616043D01*
X6004001Y-4619498D01*
X6003239Y-4621733D01*
X6003239Y-4622292D01*
X6002629Y-4624171D01*
X6001613Y-4630674D01*
X6001613Y-4698796D01*
X6000902Y-4699203D01*
X5962700Y-4699203D01*
X5962243Y-4698746D01*
X5939434Y-4698746D01*
X5939434Y-4698898D01*
X5898845Y-4698898D01*
X5898743Y-4574743D01*
X5842050Y-4574743D01*
X5842050Y-4694682D01*
X5842355Y-4694682D01*
X5843270Y-4701794D01*
X5844794Y-4707940D01*
X5847232Y-4714544D01*
X5850026Y-4720590D01*
X5852007Y-4723993D01*
X5854852Y-4728159D01*
X5858916Y-4733290D01*
X5863082Y-4737557D01*
X5869736Y-4743145D01*
X5874207Y-4746294D01*
X5874613Y-4746294D01*
X5875172Y-4746802D01*
X5883300Y-4750917D01*
X5886551Y-4752238D01*
X5887161Y-4752238D01*
X5887364Y-4752594D01*
X5897372Y-4755134D01*
X5903874Y-4756048D01*
X5909665Y-4756454D01*
X6077712Y-4756302D01*
X6082030Y-4755896D01*
X6089446Y-4754626D01*
X6096762Y-4752594D01*
X6096965Y-4752238D01*
X6097574Y-4752238D01*
X6100978Y-4750816D01*
X6108954Y-4746802D01*
X6111798Y-4744974D01*
X6118453Y-4739894D01*
X6125565Y-4732832D01*
X6129223Y-4728311D01*
X6132322Y-4723739D01*
X6136335Y-4715865D01*
X6138367Y-4710734D01*
X6139484Y-4707229D01*
X6140805Y-4701794D01*
X6141770Y-4694682D01*
X6142075Y-4694682D01*
X6142075Y-4519218D01*
X6141770Y-4519218D01*
X6141313Y-4515154D01*
X6139688Y-4507382D01*
X6138773Y-4504131D01*
X6138468Y-4503775D01*
X6138214Y-4502505D01*
X6135065Y-4495495D01*
X6130848Y-4487976D01*
X6127800Y-4483862D01*
X6123381Y-4478680D01*
X6117539Y-4473194D01*
X6114542Y-4470857D01*
X6110173Y-4467860D01*
X6103975Y-4464507D01*
X6097574Y-4461662D01*
X6096965Y-4461662D01*
X6096762Y-4461306D01*
X6095390Y-4461052D01*
X6093409Y-4460341D01*
X6086754Y-4458716D01*
X6075883Y-4457496D01*
G37*
G36*
X507796Y-3813708D02*
G01*
X361848Y-3813860D01*
X356768Y-3814521D01*
X355803Y-3815029D01*
X354177Y-3815283D01*
X353466Y-3815842D01*
X352450Y-3815842D01*
X347167Y-3818636D01*
X343509Y-3821379D01*
X340868Y-3823970D01*
X337769Y-3827881D01*
X335330Y-3832504D01*
X334365Y-3835298D01*
X334365Y-3835908D01*
X333603Y-3837838D01*
X333349Y-3839718D01*
X332994Y-3839718D01*
X332994Y-3848709D01*
X353568Y-3848709D01*
X353568Y-3844290D01*
X354431Y-3840784D01*
X355142Y-3839819D01*
X355142Y-3839362D01*
X357936Y-3836466D01*
X360273Y-3835196D01*
X363067Y-3834637D01*
X367893Y-3834637D01*
X368406Y-3835146D01*
X398018Y-3835146D01*
X398424Y-3834637D01*
X617575Y-3834637D01*
X617982Y-3835146D01*
X508355Y-3944162D01*
X507644Y-3944162D01*
X398018Y-3835146D01*
X368406Y-3835146D01*
X507542Y-3973626D01*
X508457Y-3973626D01*
X648106Y-3834637D01*
X652627Y-3834637D01*
X655726Y-3835196D01*
X658063Y-3836466D01*
X660603Y-3839006D01*
X661517Y-3840784D01*
X662432Y-3844290D01*
X662432Y-3848709D01*
X534924Y-3975557D01*
X526694Y-3983329D01*
X524916Y-3984701D01*
X520242Y-3987190D01*
X518058Y-3988054D01*
X516686Y-3988308D01*
X515518Y-3988815D01*
X511809Y-3989628D01*
X504190Y-3989628D01*
X502412Y-3989324D01*
X496824Y-3987647D01*
X492607Y-3985564D01*
X490169Y-3984040D01*
X486968Y-3981348D01*
X353568Y-3848709D01*
X332994Y-3848709D01*
X332994Y-4029710D01*
X353568Y-4029710D01*
X353669Y-3878783D01*
X354126Y-3878834D01*
X372719Y-3897071D01*
X373329Y-3897934D01*
X373329Y-4038600D01*
X393293Y-4038600D01*
X393395Y-3918915D01*
X393547Y-3918610D01*
X393750Y-3918610D01*
X465378Y-3989476D01*
X475030Y-3998772D01*
X479145Y-4001871D01*
X483412Y-4004564D01*
X490575Y-4007662D01*
X494284Y-4008831D01*
X495503Y-4009034D01*
X496011Y-4009440D01*
X498906Y-4009796D01*
X499973Y-4010202D01*
X506323Y-4010710D01*
X509676Y-4010710D01*
X516026Y-4010202D01*
X517093Y-4009796D01*
X519988Y-4009440D01*
X520496Y-4009034D01*
X522884Y-4008628D01*
X527304Y-4007002D01*
X532587Y-4004513D01*
X537260Y-4001566D01*
X542036Y-3997807D01*
X620014Y-3920540D01*
X620725Y-3920540D01*
X620725Y-4038752D01*
X641502Y-4038752D01*
X641502Y-3899103D01*
X662025Y-3878630D01*
X662432Y-3878884D01*
X662432Y-4029710D01*
X661517Y-4033215D01*
X660603Y-4034993D01*
X658063Y-4037533D01*
X655726Y-4038803D01*
X652627Y-4039362D01*
X641756Y-4039362D01*
X641502Y-4038752D01*
X620725Y-4038854D01*
X620064Y-4039362D01*
X393700Y-4039362D01*
X393293Y-4038600D01*
X373329Y-4038650D01*
X372668Y-4039362D01*
X363372Y-4039362D01*
X360273Y-4038803D01*
X357936Y-4037533D01*
X355396Y-4034993D01*
X354482Y-4033215D01*
X353568Y-4029710D01*
X332994Y-4029710D01*
X332994Y-4034282D01*
X333349Y-4034282D01*
X333603Y-4036161D01*
X334365Y-4038092D01*
X334365Y-4038701D01*
X335330Y-4041495D01*
X337769Y-4046118D01*
X340868Y-4050029D01*
X343509Y-4052620D01*
X347167Y-4055364D01*
X352450Y-4058158D01*
X353466Y-4058208D01*
X354177Y-4058716D01*
X356768Y-4059478D01*
X363423Y-4060291D01*
X652576Y-4060291D01*
X659180Y-4059529D01*
X660196Y-4059021D01*
X661822Y-4058716D01*
X662533Y-4058208D01*
X663498Y-4058158D01*
X668832Y-4055364D01*
X672490Y-4052620D01*
X675132Y-4050029D01*
X678180Y-4046118D01*
X680669Y-4041495D01*
X681634Y-4038701D01*
X681634Y-4038092D01*
X682396Y-4036161D01*
X682650Y-4034282D01*
X683006Y-4034282D01*
X683006Y-3839718D01*
X682650Y-3839718D01*
X682396Y-3837838D01*
X681634Y-3835908D01*
X681634Y-3835298D01*
X680669Y-3832504D01*
X678180Y-3827881D01*
X675132Y-3823970D01*
X672490Y-3821379D01*
X668832Y-3818636D01*
X663498Y-3815842D01*
X662533Y-3815842D01*
X661822Y-3815283D01*
X660196Y-3815029D01*
X659180Y-3814470D01*
X652576Y-3813708D01*
G37*
G36*
X4076801Y-3213201D02*
G01*
X4076801Y-3256432D01*
X4336034Y-3256432D01*
X4336034Y-3472434D01*
X4119981Y-3472434D01*
X4119981Y-3256432D01*
X4076801Y-3256432D01*
X4076801Y-3515664D01*
X4379264Y-3515664D01*
X4379264Y-3213201D01*
G37*
G36*
X4465675Y-3213201D02*
G01*
X4465675Y-3257296D01*
X4508855Y-3257296D01*
X4508855Y-3299612D01*
X4552950Y-3299612D01*
X4552950Y-3258515D01*
X4554169Y-3257296D01*
X4595266Y-3257296D01*
X4595266Y-3299612D01*
X4508855Y-3299612D01*
X4508855Y-3386023D01*
X4552950Y-3386023D01*
X4552950Y-3344926D01*
X4554169Y-3343706D01*
X4595266Y-3343706D01*
X4595266Y-3386023D01*
X4508855Y-3386023D01*
X4508855Y-3430066D01*
X4552543Y-3430574D01*
X4596130Y-3430066D01*
X4596638Y-3387394D01*
X4639360Y-3386886D01*
X4639818Y-3344164D01*
X4682591Y-3343706D01*
X4682591Y-3299612D01*
X4639310Y-3299612D01*
X4639462Y-3256838D01*
X4639360Y-3213201D01*
X4552086Y-3213201D01*
X4552086Y-3256432D01*
X4509770Y-3256432D01*
X4509770Y-3213201D01*
G37*
G36*
X4768088Y-3213201D02*
G01*
X4768088Y-3256432D01*
X4724908Y-3256432D01*
X4724908Y-3300526D01*
X4768951Y-3300526D01*
X4769459Y-3257753D01*
X4854498Y-3257346D01*
X4854498Y-3300526D01*
X4898644Y-3300526D01*
X4898644Y-3256432D01*
X4855413Y-3256432D01*
X4855413Y-3213201D01*
G37*
G36*
X5156962Y-3213201D02*
G01*
X5156962Y-3256432D01*
X5027320Y-3256432D01*
X5027320Y-3299612D01*
X4985054Y-3299612D01*
X4985054Y-3256432D01*
X4940909Y-3256432D01*
X4940909Y-3300526D01*
X4984140Y-3300526D01*
X4984140Y-3342843D01*
X5114645Y-3342843D01*
X5114645Y-3301695D01*
X5115814Y-3300526D01*
X5200192Y-3300526D01*
X5200192Y-3342843D01*
X4984140Y-3342843D01*
X4984140Y-3343706D01*
X5027320Y-3343706D01*
X5027320Y-3386023D01*
X4855413Y-3386023D01*
X4855413Y-3342843D01*
X4811318Y-3342843D01*
X4811318Y-3386023D01*
X4769002Y-3386023D01*
X4769002Y-3342843D01*
X4724908Y-3342843D01*
X4724908Y-3429254D01*
X4638497Y-3429254D01*
X4638497Y-3472434D01*
X4595266Y-3472434D01*
X4595266Y-3515664D01*
X4552950Y-3515664D01*
X4552950Y-3472434D01*
X4508855Y-3472434D01*
X4508855Y-3515664D01*
X4466590Y-3515664D01*
X4466539Y-3299612D01*
X4422444Y-3299612D01*
X4422444Y-3558844D01*
X4509770Y-3558844D01*
X4509770Y-3517747D01*
X4510938Y-3516528D01*
X4552086Y-3516528D01*
X4552086Y-3558844D01*
X4422444Y-3558844D01*
X4422444Y-3559759D01*
X4508855Y-3559657D01*
X4508855Y-3688486D01*
X4596180Y-3688486D01*
X4596638Y-3560216D01*
X4639360Y-3559708D01*
X4639462Y-3516985D01*
X4639310Y-3474618D01*
X4640580Y-3473348D01*
X4681677Y-3473348D01*
X4681677Y-3515664D01*
X4725822Y-3515664D01*
X4725822Y-3431336D01*
X4726940Y-3430168D01*
X4811318Y-3430168D01*
X4811318Y-3472434D01*
X4855413Y-3472434D01*
X4855413Y-3431336D01*
X4856581Y-3430168D01*
X4984140Y-3430168D01*
X4984140Y-3472434D01*
X5028285Y-3472434D01*
X5028285Y-3388106D01*
X5029454Y-3386937D01*
X5070551Y-3386937D01*
X5070551Y-3430066D01*
X5114188Y-3430574D01*
X5157825Y-3430066D01*
X5158333Y-3387394D01*
X5286603Y-3386937D01*
X5286603Y-3429254D01*
X5200192Y-3429254D01*
X5200192Y-3515664D01*
X5157876Y-3515664D01*
X5157876Y-3472434D01*
X5113782Y-3472434D01*
X5113782Y-3516528D01*
X5156962Y-3516528D01*
X5156962Y-3558844D01*
X5071364Y-3558844D01*
X5071465Y-3472434D01*
X4940909Y-3472434D01*
X4940909Y-3515664D01*
X4985054Y-3515664D01*
X4985054Y-3474567D01*
X4986223Y-3473348D01*
X5027320Y-3473348D01*
X5027320Y-3515664D01*
X4940909Y-3515664D01*
X4940909Y-3516528D01*
X4984140Y-3516528D01*
X4984140Y-3602075D01*
X5028234Y-3602075D01*
X5028234Y-3560978D01*
X5029454Y-3559759D01*
X5070551Y-3559759D01*
X5070551Y-3602075D01*
X4941824Y-3602075D01*
X4941824Y-3558844D01*
X4898542Y-3558844D01*
X4898644Y-3472434D01*
X4768088Y-3472434D01*
X4768088Y-3515664D01*
X4812233Y-3515664D01*
X4812233Y-3474567D01*
X4813401Y-3473348D01*
X4854498Y-3473348D01*
X4854498Y-3515664D01*
X4681677Y-3515664D01*
X4681677Y-3558844D01*
X4769002Y-3558844D01*
X4769002Y-3517747D01*
X4770221Y-3516528D01*
X4811318Y-3516528D01*
X4811318Y-3558844D01*
X4681677Y-3558844D01*
X4681677Y-3602075D01*
X4725771Y-3602075D01*
X4725771Y-3560978D01*
X4726990Y-3559759D01*
X4768088Y-3559759D01*
X4768088Y-3602075D01*
X4812233Y-3602075D01*
X4812233Y-3560978D01*
X4813401Y-3559810D01*
X4897729Y-3559810D01*
X4897729Y-3602075D01*
X4681677Y-3602075D01*
X4681677Y-3602990D01*
X4724908Y-3602990D01*
X4724908Y-3645255D01*
X4769002Y-3645255D01*
X4769002Y-3604158D01*
X4770221Y-3602990D01*
X4811318Y-3602990D01*
X4811318Y-3645255D01*
X4898644Y-3645255D01*
X4898644Y-3604158D01*
X4899812Y-3602990D01*
X4940909Y-3602990D01*
X4940909Y-3645255D01*
X4985054Y-3645255D01*
X4985054Y-3604158D01*
X4986223Y-3602990D01*
X5027320Y-3602990D01*
X5027320Y-3645255D01*
X4681677Y-3645255D01*
X4681677Y-3688486D01*
X4466539Y-3688486D01*
X4466539Y-3645255D01*
X4422444Y-3645255D01*
X4422444Y-3689400D01*
X4465675Y-3689400D01*
X4465675Y-3774897D01*
X4682642Y-3774897D01*
X4682642Y-3690569D01*
X4683810Y-3689400D01*
X4724908Y-3689400D01*
X4724908Y-3731666D01*
X4768951Y-3731666D01*
X4769459Y-3689807D01*
X4812233Y-3689350D01*
X4812233Y-3647389D01*
X4813401Y-3646220D01*
X4897729Y-3646220D01*
X4897729Y-3688486D01*
X4941824Y-3688486D01*
X4941824Y-3647389D01*
X4943043Y-3646170D01*
X4984140Y-3646170D01*
X4984140Y-3688486D01*
X5028234Y-3688486D01*
X5028692Y-3646627D01*
X5071465Y-3646119D01*
X5071465Y-3604158D01*
X5072634Y-3602990D01*
X5113782Y-3602990D01*
X5113782Y-3731666D01*
X5157927Y-3731666D01*
X5157927Y-3604107D01*
X5159044Y-3602990D01*
X5200192Y-3602990D01*
X5200192Y-3688486D01*
X5460339Y-3688486D01*
X5460339Y-3604158D01*
X5461508Y-3602990D01*
X5502605Y-3602990D01*
X5502605Y-3646170D01*
X5546699Y-3646170D01*
X5547156Y-3603396D01*
X5589016Y-3602939D01*
X5589016Y-3689400D01*
X5632246Y-3689400D01*
X5632246Y-3731666D01*
X5546750Y-3731666D01*
X5546750Y-3688486D01*
X5200192Y-3688486D01*
X5200192Y-3731666D01*
X5373878Y-3731666D01*
X5373878Y-3690569D01*
X5375097Y-3689400D01*
X5416194Y-3689400D01*
X5416194Y-3731666D01*
X5113782Y-3731666D01*
X5113782Y-3774897D01*
X5071364Y-3774897D01*
X5071465Y-3688486D01*
X4897729Y-3688486D01*
X4897729Y-3731666D01*
X4724908Y-3731666D01*
X4724908Y-3774897D01*
X4465675Y-3774897D01*
X4465675Y-3775811D01*
X4595266Y-3775760D01*
X4595266Y-3818077D01*
X4639360Y-3818077D01*
X4639360Y-3776979D01*
X4640580Y-3775811D01*
X4681677Y-3775811D01*
X4681677Y-3818077D01*
X4725771Y-3818077D01*
X4725771Y-3776979D01*
X4726990Y-3775811D01*
X4768088Y-3775811D01*
X4768088Y-3818077D01*
X4552086Y-3818077D01*
X4552086Y-3904487D01*
X4596180Y-3904487D01*
X4596180Y-3820160D01*
X4597400Y-3818991D01*
X4638497Y-3818991D01*
X4638497Y-3861308D01*
X4682591Y-3861308D01*
X4682591Y-3820210D01*
X4683810Y-3818991D01*
X4724908Y-3818991D01*
X4724908Y-3861308D01*
X4638497Y-3861308D01*
X4638497Y-3904487D01*
X4552086Y-3904487D01*
X4552086Y-3905402D01*
X4595266Y-3905402D01*
X4595266Y-3947718D01*
X4552086Y-3947718D01*
X4552086Y-3990949D01*
X4508855Y-3990949D01*
X4508855Y-4034129D01*
X4682540Y-4034129D01*
X4683048Y-3992270D01*
X4855413Y-3991813D01*
X4855870Y-3949090D01*
X4898644Y-3948582D01*
X4898644Y-3904487D01*
X4854498Y-3904487D01*
X4854498Y-3947718D01*
X4682540Y-3947718D01*
X4683048Y-3905859D01*
X4725771Y-3905402D01*
X4726228Y-3862679D01*
X4768088Y-3862171D01*
X4768088Y-3905402D01*
X4812233Y-3905402D01*
X4812690Y-3776218D01*
X4854498Y-3775760D01*
X4854498Y-3862222D01*
X4898593Y-3862222D01*
X4899101Y-3819448D01*
X4940909Y-3818940D01*
X4940909Y-3862222D01*
X4985004Y-3862222D01*
X4985512Y-3818534D01*
X4985004Y-3774897D01*
X4941824Y-3774897D01*
X4941824Y-3733800D01*
X4942992Y-3732631D01*
X5027320Y-3732631D01*
X5027320Y-3775811D01*
X5070551Y-3775811D01*
X5070551Y-3818077D01*
X5027320Y-3818077D01*
X5027320Y-3861308D01*
X5071414Y-3861308D01*
X5071922Y-3819448D01*
X5114645Y-3818991D01*
X5115102Y-3776218D01*
X5156962Y-3775760D01*
X5156962Y-3818991D01*
X5201056Y-3818991D01*
X5201513Y-3776218D01*
X5244287Y-3775760D01*
X5244287Y-3733800D01*
X5245455Y-3732631D01*
X5329783Y-3732631D01*
X5329783Y-3774897D01*
X5286603Y-3774897D01*
X5286603Y-3818077D01*
X5373878Y-3818077D01*
X5373878Y-3776979D01*
X5375097Y-3775811D01*
X5416194Y-3775811D01*
X5416194Y-3818077D01*
X5243372Y-3818077D01*
X5243372Y-3861308D01*
X5330698Y-3861308D01*
X5330698Y-3820210D01*
X5331917Y-3818991D01*
X5373014Y-3818991D01*
X5373014Y-3861308D01*
X5243372Y-3861308D01*
X5243372Y-3904487D01*
X5201056Y-3904487D01*
X5201056Y-3861308D01*
X5156962Y-3861308D01*
X5156962Y-3904487D01*
X5114645Y-3904487D01*
X5114645Y-3861308D01*
X5027320Y-3861308D01*
X5027320Y-3862222D01*
X5070551Y-3862222D01*
X5070551Y-3904487D01*
X4940909Y-3904487D01*
X4940909Y-3948633D01*
X5070551Y-3948582D01*
X5070551Y-3990949D01*
X5027320Y-3990949D01*
X5027320Y-4034129D01*
X4985054Y-4034129D01*
X4985054Y-3990949D01*
X4940909Y-3990949D01*
X4940909Y-4035044D01*
X4984140Y-4035044D01*
X4984140Y-4078224D01*
X5028234Y-4078224D01*
X5028692Y-4035501D01*
X5114036Y-4035044D01*
X5114645Y-4034434D01*
X5115102Y-3949090D01*
X5157825Y-3948582D01*
X5158333Y-3905859D01*
X5200192Y-3905402D01*
X5200192Y-3947718D01*
X5244236Y-3947718D01*
X5244744Y-3905859D01*
X5287467Y-3905402D01*
X5287467Y-3863390D01*
X5288686Y-3862222D01*
X5329783Y-3862222D01*
X5329783Y-3947718D01*
X5417108Y-3947718D01*
X5417108Y-3906621D01*
X5418328Y-3905402D01*
X5459425Y-3905402D01*
X5459425Y-3947718D01*
X5329783Y-3947718D01*
X5329783Y-3948633D01*
X5416194Y-3948531D01*
X5416194Y-3990949D01*
X5329783Y-3990949D01*
X5329783Y-4120540D01*
X5287467Y-4120540D01*
X5287467Y-3947718D01*
X5200192Y-3947718D01*
X5200192Y-4035044D01*
X5243372Y-4035044D01*
X5243372Y-4077360D01*
X5113782Y-4077360D01*
X5113782Y-4120540D01*
X5070551Y-4120540D01*
X5070551Y-4164634D01*
X5114645Y-4164634D01*
X5115102Y-4121912D01*
X5286603Y-4121454D01*
X5286603Y-4163771D01*
X5156962Y-4163771D01*
X5156962Y-4206951D01*
X5287467Y-4206951D01*
X5287467Y-4165854D01*
X5288686Y-4164685D01*
X5373014Y-4164685D01*
X5373014Y-4207865D01*
X5416194Y-4207865D01*
X5416194Y-4250182D01*
X5330698Y-4250182D01*
X5330698Y-4206951D01*
X5028184Y-4206951D01*
X5028336Y-4164177D01*
X5028234Y-4120540D01*
X4855413Y-4120540D01*
X4855413Y-4077360D01*
X4812233Y-4077360D01*
X4812233Y-4034129D01*
X4768088Y-4034129D01*
X4768088Y-4078224D01*
X4811318Y-4078224D01*
X4811318Y-4120540D01*
X4768088Y-4120540D01*
X4768088Y-4163771D01*
X4725771Y-4163771D01*
X4725771Y-4034129D01*
X4508855Y-4034129D01*
X4508855Y-4078224D01*
X4552086Y-4078224D01*
X4552086Y-4163771D01*
X4596130Y-4163771D01*
X4596638Y-4121912D01*
X4639360Y-4121404D01*
X4639360Y-4077360D01*
X4596180Y-4077360D01*
X4596180Y-4036212D01*
X4597349Y-4035044D01*
X4681677Y-4035044D01*
X4681677Y-4207865D01*
X4724908Y-4207865D01*
X4724908Y-4250182D01*
X4639310Y-4250182D01*
X4639462Y-4207408D01*
X4639360Y-4163771D01*
X4552086Y-4163771D01*
X4552086Y-4164634D01*
X4595266Y-4164634D01*
X4595266Y-4250182D01*
X4552086Y-4250182D01*
X4552086Y-4293362D01*
X4509668Y-4293362D01*
X4509871Y-4250639D01*
X4509770Y-4206951D01*
X4466539Y-4206951D01*
X4466539Y-4163771D01*
X4336034Y-4163771D01*
X4336034Y-4206951D01*
X4250537Y-4206951D01*
X4250537Y-4163771D01*
X4207256Y-4163771D01*
X4207764Y-4121912D01*
X4250486Y-4121404D01*
X4250994Y-4078681D01*
X4292854Y-4078224D01*
X4292854Y-4121454D01*
X4423308Y-4121454D01*
X4423816Y-4078681D01*
X4466539Y-4078224D01*
X4466539Y-4034129D01*
X4423308Y-4034129D01*
X4423816Y-3992270D01*
X4466539Y-3991813D01*
X4466996Y-3949090D01*
X4509719Y-3948582D01*
X4510227Y-3904945D01*
X4509719Y-3861308D01*
X4423308Y-3861308D01*
X4423359Y-3731666D01*
X4293717Y-3731666D01*
X4293717Y-3688486D01*
X4249623Y-3688486D01*
X4249623Y-3732580D01*
X4292854Y-3732580D01*
X4292854Y-3775811D01*
X4379264Y-3775710D01*
X4379264Y-3818077D01*
X4336034Y-3818077D01*
X4336034Y-3861308D01*
X4293717Y-3861308D01*
X4293717Y-3818077D01*
X4250537Y-3818077D01*
X4250537Y-3774897D01*
X4207256Y-3774897D01*
X4207408Y-3732123D01*
X4207306Y-3688486D01*
X4163212Y-3688486D01*
X4163212Y-3731666D01*
X4120896Y-3731666D01*
X4120896Y-3688486D01*
X4076801Y-3688486D01*
X4076801Y-3732580D01*
X4119981Y-3732580D01*
X4119981Y-3774897D01*
X4076801Y-3774897D01*
X4076801Y-3818077D01*
X4120896Y-3818077D01*
X4120896Y-3776979D01*
X4122115Y-3775811D01*
X4163212Y-3775811D01*
X4163212Y-3818077D01*
X4076801Y-3818077D01*
X4076801Y-3861308D01*
X4207306Y-3861308D01*
X4207306Y-3820210D01*
X4208526Y-3818991D01*
X4249623Y-3818991D01*
X4249623Y-3861308D01*
X4076801Y-3861308D01*
X4076801Y-3904487D01*
X4164126Y-3904487D01*
X4164126Y-3863390D01*
X4165295Y-3862222D01*
X4206392Y-3862222D01*
X4206392Y-3904487D01*
X4336948Y-3904487D01*
X4336948Y-3863390D01*
X4338116Y-3862222D01*
X4422444Y-3862222D01*
X4422444Y-3904487D01*
X4076801Y-3904487D01*
X4076801Y-3948633D01*
X4120896Y-3948633D01*
X4121353Y-3905859D01*
X4163212Y-3905402D01*
X4163212Y-3948633D01*
X4206392Y-3948633D01*
X4206392Y-3990949D01*
X4163212Y-3990949D01*
X4163212Y-4034129D01*
X4250588Y-4034129D01*
X4250588Y-3906570D01*
X4251706Y-3905402D01*
X4292854Y-3905402D01*
X4292854Y-3947718D01*
X4423359Y-3947718D01*
X4423359Y-3906621D01*
X4424527Y-3905402D01*
X4465675Y-3905402D01*
X4465675Y-3947718D01*
X4292854Y-3947718D01*
X4292854Y-3948633D01*
X4422444Y-3948582D01*
X4422444Y-3990949D01*
X4336034Y-3990949D01*
X4336034Y-4034129D01*
X4076801Y-4034129D01*
X4076801Y-4163771D01*
X4120896Y-4163771D01*
X4121353Y-4078681D01*
X4164126Y-4078224D01*
X4164126Y-4036212D01*
X4165295Y-4035044D01*
X4249623Y-4035044D01*
X4249623Y-4077360D01*
X4336948Y-4077360D01*
X4336948Y-4036212D01*
X4338116Y-4035044D01*
X4422444Y-4035044D01*
X4422444Y-4077360D01*
X4206392Y-4077360D01*
X4206392Y-4120540D01*
X4163212Y-4120540D01*
X4163212Y-4163771D01*
X4076801Y-4163771D01*
X4076801Y-4164634D01*
X4119981Y-4164634D01*
X4119981Y-4207865D01*
X4249623Y-4207814D01*
X4249623Y-4250182D01*
X4336948Y-4250182D01*
X4336948Y-4209034D01*
X4338116Y-4207865D01*
X4422444Y-4207865D01*
X4422444Y-4251045D01*
X4465675Y-4251045D01*
X4465675Y-4294276D01*
X4508855Y-4294276D01*
X4508855Y-4336592D01*
X4423359Y-4336592D01*
X4423359Y-4293362D01*
X4380128Y-4293362D01*
X4380128Y-4250182D01*
X4206392Y-4250182D01*
X4206392Y-4294225D01*
X4250080Y-4294733D01*
X4293717Y-4294225D01*
X4294174Y-4251502D01*
X4336034Y-4251045D01*
X4336034Y-4294276D01*
X4379264Y-4294276D01*
X4379264Y-4336592D01*
X4292854Y-4336592D01*
X4292854Y-4423003D01*
X4249623Y-4423003D01*
X4249623Y-4467098D01*
X4293717Y-4467098D01*
X4294174Y-4424324D01*
X4336034Y-4423867D01*
X4336034Y-4467098D01*
X4380128Y-4467098D01*
X4380128Y-4423003D01*
X4336897Y-4423003D01*
X4337405Y-4381144D01*
X4380128Y-4380636D01*
X4380585Y-4337913D01*
X4422444Y-4337456D01*
X4422444Y-4466183D01*
X4466590Y-4466183D01*
X4466996Y-4381144D01*
X4552340Y-4380687D01*
X4553000Y-4380077D01*
X4553407Y-4294733D01*
X4596180Y-4294225D01*
X4596180Y-4252264D01*
X4597400Y-4251045D01*
X4638497Y-4251045D01*
X4638497Y-4293362D01*
X4725771Y-4293362D01*
X4725771Y-4252264D01*
X4726990Y-4251045D01*
X4768088Y-4251045D01*
X4768088Y-4293362D01*
X4638497Y-4293362D01*
X4638497Y-4336592D01*
X4768951Y-4336592D01*
X4769459Y-4294733D01*
X4812182Y-4294225D01*
X4812690Y-4251502D01*
X4941824Y-4251045D01*
X4941824Y-4206951D01*
X4855413Y-4206951D01*
X4855413Y-4165854D01*
X4856581Y-4164685D01*
X4984140Y-4164685D01*
X4984140Y-4293362D01*
X5028234Y-4293362D01*
X5028234Y-4252264D01*
X5029403Y-4251096D01*
X5113782Y-4251096D01*
X5113782Y-4293362D01*
X4940909Y-4293362D01*
X4940909Y-4336592D01*
X4898644Y-4336592D01*
X4898644Y-4293362D01*
X4854498Y-4293362D01*
X4854498Y-4336592D01*
X4595266Y-4336592D01*
X4595266Y-4379772D01*
X4941824Y-4379772D01*
X4942281Y-4337913D01*
X4985054Y-4337456D01*
X4985054Y-4295495D01*
X4986223Y-4294276D01*
X5027320Y-4294276D01*
X5027320Y-4379772D01*
X4595266Y-4379772D01*
X4595266Y-4423003D01*
X4508855Y-4423003D01*
X4508855Y-4466183D01*
X4422444Y-4466183D01*
X4422444Y-4510328D01*
X4465675Y-4510328D01*
X4465675Y-4552594D01*
X4552950Y-4552594D01*
X4552950Y-4511497D01*
X4554169Y-4510328D01*
X4595266Y-4510328D01*
X4595266Y-4552594D01*
X4422444Y-4552594D01*
X4422444Y-4726330D01*
X4465675Y-4726330D01*
X4465675Y-4768646D01*
X4422444Y-4768646D01*
X4422444Y-4812741D01*
X4509262Y-4812639D01*
X4509770Y-4812131D01*
X4510227Y-4683556D01*
X4552950Y-4683099D01*
X4552950Y-4639005D01*
X4508855Y-4639005D01*
X4508855Y-4682236D01*
X4466590Y-4682236D01*
X4466996Y-4597146D01*
X4595266Y-4596739D01*
X4595266Y-4683150D01*
X4638497Y-4683150D01*
X4638497Y-4726330D01*
X4681677Y-4726330D01*
X4681677Y-4768646D01*
X4638497Y-4768646D01*
X4638497Y-4812690D01*
X4682134Y-4813198D01*
X4725720Y-4812690D01*
X4726228Y-4769104D01*
X4725720Y-4725416D01*
X4682591Y-4725416D01*
X4682591Y-4682236D01*
X4639360Y-4682236D01*
X4639818Y-4640376D01*
X4682591Y-4639868D01*
X4682591Y-4595825D01*
X4596130Y-4595825D01*
X4596638Y-4553966D01*
X4639310Y-4553458D01*
X4639818Y-4509871D01*
X4639310Y-4466183D01*
X4596130Y-4466183D01*
X4596638Y-4424324D01*
X4681677Y-4423918D01*
X4681677Y-4467098D01*
X4768494Y-4466996D01*
X4769002Y-4466488D01*
X4769459Y-4381144D01*
X4854498Y-4380687D01*
X4854498Y-4423003D01*
X4811318Y-4423003D01*
X4811318Y-4466183D01*
X4855413Y-4466183D01*
X4855413Y-4425086D01*
X4856632Y-4423867D01*
X4897729Y-4423867D01*
X4897729Y-4466183D01*
X4811318Y-4466183D01*
X4811318Y-4467098D01*
X4854498Y-4467098D01*
X4854498Y-4552594D01*
X4898593Y-4552594D01*
X4899101Y-4510735D01*
X4984445Y-4510328D01*
X4985054Y-4509668D01*
X4985054Y-4425086D01*
X4986223Y-4423867D01*
X5027320Y-4423867D01*
X5027320Y-4466183D01*
X5071465Y-4466183D01*
X5071465Y-4338624D01*
X5072634Y-4337456D01*
X5113782Y-4337456D01*
X5113782Y-4423003D01*
X5157876Y-4423003D01*
X5158333Y-4337913D01*
X5201056Y-4337456D01*
X5201056Y-4293362D01*
X5157876Y-4293362D01*
X5157876Y-4209034D01*
X5159044Y-4207865D01*
X5200192Y-4207865D01*
X5200192Y-4251045D01*
X5329783Y-4251045D01*
X5329783Y-4293362D01*
X5417108Y-4293362D01*
X5417108Y-4252264D01*
X5418328Y-4251045D01*
X5459425Y-4251045D01*
X5459425Y-4293362D01*
X5329783Y-4293362D01*
X5329783Y-4294276D01*
X5416194Y-4294174D01*
X5416194Y-4336592D01*
X5329783Y-4336592D01*
X5329783Y-4379772D01*
X5417058Y-4379772D01*
X5417566Y-4337913D01*
X5460288Y-4337456D01*
X5460288Y-4295495D01*
X5461508Y-4294276D01*
X5502605Y-4294276D01*
X5502605Y-4337456D01*
X5589016Y-4337405D01*
X5589016Y-4423003D01*
X5545836Y-4423003D01*
X5545836Y-4466183D01*
X5503418Y-4466183D01*
X5503621Y-4423460D01*
X5503519Y-4379772D01*
X5287467Y-4379772D01*
X5287467Y-4336592D01*
X5243372Y-4336592D01*
X5243372Y-4379772D01*
X5200192Y-4379772D01*
X5200192Y-4423003D01*
X5373878Y-4423003D01*
X5373878Y-4381906D01*
X5375097Y-4380687D01*
X5416194Y-4380687D01*
X5416194Y-4423003D01*
X5113782Y-4423003D01*
X5113782Y-4466183D01*
X5027320Y-4466183D01*
X5027320Y-4467098D01*
X5070551Y-4467098D01*
X5070551Y-4509414D01*
X5114645Y-4509414D01*
X5114645Y-4468317D01*
X5115864Y-4467098D01*
X5156962Y-4467098D01*
X5156962Y-4509414D01*
X5027320Y-4509414D01*
X5027320Y-4552594D01*
X5071465Y-4552594D01*
X5071465Y-4511497D01*
X5072634Y-4510328D01*
X5113782Y-4510328D01*
X5113782Y-4552594D01*
X5201107Y-4552594D01*
X5201107Y-4468266D01*
X5202275Y-4467098D01*
X5243372Y-4467098D01*
X5243372Y-4510328D01*
X5286603Y-4510328D01*
X5286603Y-4595825D01*
X5330748Y-4595825D01*
X5330748Y-4468266D01*
X5331866Y-4467148D01*
X5459425Y-4467148D01*
X5459425Y-4552594D01*
X5503519Y-4552594D01*
X5503519Y-4511497D01*
X5504738Y-4510328D01*
X5545836Y-4510328D01*
X5545836Y-4552594D01*
X5459425Y-4552594D01*
X5459425Y-4595825D01*
X5546750Y-4595825D01*
X5546750Y-4554728D01*
X5547918Y-4553508D01*
X5589016Y-4553508D01*
X5589016Y-4595825D01*
X5244287Y-4595825D01*
X5244287Y-4552594D01*
X5027320Y-4552594D01*
X5027320Y-4553508D01*
X5070551Y-4553508D01*
X5070551Y-4595825D01*
X5114645Y-4595825D01*
X5114645Y-4554728D01*
X5115814Y-4553559D01*
X5200192Y-4553559D01*
X5200192Y-4596739D01*
X5243372Y-4596739D01*
X5243372Y-4639005D01*
X5503519Y-4639005D01*
X5503519Y-4597908D01*
X5504738Y-4596739D01*
X5545836Y-4596739D01*
X5545836Y-4639005D01*
X5589930Y-4639005D01*
X5589930Y-4597908D01*
X5591149Y-4596739D01*
X5632246Y-4596739D01*
X5632246Y-4639005D01*
X5157876Y-4639005D01*
X5157876Y-4595825D01*
X4941824Y-4595825D01*
X4941824Y-4552594D01*
X4854498Y-4552594D01*
X4854498Y-4553508D01*
X4897729Y-4553508D01*
X4897729Y-4595825D01*
X4854498Y-4595825D01*
X4854498Y-4639005D01*
X4724908Y-4639005D01*
X4724908Y-4683150D01*
X4854498Y-4683099D01*
X4854498Y-4726330D01*
X4898644Y-4726330D01*
X4898644Y-4682236D01*
X4855413Y-4682236D01*
X4855870Y-4640376D01*
X4898593Y-4639868D01*
X4899101Y-4597146D01*
X4940909Y-4596688D01*
X4940909Y-4639919D01*
X5113782Y-4639919D01*
X5113782Y-4682236D01*
X5070551Y-4682236D01*
X5070551Y-4725416D01*
X5244287Y-4725416D01*
X5244287Y-4684318D01*
X5245506Y-4683150D01*
X5286603Y-4683150D01*
X5286603Y-4725416D01*
X5028234Y-4725416D01*
X5028234Y-4682236D01*
X4940909Y-4682236D01*
X4940909Y-4726330D01*
X4984140Y-4726330D01*
X4984140Y-4769561D01*
X5027320Y-4769561D01*
X5027320Y-4812741D01*
X5201056Y-4812741D01*
X5201056Y-4768646D01*
X5114645Y-4768646D01*
X5115102Y-4726787D01*
X5243372Y-4726381D01*
X5243372Y-4769561D01*
X5329783Y-4769459D01*
X5329783Y-4812690D01*
X5373471Y-4813198D01*
X5417058Y-4812690D01*
X5417566Y-4769104D01*
X5417058Y-4725416D01*
X5373014Y-4725416D01*
X5373014Y-4768646D01*
X5330698Y-4768646D01*
X5331155Y-4640376D01*
X5373014Y-4639868D01*
X5373014Y-4683150D01*
X5417058Y-4683150D01*
X5417566Y-4640376D01*
X5459425Y-4639868D01*
X5459425Y-4682236D01*
X5546750Y-4682236D01*
X5546750Y-4641138D01*
X5547918Y-4639919D01*
X5589016Y-4639919D01*
X5589016Y-4682236D01*
X5459425Y-4682236D01*
X5459425Y-4683150D01*
X5545836Y-4683048D01*
X5545836Y-4726330D01*
X5589879Y-4726330D01*
X5590387Y-4683556D01*
X5632246Y-4683099D01*
X5632246Y-4768646D01*
X5503519Y-4768646D01*
X5503519Y-4725416D01*
X5459425Y-4725416D01*
X5459425Y-4812741D01*
X5675731Y-4812792D01*
X5676341Y-4812182D01*
X5676341Y-4682236D01*
X5633110Y-4682236D01*
X5633567Y-4640376D01*
X5676341Y-4639868D01*
X5676341Y-4595825D01*
X5633110Y-4595825D01*
X5633567Y-4553966D01*
X5676341Y-4553458D01*
X5676341Y-4509414D01*
X5546699Y-4509414D01*
X5547156Y-4467555D01*
X5676341Y-4467098D01*
X5676341Y-4423003D01*
X5633110Y-4423003D01*
X5633567Y-4381144D01*
X5676341Y-4380636D01*
X5676341Y-4336592D01*
X5589930Y-4336592D01*
X5590387Y-4251502D01*
X5632246Y-4251045D01*
X5632246Y-4294276D01*
X5676341Y-4294276D01*
X5676341Y-4163771D01*
X5589016Y-4163771D01*
X5589016Y-4250182D01*
X5545836Y-4250182D01*
X5545836Y-4293362D01*
X5503519Y-4293362D01*
X5503976Y-4208322D01*
X5546750Y-4207814D01*
X5546801Y-4165092D01*
X5547156Y-4121912D01*
X5589930Y-4121404D01*
X5589930Y-4077360D01*
X5459425Y-4077360D01*
X5459425Y-4121454D01*
X5502605Y-4121454D01*
X5502605Y-4163771D01*
X5373878Y-4163771D01*
X5374335Y-4121912D01*
X5417108Y-4121404D01*
X5417108Y-4077360D01*
X5373878Y-4077360D01*
X5374335Y-4035501D01*
X5459679Y-4035044D01*
X5460339Y-4034434D01*
X5460746Y-3949090D01*
X5503519Y-3948582D01*
X5503570Y-3905859D01*
X5503976Y-3862679D01*
X5546750Y-3862171D01*
X5546750Y-3818077D01*
X5460288Y-3818077D01*
X5460746Y-3776218D01*
X5675731Y-3775811D01*
X5676341Y-3775201D01*
X5676341Y-3645255D01*
X5633161Y-3645255D01*
X5633161Y-3602075D01*
X5589930Y-3602075D01*
X5589930Y-3558844D01*
X5373014Y-3558844D01*
X5373014Y-3602990D01*
X5416194Y-3602990D01*
X5416194Y-3645255D01*
X5244287Y-3645255D01*
X5244287Y-3602075D01*
X5201107Y-3602075D01*
X5201513Y-3516985D01*
X5244236Y-3516528D01*
X5244744Y-3473805D01*
X5286603Y-3473297D01*
X5286603Y-3559759D01*
X5330647Y-3559759D01*
X5331155Y-3516122D01*
X5330647Y-3472434D01*
X5287467Y-3472434D01*
X5287924Y-3430574D01*
X5330698Y-3430117D01*
X5330698Y-3386023D01*
X5287467Y-3386023D01*
X5287467Y-3342843D01*
X5244236Y-3342843D01*
X5244744Y-3300984D01*
X5287416Y-3300476D01*
X5287924Y-3256838D01*
X5287416Y-3213201D01*
X5243372Y-3213201D01*
X5243372Y-3299612D01*
X5201005Y-3299612D01*
X5201158Y-3256838D01*
X5201056Y-3213201D01*
G37*
G36*
X5373014Y-3213201D02*
G01*
X5373014Y-3256432D01*
X5632246Y-3256432D01*
X5632246Y-3472434D01*
X5416194Y-3472434D01*
X5416194Y-3256432D01*
X5373014Y-3256432D01*
X5373014Y-3515664D01*
X5675426Y-3515664D01*
X5675426Y-3213201D01*
G37*
G36*
X4163212Y-3299612D02*
G01*
X4163212Y-3429254D01*
X4292854Y-3429254D01*
X4292854Y-3299612D01*
G37*
G36*
X5459425Y-3299612D02*
G01*
X5459425Y-3429254D01*
X5589016Y-3429254D01*
X5589016Y-3299612D01*
G37*
G36*
X4076801Y-3558844D02*
G01*
X4076801Y-3602990D01*
X4119981Y-3602990D01*
X4119981Y-3646119D01*
X4163669Y-3646627D01*
X4207256Y-3646119D01*
X4207764Y-3603396D01*
X4292854Y-3602990D01*
X4292854Y-3646170D01*
X4336034Y-3646170D01*
X4336034Y-3689400D01*
X4380128Y-3689400D01*
X4380128Y-3645255D01*
X4336897Y-3645255D01*
X4337405Y-3603396D01*
X4380128Y-3602939D01*
X4380128Y-3558844D01*
X4163212Y-3558844D01*
X4163212Y-3602075D01*
X4120896Y-3602075D01*
X4120896Y-3558844D01*
G37*
G36*
X5589016Y-3818077D02*
G01*
X5589016Y-3904487D01*
X5545836Y-3904487D01*
X5545836Y-3991813D01*
X5589016Y-3991813D01*
X5589016Y-4035044D01*
X5632246Y-4035044D01*
X5632246Y-4078224D01*
X5676290Y-4078224D01*
X5676798Y-4034586D01*
X5676290Y-3990949D01*
X5633161Y-3990949D01*
X5633567Y-3905859D01*
X5676290Y-3905402D01*
X5676798Y-3861765D01*
X5676290Y-3818077D01*
G37*
G36*
X4076801Y-4250182D02*
G01*
X4076801Y-4467098D01*
X4120896Y-4467098D01*
X4121353Y-4294733D01*
X4164126Y-4294225D01*
X4164126Y-4250182D01*
G37*
G36*
X4163212Y-4336592D02*
G01*
X4163212Y-4380687D01*
X4207306Y-4380687D01*
X4207306Y-4336592D01*
G37*
G36*
X4163212Y-4423003D02*
G01*
X4163212Y-4467098D01*
X4207306Y-4467098D01*
X4207306Y-4423003D01*
G37*
G36*
X4076801Y-4509414D02*
G01*
X4076801Y-4552594D01*
X4336034Y-4552594D01*
X4336034Y-4768646D01*
X4119981Y-4768646D01*
X4119981Y-4552594D01*
X4076801Y-4552594D01*
X4076801Y-4811826D01*
X4379264Y-4811826D01*
X4379264Y-4509414D01*
G37*
G36*
X4681677Y-4509414D02*
G01*
X4681677Y-4553508D01*
X4768088Y-4553407D01*
X4768088Y-4596739D01*
X4812233Y-4596739D01*
X4812233Y-4552594D01*
X4769002Y-4552594D01*
X4769002Y-4509414D01*
G37*
G36*
X5373014Y-4509414D02*
G01*
X5373014Y-4553508D01*
X5417108Y-4553508D01*
X5417108Y-4509414D01*
G37*
G36*
X4163212Y-4595825D02*
G01*
X4163212Y-4725416D01*
X4292854Y-4725416D01*
X4292854Y-4595825D01*
G37*
G36*
X4768088Y-4725416D02*
G01*
X4768088Y-4769561D01*
X4811318Y-4769561D01*
X4811318Y-4812741D01*
X4855413Y-4812741D01*
X4855413Y-4768646D01*
X4812233Y-4768646D01*
X4812233Y-4725416D01*
G37*
G36*
X4127500Y-1320546D02*
G01*
X4127500Y-1321054D01*
X4121658Y-1321460D01*
X4106875Y-1324203D01*
X4099661Y-1325981D01*
X4098645Y-1326540D01*
X4097578Y-1326540D01*
X4081932Y-1331417D01*
X4081018Y-1331874D01*
X4078935Y-1332331D01*
X4078325Y-1332788D01*
X4067759Y-1336548D01*
X4063187Y-1338580D01*
X4062526Y-1338580D01*
X4051046Y-1343710D01*
X4036618Y-1350619D01*
X4065879Y-1350619D01*
X4080713Y-1344879D01*
X4081627Y-1344371D01*
X4083608Y-1343964D01*
X4085234Y-1343101D01*
X4086250Y-1343101D01*
X4086555Y-1342593D01*
X4088790Y-1342186D01*
X4089755Y-1341628D01*
X4108399Y-1336497D01*
X4117136Y-1334668D01*
X4131868Y-1332636D01*
X4144314Y-1332585D01*
X4152341Y-1333754D01*
X4156557Y-1334617D01*
X4160520Y-1336192D01*
X4161129Y-1336192D01*
X4166158Y-1338783D01*
X4169511Y-1341018D01*
X4174032Y-1345387D01*
X4177080Y-1349857D01*
X4179519Y-1355039D01*
X4179519Y-1355750D01*
X4180078Y-1356817D01*
X4181906Y-1363726D01*
X4182719Y-1369110D01*
X4182668Y-1385671D01*
X4181703Y-1393494D01*
X4180128Y-1402232D01*
X4178147Y-1411325D01*
X4177741Y-1411935D01*
X4176318Y-1417574D01*
X4173728Y-1426311D01*
X4173321Y-1426870D01*
X4172864Y-1428953D01*
X4172356Y-1429918D01*
X4168140Y-1441653D01*
X4164685Y-1450187D01*
X4161637Y-1450187D01*
X4159859Y-1449628D01*
X4156252Y-1449019D01*
X4150715Y-1447698D01*
X4142689Y-1445158D01*
X4140454Y-1444193D01*
X4139844Y-1444193D01*
X4132478Y-1441145D01*
X4123740Y-1436624D01*
X4115917Y-1431747D01*
X4114800Y-1430629D01*
X4114292Y-1430629D01*
X4106418Y-1424635D01*
X4095140Y-1413916D01*
X4090771Y-1408988D01*
X4086098Y-1403146D01*
X4084675Y-1400708D01*
X4084269Y-1400403D01*
X4078427Y-1390954D01*
X4072432Y-1378559D01*
X4072077Y-1377086D01*
X4071518Y-1376781D01*
X4071518Y-1375765D01*
X4070350Y-1373327D01*
X4070350Y-1372006D01*
X4069791Y-1371701D01*
X4069384Y-1369720D01*
X4068013Y-1365504D01*
X4066387Y-1358900D01*
X4065473Y-1354074D01*
X4065168Y-1350619D01*
X4036618Y-1350619D01*
X4023563Y-1357172D01*
X4014825Y-1361897D01*
X4005630Y-1367180D01*
X4005326Y-1367180D01*
X3980687Y-1382217D01*
X3959504Y-1396441D01*
X3937203Y-1413002D01*
X3922268Y-1425194D01*
X3921201Y-1425549D01*
X3912565Y-1421638D01*
X3904132Y-1418793D01*
X3897833Y-1417370D01*
X3886657Y-1415643D01*
X3871010Y-1414424D01*
X3862628Y-1414373D01*
X3845153Y-1415592D01*
X3822039Y-1418945D01*
X3820972Y-1419504D01*
X3819347Y-1419504D01*
X3816858Y-1420723D01*
X3811320Y-1426006D01*
X3755220Y-1477264D01*
X3773322Y-1477264D01*
X3821887Y-1432814D01*
X3824122Y-1431036D01*
X3836568Y-1428953D01*
X3847287Y-1427683D01*
X3860495Y-1426870D01*
X3870604Y-1426718D01*
X3882745Y-1427378D01*
X3889400Y-1428292D01*
X3898696Y-1430070D01*
X3905046Y-1431899D01*
X3910431Y-1434033D01*
X3911193Y-1434642D01*
X3902964Y-1442212D01*
X3885488Y-1460144D01*
X3873804Y-1473657D01*
X3867810Y-1481023D01*
X3856888Y-1496212D01*
X3856024Y-1496212D01*
X3847693Y-1492402D01*
X3841546Y-1489913D01*
X3840530Y-1489303D01*
X3839768Y-1489303D01*
X3838244Y-1488541D01*
X3833723Y-1487119D01*
X3833114Y-1486662D01*
X3831031Y-1486204D01*
X3830116Y-1485747D01*
X3824122Y-1483969D01*
X3821988Y-1483563D01*
X3820769Y-1483055D01*
X3811473Y-1480921D01*
X3801516Y-1479194D01*
X3789527Y-1477822D01*
X3774135Y-1477568D01*
X3773322Y-1477264D01*
X3755220Y-1477264D01*
X3750614Y-1481328D01*
X3748938Y-1484020D01*
X3748989Y-1487373D01*
X3750208Y-1489862D01*
X3751783Y-1491081D01*
X3754831Y-1492097D01*
X3762146Y-1490827D01*
X3779469Y-1489506D01*
X3796131Y-1490776D01*
X3801516Y-1491437D01*
X3809949Y-1493062D01*
X3818686Y-1495044D01*
X3819601Y-1495552D01*
X3821684Y-1495958D01*
X3829608Y-1498650D01*
X3830065Y-1498650D01*
X3846068Y-1505000D01*
X3849827Y-1506931D01*
X3849827Y-1507439D01*
X3847541Y-1510842D01*
X3841902Y-1520748D01*
X3835755Y-1532788D01*
X3830878Y-1543405D01*
X3830878Y-1544066D01*
X3828440Y-1549196D01*
X3828440Y-1549958D01*
X3827475Y-1551940D01*
X3840479Y-1551940D01*
X3841089Y-1551533D01*
X3841089Y-1550619D01*
X3846880Y-1537919D01*
X3850894Y-1529791D01*
X3854704Y-1522882D01*
X3858564Y-1516430D01*
X3858564Y-1515821D01*
X3859022Y-1515618D01*
X3861358Y-1511706D01*
X3863035Y-1509369D01*
X3863035Y-1508607D01*
X3863594Y-1508404D01*
X3871925Y-1496161D01*
X3881577Y-1483766D01*
X3889552Y-1474114D01*
X3894937Y-1467967D01*
X3912260Y-1450289D01*
X3923233Y-1440383D01*
X3930904Y-1433779D01*
X3944569Y-1422704D01*
X3969816Y-1403858D01*
X3970172Y-1403858D01*
X3988612Y-1391462D01*
X3997502Y-1385824D01*
X3997807Y-1385824D01*
X4009542Y-1378610D01*
X4010050Y-1378610D01*
X4014419Y-1375867D01*
X4027474Y-1368755D01*
X4043426Y-1360576D01*
X4052925Y-1356055D01*
X4053687Y-1356817D01*
X4054094Y-1360017D01*
X4056938Y-1371041D01*
X4057396Y-1371498D01*
X4057396Y-1373022D01*
X4058259Y-1374648D01*
X4058665Y-1376629D01*
X4062222Y-1385214D01*
X4062222Y-1385570D01*
X4066540Y-1394409D01*
X4069537Y-1399794D01*
X4069892Y-1400098D01*
X4071315Y-1402842D01*
X4074058Y-1407058D01*
X4080103Y-1415135D01*
X4084878Y-1420876D01*
X4094581Y-1430578D01*
X4106011Y-1439722D01*
X4113072Y-1444498D01*
X4119219Y-1447952D01*
X4129735Y-1453184D01*
X4137253Y-1456131D01*
X4147667Y-1459433D01*
X4152696Y-1460754D01*
X4159402Y-1461973D01*
X4159402Y-1462836D01*
X4152341Y-1477568D01*
X4145940Y-1490116D01*
X4144416Y-1492453D01*
X4143959Y-1493926D01*
X4141165Y-1498701D01*
X4139488Y-1502257D01*
X4138929Y-1502257D01*
X4138929Y-1502918D01*
X4125112Y-1525676D01*
X4107789Y-1551432D01*
X4092143Y-1572107D01*
X4080713Y-1585976D01*
X4065473Y-1602892D01*
X4050639Y-1617624D01*
X4040987Y-1626362D01*
X4027119Y-1637690D01*
X4012031Y-1648764D01*
X4011676Y-1648764D01*
X4000398Y-1656283D01*
X3999687Y-1656283D01*
X3999484Y-1656740D01*
X3994810Y-1659585D01*
X3993956Y-1659889D01*
X4019194Y-1659889D01*
X4019194Y-1658518D01*
X4026154Y-1653743D01*
X4036872Y-1645615D01*
X4044035Y-1639874D01*
X4054398Y-1630883D01*
X4069892Y-1616049D01*
X4080814Y-1604518D01*
X4081779Y-1604924D01*
X4081779Y-1605889D01*
X4082948Y-1608277D01*
X4082999Y-1609242D01*
X4083405Y-1609699D01*
X4085590Y-1617472D01*
X4086809Y-1623923D01*
X4086961Y-1623923D01*
X4087774Y-1629664D01*
X4088688Y-1639874D01*
X4089095Y-1649374D01*
X4087774Y-1668780D01*
X4086047Y-1682292D01*
X4084320Y-1691741D01*
X4038396Y-1742033D01*
X4037837Y-1741678D01*
X4037837Y-1728470D01*
X4036618Y-1716024D01*
X4034840Y-1705152D01*
X4033367Y-1698243D01*
X4031487Y-1690725D01*
X4031030Y-1690116D01*
X4030624Y-1687525D01*
X4030065Y-1686509D01*
X4028694Y-1681988D01*
X4028236Y-1681429D01*
X4028236Y-1680159D01*
X4027322Y-1678990D01*
X4027322Y-1677771D01*
X4026154Y-1675384D01*
X4026103Y-1674622D01*
X4019804Y-1660601D01*
X4019804Y-1659889D01*
X3993956Y-1659889D01*
X3989476Y-1662582D01*
X3988866Y-1662582D01*
X3988663Y-1663039D01*
X3979621Y-1667662D01*
X3963466Y-1674926D01*
X3962857Y-1674926D01*
X3840632Y-1552803D01*
X3840479Y-1551940D01*
X3827475Y-1551940D01*
X3827272Y-1552346D01*
X3827272Y-1553108D01*
X3826713Y-1554124D01*
X3822446Y-1567230D01*
X3820668Y-1573682D01*
X3818737Y-1582115D01*
X3817213Y-1589938D01*
X3813386Y-1591716D01*
X3829354Y-1591716D01*
X3830828Y-1583944D01*
X3832656Y-1576120D01*
X3835095Y-1567383D01*
X3836060Y-1565503D01*
X3949954Y-1679295D01*
X3948633Y-1680210D01*
X3939336Y-1682800D01*
X3926281Y-1685798D01*
X3923080Y-1685899D01*
X3830218Y-1592986D01*
X3829354Y-1591716D01*
X3813386Y-1591716D01*
X3776472Y-1607566D01*
X3775913Y-1607566D01*
X3773424Y-1609699D01*
X3772408Y-1611782D01*
X3772408Y-1614932D01*
X3772885Y-1615846D01*
X3789629Y-1615846D01*
X3789629Y-1615186D01*
X3820769Y-1601876D01*
X3821887Y-1601978D01*
X3913327Y-1693418D01*
X3913886Y-1694434D01*
X3909364Y-1704390D01*
X3909364Y-1705051D01*
X3900322Y-1725828D01*
X3899458Y-1725625D01*
X3789629Y-1615846D01*
X3772885Y-1615846D01*
X3773678Y-1617319D01*
X3791762Y-1635353D01*
X3792016Y-1636014D01*
X3781094Y-1636369D01*
X3772662Y-1637944D01*
X3767226Y-1639316D01*
X3761536Y-1641043D01*
X3760927Y-1641449D01*
X3758844Y-1641906D01*
X3750970Y-1645462D01*
X3744214Y-1649171D01*
X3744214Y-1649679D01*
X3743655Y-1649679D01*
X3738067Y-1653387D01*
X3731514Y-1658518D01*
X3728415Y-1661210D01*
X3721506Y-1668170D01*
X3714546Y-1676298D01*
X3709924Y-1682750D01*
X3709924Y-1683054D01*
X3707231Y-1686712D01*
X3707231Y-1687271D01*
X3706622Y-1688033D01*
X3703624Y-1693316D01*
X3703624Y-1693875D01*
X3703065Y-1693875D01*
X3702659Y-1695704D01*
X3702100Y-1695704D01*
X3702100Y-1696364D01*
X3698544Y-1703984D01*
X3696715Y-1709064D01*
X3695496Y-1713230D01*
X3695496Y-1714652D01*
X3694887Y-1714652D01*
X3694887Y-1717395D01*
X3706876Y-1717395D01*
X3708806Y-1711502D01*
X3710228Y-1708353D01*
X3710228Y-1707692D01*
X3714800Y-1698396D01*
X3719880Y-1689811D01*
X3723284Y-1685036D01*
X3727805Y-1679295D01*
X3736848Y-1669948D01*
X3740759Y-1666595D01*
X3745890Y-1662734D01*
X3750970Y-1659382D01*
X3759555Y-1654860D01*
X3763314Y-1653489D01*
X3763924Y-1653082D01*
X3769664Y-1651203D01*
X3776268Y-1649628D01*
X3780434Y-1649069D01*
X3781399Y-1648663D01*
X3787394Y-1648206D01*
X3800348Y-1648460D01*
X3805682Y-1649272D01*
X3866235Y-1709826D01*
X3867251Y-1718411D01*
X3867251Y-1728317D01*
X3866692Y-1734057D01*
X3865372Y-1741728D01*
X3864203Y-1746097D01*
X3862425Y-1751482D01*
X3859072Y-1758899D01*
X3856278Y-1764284D01*
X3850944Y-1772259D01*
X3847287Y-1776730D01*
X3838397Y-1785823D01*
X3825595Y-1795627D01*
X3817162Y-1800606D01*
X3806748Y-1805533D01*
X3803040Y-1807006D01*
X3802075Y-1807006D01*
X3801618Y-1807464D01*
X3797198Y-1808581D01*
X3797046Y-1806549D01*
X3797401Y-1801723D01*
X3799738Y-1791411D01*
X3801821Y-1783994D01*
X3803192Y-1780539D01*
X3803192Y-1779473D01*
X3803954Y-1777949D01*
X3805072Y-1774647D01*
X3805072Y-1771904D01*
X3803853Y-1769567D01*
X3802278Y-1768195D01*
X3800094Y-1767281D01*
X3798163Y-1767281D01*
X3795979Y-1768195D01*
X3794353Y-1769567D01*
X3793134Y-1771040D01*
X3784701Y-1779524D01*
X3775354Y-1786991D01*
X3767836Y-1791868D01*
X3760622Y-1795830D01*
X3751579Y-1799742D01*
X3750665Y-1799793D01*
X3750208Y-1800199D01*
X3743248Y-1802384D01*
X3732326Y-1804873D01*
X3721201Y-1806041D01*
X3709720Y-1806092D01*
X3709314Y-1805127D01*
X3709365Y-1795119D01*
X3709924Y-1788820D01*
X3710787Y-1782470D01*
X3712921Y-1772716D01*
X3714140Y-1769465D01*
X3714140Y-1768754D01*
X3715969Y-1763217D01*
X3720642Y-1753006D01*
X3723944Y-1746961D01*
X3728872Y-1739442D01*
X3735781Y-1730959D01*
X3746957Y-1719986D01*
X3748125Y-1717293D01*
X3748125Y-1714957D01*
X3747515Y-1714601D01*
X3747515Y-1713534D01*
X3745382Y-1711045D01*
X3744264Y-1711045D01*
X3743909Y-1710436D01*
X3740302Y-1710436D01*
X3728415Y-1714601D01*
X3718814Y-1717090D01*
X3713987Y-1718005D01*
X3707231Y-1718310D01*
X3706876Y-1717395D01*
X3694887Y-1717395D01*
X3694887Y-1723085D01*
X3695446Y-1723085D01*
X3695852Y-1724863D01*
X3698443Y-1727758D01*
X3700779Y-1728927D01*
X3701084Y-1729333D01*
X3707079Y-1730654D01*
X3714902Y-1730298D01*
X3716832Y-1729739D01*
X3720744Y-1729333D01*
X3720744Y-1730044D01*
X3718915Y-1732229D01*
X3714851Y-1738274D01*
X3709466Y-1747570D01*
X3707587Y-1751482D01*
X3703929Y-1760220D01*
X3701999Y-1765960D01*
X3700119Y-1773326D01*
X3697579Y-1787296D01*
X3696919Y-1797507D01*
X3697325Y-1808378D01*
X3697833Y-1812289D01*
X3698392Y-1814068D01*
X3699560Y-1816049D01*
X3702558Y-1817522D01*
X3707688Y-1818182D01*
X3724198Y-1818182D01*
X3735374Y-1816658D01*
X3740150Y-1815795D01*
X3752697Y-1812391D01*
X3759911Y-1809648D01*
X3760215Y-1809089D01*
X3761181Y-1809089D01*
X3771137Y-1804212D01*
X3777792Y-1800199D01*
X3785006Y-1795170D01*
X3785463Y-1794408D01*
X3786225Y-1794713D01*
X3785412Y-1799640D01*
X3784803Y-1806600D01*
X3785412Y-1811375D01*
X3786022Y-1813814D01*
X3787648Y-1816963D01*
X3790645Y-1819656D01*
X3792372Y-1820011D01*
X3792372Y-1820519D01*
X3800500Y-1820519D01*
X3800500Y-1819960D01*
X3801872Y-1819960D01*
X3809187Y-1817522D01*
X3812692Y-1816049D01*
X3813352Y-1816049D01*
X3822293Y-1811731D01*
X3827170Y-1808835D01*
X3827678Y-1808835D01*
X3829507Y-1807413D01*
X3833418Y-1805076D01*
X3838854Y-1801164D01*
X3846322Y-1795119D01*
X3854500Y-1786991D01*
X3858209Y-1782775D01*
X3863644Y-1775256D01*
X3866438Y-1771040D01*
X3871163Y-1762048D01*
X3874770Y-1753107D01*
X3874770Y-1752244D01*
X3875328Y-1751177D01*
X3876243Y-1748180D01*
X3878122Y-1740357D01*
X3879291Y-1730756D01*
X3879291Y-1723339D01*
X3880510Y-1723999D01*
X3898087Y-1741779D01*
X3900525Y-1742897D01*
X3902405Y-1743252D01*
X3904792Y-1742643D01*
X3906723Y-1741271D01*
X3909618Y-1735277D01*
X3920744Y-1709369D01*
X3924503Y-1700123D01*
X3925620Y-1698193D01*
X3941724Y-1694840D01*
X3947769Y-1693265D01*
X3948937Y-1692706D01*
X3959199Y-1689557D01*
X3959758Y-1689049D01*
X3960672Y-1689049D01*
X3962400Y-1688185D01*
X3962958Y-1688185D01*
X3972712Y-1684223D01*
X3988358Y-1676907D01*
X3988562Y-1676450D01*
X3989273Y-1676450D01*
X3998569Y-1671523D01*
X4008374Y-1665579D01*
X4009542Y-1666951D01*
X4009593Y-1667459D01*
X4012946Y-1675079D01*
X4015079Y-1680514D01*
X4016248Y-1684274D01*
X4016806Y-1684578D01*
X4016806Y-1685543D01*
X4017619Y-1687423D01*
X4019499Y-1693418D01*
X4022851Y-1707286D01*
X4024629Y-1718564D01*
X4025595Y-1728927D01*
X4025849Y-1739747D01*
X4024629Y-1753616D01*
X4023664Y-1760880D01*
X4024325Y-1763217D01*
X4025493Y-1765147D01*
X4028084Y-1766468D01*
X4031386Y-1766519D01*
X4033774Y-1765249D01*
X4041495Y-1756816D01*
X4042714Y-1755241D01*
X4092143Y-1701546D01*
X4095546Y-1697329D01*
X4096461Y-1693722D01*
X4098340Y-1683207D01*
X4100118Y-1669694D01*
X4100829Y-1659737D01*
X4101084Y-1642008D01*
X4100068Y-1630426D01*
X4098645Y-1620164D01*
X4097731Y-1616506D01*
X4097731Y-1615186D01*
X4095546Y-1607718D01*
X4093260Y-1601368D01*
X4090060Y-1594459D01*
X4090263Y-1593596D01*
X4102506Y-1578508D01*
X4110990Y-1567484D01*
X4117289Y-1558645D01*
X4119067Y-1556562D01*
X4119067Y-1556207D01*
X4122572Y-1551432D01*
X4132834Y-1536090D01*
X4138777Y-1526692D01*
X4149090Y-1509623D01*
X4149445Y-1508709D01*
X4155135Y-1498803D01*
X4161586Y-1486458D01*
X4169562Y-1470050D01*
X4179519Y-1447088D01*
X4179519Y-1446225D01*
X4183075Y-1437132D01*
X4186732Y-1426210D01*
X4187139Y-1423873D01*
X4187596Y-1423263D01*
X4189679Y-1415389D01*
X4190847Y-1410055D01*
X4191254Y-1409141D01*
X4193692Y-1395882D01*
X4194403Y-1389126D01*
X4194911Y-1389126D01*
X4194911Y-1365656D01*
X4194403Y-1365656D01*
X4193743Y-1360424D01*
X4192066Y-1353769D01*
X4191660Y-1353210D01*
X4191203Y-1351178D01*
X4190390Y-1349552D01*
X4190390Y-1348943D01*
X4186631Y-1341932D01*
X4186174Y-1341882D01*
X4186174Y-1341272D01*
X4182618Y-1336649D01*
X4179011Y-1332890D01*
X4172864Y-1328369D01*
X4165600Y-1324762D01*
X4164634Y-1324762D01*
X4164076Y-1324254D01*
X4154119Y-1321511D01*
X4149750Y-1321054D01*
X4149750Y-1320546D01*
G37*
G36*
X4025646Y-1433677D02*
G01*
X4020261Y-1433728D01*
X4015638Y-1434185D01*
X4011523Y-1434947D01*
X4008221Y-1435811D01*
X4002786Y-1437640D01*
X3996486Y-1440688D01*
X3991965Y-1443380D01*
X3987139Y-1447038D01*
X3980179Y-1453946D01*
X3977182Y-1457858D01*
X3975252Y-1460754D01*
X3975252Y-1461262D01*
X3974795Y-1461465D01*
X3972153Y-1466596D01*
X3970070Y-1471422D01*
X3968800Y-1475181D01*
X3967175Y-1483156D01*
X3966565Y-1487474D01*
X3966565Y-1492148D01*
X3978605Y-1492148D01*
X3979468Y-1483461D01*
X3980383Y-1479092D01*
X3981958Y-1474419D01*
X3985006Y-1468120D01*
X3988968Y-1462430D01*
X3994099Y-1457299D01*
X3998468Y-1453489D01*
X3999128Y-1453489D01*
X4003090Y-1450898D01*
X4008526Y-1448612D01*
X4014978Y-1446784D01*
X4018127Y-1446174D01*
X4031386Y-1446225D01*
X4038904Y-1448206D01*
X4042511Y-1449679D01*
X4046728Y-1451762D01*
X4049776Y-1453642D01*
X4053941Y-1456740D01*
X4058869Y-1461668D01*
X4061460Y-1465224D01*
X4061917Y-1465224D01*
X4061917Y-1465884D01*
X4064508Y-1470202D01*
X4067251Y-1476552D01*
X4069130Y-1483156D01*
X4069740Y-1491284D01*
X4069181Y-1498244D01*
X4068165Y-1503629D01*
X4067708Y-1504188D01*
X4067251Y-1506474D01*
X4066743Y-1506778D01*
X4066743Y-1507693D01*
X4063949Y-1513535D01*
X4063136Y-1514500D01*
X4063136Y-1515059D01*
X4057853Y-1521917D01*
X4054398Y-1525270D01*
X4050487Y-1528419D01*
X4046728Y-1530807D01*
X4042156Y-1533144D01*
X4037380Y-1534871D01*
X4034078Y-1535684D01*
X4025950Y-1536852D01*
X4017975Y-1536293D01*
X4013758Y-1535531D01*
X4006392Y-1533144D01*
X4001008Y-1530400D01*
X4000195Y-1529638D01*
X3999382Y-1529638D01*
X3999179Y-1529181D01*
X3997248Y-1527810D01*
X3996994Y-1527810D01*
X3994962Y-1526184D01*
X3988866Y-1519936D01*
X3985056Y-1514449D01*
X3982313Y-1509014D01*
X3980434Y-1503883D01*
X3980027Y-1501241D01*
X3979519Y-1500276D01*
X3978605Y-1492148D01*
X3966565Y-1492148D01*
X3966565Y-1494586D01*
X3967734Y-1502714D01*
X3968343Y-1505712D01*
X3969308Y-1509014D01*
X3969765Y-1509928D01*
X3970223Y-1511858D01*
X3970782Y-1512214D01*
X3970782Y-1513179D01*
X3974744Y-1521206D01*
X3975252Y-1521206D01*
X3975252Y-1521764D01*
X3979113Y-1527149D01*
X3982923Y-1531569D01*
X3986987Y-1535379D01*
X3992118Y-1539240D01*
X3998468Y-1542897D01*
X4003090Y-1544980D01*
X4006392Y-1546148D01*
X4010761Y-1547368D01*
X4019397Y-1548892D01*
X4028490Y-1548892D01*
X4038904Y-1547114D01*
X4044899Y-1545132D01*
X4049115Y-1543405D01*
X4055719Y-1539697D01*
X4062069Y-1534922D01*
X4067200Y-1529791D01*
X4070096Y-1526489D01*
X4074058Y-1520494D01*
X4077563Y-1513636D01*
X4077563Y-1513027D01*
X4079595Y-1507540D01*
X4081221Y-1500784D01*
X4082034Y-1490370D01*
X4080916Y-1480464D01*
X4079290Y-1473809D01*
X4078782Y-1473250D01*
X4078782Y-1472031D01*
X4077868Y-1470304D01*
X4077868Y-1469694D01*
X4074261Y-1462379D01*
X4070096Y-1456232D01*
X4067505Y-1453083D01*
X4062018Y-1447647D01*
X4056481Y-1443380D01*
X4047947Y-1438554D01*
X4043121Y-1436725D01*
X4033774Y-1434287D01*
G37*
G36*
X4090365Y-2348738D02*
G01*
X4088434Y-2350262D01*
X4086351Y-2363876D01*
X4084929Y-2368346D01*
X4082643Y-2372817D01*
X4079341Y-2380284D01*
X4078427Y-2382977D01*
X4074769Y-2385974D01*
X4073753Y-2385974D01*
X4071772Y-2388362D01*
X4063085Y-2392934D01*
X4061815Y-2396439D01*
X4062468Y-2398674D01*
X4070959Y-2398674D01*
X4070959Y-2397455D01*
X4072940Y-2396286D01*
X4075125Y-2394051D01*
X4078427Y-2392832D01*
X4083659Y-2387346D01*
X4086656Y-2379776D01*
X4090111Y-2372969D01*
X4091127Y-2369362D01*
X4091990Y-2368092D01*
X4092752Y-2368092D01*
X4092752Y-2369210D01*
X4095953Y-2378303D01*
X4099306Y-2386380D01*
X4103522Y-2391308D01*
X4111244Y-2397048D01*
X4107383Y-2399334D01*
X4105605Y-2399385D01*
X4099204Y-2405583D01*
X4095953Y-2410561D01*
X4093667Y-2415133D01*
X4091990Y-2420975D01*
X4091432Y-2424734D01*
X4089755Y-2424734D01*
X4089146Y-2422144D01*
X4086148Y-2415641D01*
X4083253Y-2410561D01*
X4076344Y-2402992D01*
X4070959Y-2398674D01*
X4062468Y-2398674D01*
X4062984Y-2400350D01*
X4066895Y-2405075D01*
X4071467Y-2408580D01*
X4078833Y-2416759D01*
X4078833Y-2417419D01*
X4080865Y-2420467D01*
X4085285Y-2431389D01*
X4088841Y-2444445D01*
X4090162Y-2445715D01*
X4093718Y-2445156D01*
X4094835Y-2443378D01*
X4095902Y-2438146D01*
X4096258Y-2433116D01*
X4097020Y-2431389D01*
X4097629Y-2426208D01*
X4098442Y-2425649D01*
X4098442Y-2422398D01*
X4101592Y-2415133D01*
X4106062Y-2408834D01*
X4112158Y-2405430D01*
X4117797Y-2403348D01*
X4119778Y-2401214D01*
X4120692Y-2397353D01*
X4118813Y-2392883D01*
X4116070Y-2390546D01*
X4109669Y-2386736D01*
X4105198Y-2382367D01*
X4103268Y-2378100D01*
X4102354Y-2377490D01*
X4102354Y-2375306D01*
X4098544Y-2366365D01*
X4094022Y-2350262D01*
X4092143Y-2348738D01*
G37*
G36*
X4367377Y-2433624D02*
G01*
X4364075Y-2433675D01*
X4363110Y-2434386D01*
X4362094Y-2437790D01*
X4362043Y-2442362D01*
X4360976Y-2447798D01*
X4358640Y-2453640D01*
X4358640Y-2454503D01*
X4351426Y-2462936D01*
X4348378Y-2465781D01*
X4345127Y-2467000D01*
X4343806Y-2469134D01*
X4343806Y-2471623D01*
X4355134Y-2471623D01*
X4355134Y-2470048D01*
X4359046Y-2465324D01*
X4359046Y-2464409D01*
X4361027Y-2463393D01*
X4363770Y-2459228D01*
X4364431Y-2456738D01*
X4365802Y-2455570D01*
X4367276Y-2456484D01*
X4367885Y-2458720D01*
X4371797Y-2465425D01*
X4374997Y-2468727D01*
X4374692Y-2469743D01*
X4370781Y-2474620D01*
X4367479Y-2481580D01*
X4365904Y-2486304D01*
X4364685Y-2485136D01*
X4362551Y-2480056D01*
X4358182Y-2474112D01*
X4355134Y-2471623D01*
X4343806Y-2471724D01*
X4345635Y-2474417D01*
X4350156Y-2476855D01*
X4354728Y-2481427D01*
X4357878Y-2487015D01*
X4359910Y-2493365D01*
X4359910Y-2495092D01*
X4361230Y-2498090D01*
X4362704Y-2504744D01*
X4364532Y-2506116D01*
X4367174Y-2506726D01*
X4369562Y-2504389D01*
X4370832Y-2495448D01*
X4372254Y-2490012D01*
X4375962Y-2481783D01*
X4380636Y-2475788D01*
X4384090Y-2473604D01*
X4386072Y-2470251D01*
X4386072Y-2467102D01*
X4383227Y-2464054D01*
X4378909Y-2461564D01*
X4374946Y-2456738D01*
X4372102Y-2449779D01*
X4370374Y-2446121D01*
X4370374Y-2444038D01*
X4369206Y-2441854D01*
X4368647Y-2437130D01*
G37*
G36*
X4217212Y-2534107D02*
G01*
X4201160Y-2536952D01*
X4199483Y-2537968D01*
X4194149Y-2538984D01*
X4191508Y-2540304D01*
X4182770Y-2542794D01*
X4178858Y-2544470D01*
X4161840Y-2554935D01*
X4160113Y-2557322D01*
X4156608Y-2557932D01*
X4154017Y-2559405D01*
X4141368Y-2572918D01*
X4138726Y-2576372D01*
X4134205Y-2581351D01*
X4130903Y-2586939D01*
X4126077Y-2593797D01*
X4123893Y-2597759D01*
X4118051Y-2610408D01*
X4118051Y-2611475D01*
X4112818Y-2625648D01*
X4112818Y-2627071D01*
X4111447Y-2630017D01*
X4110126Y-2637485D01*
X4108754Y-2639212D01*
X4106875Y-2639212D01*
X4106062Y-2640126D01*
X4079697Y-2647645D01*
X4078427Y-2647645D01*
X4075531Y-2649067D01*
X4053382Y-2654655D01*
X4048048Y-2657094D01*
X4046728Y-2657094D01*
X4046169Y-2657754D01*
X4041343Y-2659938D01*
X4028948Y-2664206D01*
X4027170Y-2665374D01*
X4023258Y-2666441D01*
X4015892Y-2669540D01*
X4014063Y-2671470D01*
X4012336Y-2671470D01*
X4009288Y-2673350D01*
X4005834Y-2674620D01*
X4000398Y-2677922D01*
X3999484Y-2677922D01*
X3997553Y-2680055D01*
X3994759Y-2681427D01*
X3994200Y-2682494D01*
X3989984Y-2684627D01*
X3983634Y-2691079D01*
X3976979Y-2698546D01*
X3974236Y-2705354D01*
X3974236Y-2708605D01*
X3980434Y-2708605D01*
X3982313Y-2703576D01*
X3989425Y-2695549D01*
X3994048Y-2690825D01*
X4000144Y-2687320D01*
X4001465Y-2685999D01*
X4009288Y-2681782D01*
X4010406Y-2680004D01*
X4014114Y-2679293D01*
X4015841Y-2677922D01*
X4016959Y-2677922D01*
X4020362Y-2675483D01*
X4022750Y-2674823D01*
X4024985Y-2673502D01*
X4026865Y-2673502D01*
X4031538Y-2671165D01*
X4036771Y-2669438D01*
X4046778Y-2665628D01*
X4051604Y-2663444D01*
X4053789Y-2662885D01*
X4055465Y-2661564D01*
X4057904Y-2661564D01*
X4064406Y-2659126D01*
X4070350Y-2658110D01*
X4075125Y-2657043D01*
X4077868Y-2655620D01*
X4079290Y-2655620D01*
X4084726Y-2654046D01*
X4090619Y-2651963D01*
X4091127Y-2652572D01*
X4094276Y-2651252D01*
X4098645Y-2650032D01*
X4102150Y-2648661D01*
X4108196Y-2647696D01*
X4108907Y-2648915D01*
X4108348Y-2653842D01*
X4107230Y-2656992D01*
X4104335Y-2657449D01*
X4090822Y-2661818D01*
X4089552Y-2662732D01*
X4086453Y-2663393D01*
X4079494Y-2665628D01*
X4075531Y-2666441D01*
X4064000Y-2669946D01*
X4059428Y-2672130D01*
X4058107Y-2673350D01*
X4053789Y-2675178D01*
X4047642Y-2679192D01*
X4043629Y-2683814D01*
X4043269Y-2686354D01*
X4052265Y-2686354D01*
X4053230Y-2683916D01*
X4053992Y-2683916D01*
X4063796Y-2678531D01*
X4068064Y-2676448D01*
X4069791Y-2676448D01*
X4073804Y-2675026D01*
X4080764Y-2673400D01*
X4085132Y-2671826D01*
X4085996Y-2671013D01*
X4087520Y-2671013D01*
X4101287Y-2666034D01*
X4103878Y-2665933D01*
X4105605Y-2665120D01*
X4107078Y-2665018D01*
X4107535Y-2666390D01*
X4107668Y-2679192D01*
X4113225Y-2679192D01*
X4113631Y-2660294D01*
X4114495Y-2649118D01*
X4115409Y-2645918D01*
X4115917Y-2637993D01*
X4118914Y-2627071D01*
X4121099Y-2621381D01*
X4121099Y-2620162D01*
X4126788Y-2606548D01*
X4128058Y-2605328D01*
X4129125Y-2601214D01*
X4131360Y-2598267D01*
X4136339Y-2590292D01*
X4136339Y-2589530D01*
X4140504Y-2584500D01*
X4154424Y-2568549D01*
X4157929Y-2566009D01*
X4158792Y-2564892D01*
X4166920Y-2559304D01*
X4168800Y-2558643D01*
X4172305Y-2556052D01*
X4176522Y-2553817D01*
X4178909Y-2551887D01*
X4181449Y-2551176D01*
X4183634Y-2549448D01*
X4188866Y-2548229D01*
X4193641Y-2546299D01*
X4216704Y-2541117D01*
X4235043Y-2541371D01*
X4255566Y-2546248D01*
X4260799Y-2548382D01*
X4262526Y-2549296D01*
X4264710Y-2549956D01*
X4274718Y-2555697D01*
X4277918Y-2556357D01*
X4279900Y-2558796D01*
X4281068Y-2558796D01*
X4285183Y-2563215D01*
X4286250Y-2563266D01*
X4289247Y-2566212D01*
X4289907Y-2566212D01*
X4293006Y-2568956D01*
X4295648Y-2570530D01*
X4300016Y-2577287D01*
X4304842Y-2582875D01*
X4307433Y-2585567D01*
X4311345Y-2591663D01*
X4313986Y-2595270D01*
X4318101Y-2601468D01*
X4318101Y-2602484D01*
X4322876Y-2610256D01*
X4326659Y-2621584D01*
X4344466Y-2621381D01*
X4349699Y-2620365D01*
X4371492Y-2619248D01*
X4371898Y-2618790D01*
X4380636Y-2619248D01*
X4394758Y-2620467D01*
X4395724Y-2621788D01*
X4395165Y-2622804D01*
X4394352Y-2622804D01*
X4390898Y-2625293D01*
X4389526Y-2625293D01*
X4383024Y-2628798D01*
X4381347Y-2628798D01*
X4371492Y-2634132D01*
X4368444Y-2634792D01*
X4366666Y-2635656D01*
X4362145Y-2637231D01*
X4360316Y-2637231D01*
X4357776Y-2638755D01*
X4352290Y-2639364D01*
X4350562Y-2640380D01*
X4339691Y-2643174D01*
X4338167Y-2643174D01*
X4338269Y-2638450D01*
X4336389Y-2632557D01*
X4336389Y-2630728D01*
X4335119Y-2628544D01*
X4334154Y-2624074D01*
X4334002Y-2621584D01*
X4326659Y-2621584D01*
X4328363Y-2626817D01*
X4331919Y-2639466D01*
X4332732Y-2644648D01*
X4332020Y-2646070D01*
X4322927Y-2649169D01*
X4320946Y-2649169D01*
X4307840Y-2652369D01*
X4290415Y-2657195D01*
X4284319Y-2659176D01*
X4276039Y-2661005D01*
X4241190Y-2667508D01*
X4229862Y-2669438D01*
X4218482Y-2671978D01*
X4211523Y-2673096D01*
X4204106Y-2673858D01*
X4194708Y-2675483D01*
X4189729Y-2675839D01*
X4183024Y-2676906D01*
X4179722Y-2677922D01*
X4167936Y-2679395D01*
X4163161Y-2680462D01*
X4156608Y-2681376D01*
X4152239Y-2682443D01*
X4129176Y-2685796D01*
X4121759Y-2685338D01*
X4114546Y-2686202D01*
X4114088Y-2682646D01*
X4113225Y-2679192D01*
X4107668Y-2679192D01*
X4107738Y-2685948D01*
X4106519Y-2686913D01*
X4098239Y-2686761D01*
X4077309Y-2687828D01*
X4058869Y-2688031D01*
X4052874Y-2686761D01*
X4052265Y-2686354D01*
X4043269Y-2686354D01*
X4043121Y-2687421D01*
X4044035Y-2690317D01*
X4048201Y-2693314D01*
X4050029Y-2693314D01*
X4050487Y-2694178D01*
X4059885Y-2695498D01*
X4085590Y-2695194D01*
X4093870Y-2694330D01*
X4112920Y-2694330D01*
X4113784Y-2693720D01*
X4128719Y-2692857D01*
X4146600Y-2691028D01*
X4159656Y-2688844D01*
X4161129Y-2688336D01*
X4181601Y-2685491D01*
X4182770Y-2684678D01*
X4192778Y-2683357D01*
X4202379Y-2682494D01*
X4205020Y-2681528D01*
X4213707Y-2680868D01*
X4217619Y-2679903D01*
X4227271Y-2678430D01*
X4232452Y-2676804D01*
X4239006Y-2675991D01*
X4254652Y-2673400D01*
X4256430Y-2672588D01*
X4272127Y-2670098D01*
X4283456Y-2667558D01*
X4289958Y-2665425D01*
X4294835Y-2664663D01*
X4296664Y-2663545D01*
X4298391Y-2663545D01*
X4302607Y-2662072D01*
X4315409Y-2658567D01*
X4317136Y-2658567D01*
X4320235Y-2657094D01*
X4323384Y-2657094D01*
X4325162Y-2655976D01*
X4329633Y-2655163D01*
X4337913Y-2652572D01*
X4340555Y-2651201D01*
X4345330Y-2650083D01*
X4353610Y-2647238D01*
X4358386Y-2646578D01*
X4359300Y-2645714D01*
X4367987Y-2643276D01*
X4378198Y-2639314D01*
X4379315Y-2638501D01*
X4388307Y-2636215D01*
X4389780Y-2635300D01*
X4393692Y-2633675D01*
X4400143Y-2629052D01*
X4402988Y-2626258D01*
X4404512Y-2620822D01*
X4402937Y-2616606D01*
X4400600Y-2614015D01*
X4395876Y-2612440D01*
X4380433Y-2610764D01*
X4372356Y-2611475D01*
X4350562Y-2612339D01*
X4331817Y-2614218D01*
X4330700Y-2613761D01*
X4327652Y-2605786D01*
X4328769Y-2604973D01*
X4330496Y-2604922D01*
X4337050Y-2603957D01*
X4363212Y-2602077D01*
X4427270Y-2602382D01*
X4431182Y-2603398D01*
X4437735Y-2604566D01*
X4452518Y-2608275D01*
X4457750Y-2610358D01*
X4462119Y-2612440D01*
X4465015Y-2614066D01*
X4466691Y-2618028D01*
X4465269Y-2620568D01*
X4462221Y-2624937D01*
X4455617Y-2629611D01*
X4448505Y-2634183D01*
X4446320Y-2634843D01*
X4436872Y-2640279D01*
X4427423Y-2644648D01*
X4425188Y-2646680D01*
X4423613Y-2646680D01*
X4423156Y-2647492D01*
X4417466Y-2649728D01*
X4415078Y-2651099D01*
X4413605Y-2651150D01*
X4413046Y-2652115D01*
X4411726Y-2652115D01*
X4399940Y-2658059D01*
X4399534Y-2658059D01*
X4395876Y-2659938D01*
X4388053Y-2663037D01*
X4376267Y-2666441D01*
X4372356Y-2668371D01*
X4369308Y-2669133D01*
X4367987Y-2669946D01*
X4364482Y-2670911D01*
X4355795Y-2674467D01*
X4353560Y-2674467D01*
X4344009Y-2677312D01*
X4341317Y-2678887D01*
X4334408Y-2679852D01*
X4329226Y-2681528D01*
X4323740Y-2682392D01*
X4322216Y-2683306D01*
X4318304Y-2684018D01*
X4317390Y-2684830D01*
X4300423Y-2688336D01*
X4297324Y-2688386D01*
X4296664Y-2689098D01*
X4285640Y-2691587D01*
X4284726Y-2692196D01*
X4281271Y-2692908D01*
X4273854Y-2695346D01*
X4265777Y-2697327D01*
X4263136Y-2697327D01*
X4261561Y-2698242D01*
X4250334Y-2700782D01*
X4242917Y-2701798D01*
X4235043Y-2703372D01*
X4233316Y-2704185D01*
X4227220Y-2704795D01*
X4215892Y-2706674D01*
X4208932Y-2708148D01*
X4184497Y-2712212D01*
X4177080Y-2713228D01*
X4164888Y-2714142D01*
X4154881Y-2715717D01*
X4118711Y-2718663D01*
X4106468Y-2720594D01*
X4081221Y-2721254D01*
X4048556Y-2722626D01*
X4035450Y-2721610D01*
X4007154Y-2720746D01*
X3997960Y-2719527D01*
X3995623Y-2718155D01*
X3994099Y-2718155D01*
X3982821Y-2712974D01*
X3980434Y-2708605D01*
X3974236Y-2708605D01*
X3974236Y-2709722D01*
X3975912Y-2714752D01*
X3978148Y-2718054D01*
X3982059Y-2720238D01*
X3982567Y-2721152D01*
X3983888Y-2721152D01*
X3987546Y-2722981D01*
X3995186Y-2725978D01*
X4125671Y-2725978D01*
X4131360Y-2724556D01*
X4143552Y-2724505D01*
X4158386Y-2723083D01*
X4174032Y-2722168D01*
X4187545Y-2720187D01*
X4219397Y-2714752D01*
X4223308Y-2713736D01*
X4227068Y-2713685D01*
X4254652Y-2708097D01*
X4276902Y-2702814D01*
X4286046Y-2700121D01*
X4287774Y-2699359D01*
X4299153Y-2696972D01*
X4301083Y-2696260D01*
X4306976Y-2695397D01*
X4314393Y-2693873D01*
X4322673Y-2691333D01*
X4329633Y-2689453D01*
X4331208Y-2689352D01*
X4331614Y-2690622D01*
X4330242Y-2696057D01*
X4328972Y-2702255D01*
X4326432Y-2708605D01*
X4325467Y-2712974D01*
X4323435Y-2719425D01*
X4320590Y-2726334D01*
X4318101Y-2730500D01*
X4318101Y-2732532D01*
X4316831Y-2733294D01*
X4314190Y-2739440D01*
X4314190Y-2740406D01*
X4307840Y-2747924D01*
X4303928Y-2753055D01*
X4299153Y-2758135D01*
X4292549Y-2765856D01*
X4291838Y-2765856D01*
X4284370Y-2772460D01*
X4278630Y-2775813D01*
X4274312Y-2779268D01*
X4269079Y-2782265D01*
X4268165Y-2783128D01*
X4260342Y-2786075D01*
X4256633Y-2786583D01*
X4252722Y-2788767D01*
X4245965Y-2790698D01*
X4235500Y-2792577D01*
X4226712Y-2793796D01*
X4212844Y-2793136D01*
X4205427Y-2792323D01*
X4203547Y-2791155D01*
X4197146Y-2790494D01*
X4195419Y-2789174D01*
X4193794Y-2789174D01*
X4184497Y-2785618D01*
X4169511Y-2776524D01*
X4160723Y-2770276D01*
X4160012Y-2770276D01*
X4156405Y-2767330D01*
X4155643Y-2767330D01*
X4145279Y-2755798D01*
X4143095Y-2754426D01*
X4135678Y-2744317D01*
X4127855Y-2731414D01*
X4125976Y-2727807D01*
X4125671Y-2725978D01*
X3995186Y-2725978D01*
X3997096Y-2726588D01*
X4016705Y-2728569D01*
X4039819Y-2729230D01*
X4056837Y-2729331D01*
X4101490Y-2728163D01*
X4103014Y-2727655D01*
X4112869Y-2727096D01*
X4116781Y-2726080D01*
X4118762Y-2726690D01*
X4121861Y-2733852D01*
X4127550Y-2743606D01*
X4128312Y-2744216D01*
X4132630Y-2751582D01*
X4140504Y-2761030D01*
X4142689Y-2763113D01*
X4149851Y-2771444D01*
X4154373Y-2775254D01*
X4155236Y-2775254D01*
X4158081Y-2777744D01*
X4158742Y-2777744D01*
X4160113Y-2779166D01*
X4166514Y-2782773D01*
X4169867Y-2785567D01*
X4172762Y-2786837D01*
X4174032Y-2788107D01*
X4185005Y-2794457D01*
X4196740Y-2798521D01*
X4201058Y-2799181D01*
X4205935Y-2800553D01*
X4212386Y-2801061D01*
X4229404Y-2801670D01*
X4242460Y-2799588D01*
X4249013Y-2798216D01*
X4253433Y-2796286D01*
X4257141Y-2795574D01*
X4262526Y-2792780D01*
X4265828Y-2792222D01*
X4269486Y-2790240D01*
X4274007Y-2788158D01*
X4275277Y-2788158D01*
X4278934Y-2784703D01*
X4280509Y-2784703D01*
X4282592Y-2782874D01*
X4284624Y-2782112D01*
X4289552Y-2778810D01*
X4294682Y-2773527D01*
X4296308Y-2772460D01*
X4308652Y-2759608D01*
X4319422Y-2745892D01*
X4319422Y-2744114D01*
X4320590Y-2742946D01*
X4321149Y-2739898D01*
X4324197Y-2735173D01*
X4324197Y-2734157D01*
X4327245Y-2728976D01*
X4330547Y-2720136D01*
X4331919Y-2714447D01*
X4334154Y-2706979D01*
X4335170Y-2702509D01*
X4336288Y-2699054D01*
X4338218Y-2689606D01*
X4339132Y-2687421D01*
X4343146Y-2686812D01*
X4346448Y-2685389D01*
X4348886Y-2685389D01*
X4349445Y-2684729D01*
X4354068Y-2682951D01*
X4357776Y-2682290D01*
X4358233Y-2681427D01*
X4359554Y-2681427D01*
X4363212Y-2679547D01*
X4369308Y-2677820D01*
X4371035Y-2677007D01*
X4374286Y-2676398D01*
X4379112Y-2673959D01*
X4380890Y-2673959D01*
X4385005Y-2672080D01*
X4392218Y-2669489D01*
X4393793Y-2669489D01*
X4399381Y-2667508D01*
X4402124Y-2666034D01*
X4402988Y-2666034D01*
X4416348Y-2659176D01*
X4418533Y-2658465D01*
X4420260Y-2657094D01*
X4421530Y-2657094D01*
X4434840Y-2650134D01*
X4436008Y-2650134D01*
X4437735Y-2648762D01*
X4439920Y-2648051D01*
X4448200Y-2643581D01*
X4459274Y-2636824D01*
X4461611Y-2634742D01*
X4462424Y-2634742D01*
X4468012Y-2630170D01*
X4469028Y-2628087D01*
X4470857Y-2625801D01*
X4473752Y-2619298D01*
X4474210Y-2614472D01*
X4472228Y-2610662D01*
X4469993Y-2607868D01*
X4464913Y-2604465D01*
X4463745Y-2604465D01*
X4458157Y-2601620D01*
X4450384Y-2599385D01*
X4438142Y-2596438D01*
X4431639Y-2595118D01*
X4419396Y-2594051D01*
X4379772Y-2593187D01*
X4373219Y-2594051D01*
X4360570Y-2594559D01*
X4354474Y-2595473D01*
X4338370Y-2596032D01*
X4330954Y-2596946D01*
X4322927Y-2597556D01*
X4314240Y-2583840D01*
X4310888Y-2579522D01*
X4303928Y-2571750D01*
X4299712Y-2564993D01*
X4288688Y-2557119D01*
X4283862Y-2551785D01*
X4281678Y-2551176D01*
X4274718Y-2547823D01*
X4272127Y-2545892D01*
X4269079Y-2544267D01*
X4262069Y-2541320D01*
X4259021Y-2540304D01*
X4258056Y-2539390D01*
X4253788Y-2538374D01*
X4248556Y-2537510D01*
X4246372Y-2536494D01*
X4238548Y-2534869D01*
G37*
G36*
X4426407Y-2767838D02*
G01*
X4424324Y-2769260D01*
X4423206Y-2776016D01*
X4421886Y-2782468D01*
X4420920Y-2784957D01*
X4418736Y-2789377D01*
X4417263Y-2791256D01*
X4412335Y-2795524D01*
X4407204Y-2798724D01*
X4405274Y-2800756D01*
X4405296Y-2803652D01*
X4415586Y-2803652D01*
X4419803Y-2799080D01*
X4420463Y-2799080D01*
X4425594Y-2793695D01*
X4427220Y-2790190D01*
X4428490Y-2791409D01*
X4429963Y-2795371D01*
X4431385Y-2796743D01*
X4431385Y-2797911D01*
X4436668Y-2803753D01*
X4433824Y-2806293D01*
X4430064Y-2810154D01*
X4427118Y-2817266D01*
X4425746Y-2818587D01*
X4425746Y-2817520D01*
X4421733Y-2810764D01*
X4415586Y-2803652D01*
X4405296Y-2803652D01*
X4406900Y-2807309D01*
X4410252Y-2809036D01*
X4416044Y-2815742D01*
X4420057Y-2822600D01*
X4420057Y-2823921D01*
X4420920Y-2825648D01*
X4423105Y-2835605D01*
X4425746Y-2838297D01*
X4426966Y-2838297D01*
X4429201Y-2837383D01*
X4429810Y-2833624D01*
X4431893Y-2829153D01*
X4433062Y-2824175D01*
X4433671Y-2820263D01*
X4437684Y-2813761D01*
X4446676Y-2805074D01*
X4446676Y-2801670D01*
X4446117Y-2800045D01*
X4440783Y-2797048D01*
X4435754Y-2790240D01*
X4435754Y-2789631D01*
X4433722Y-2785922D01*
X4432655Y-2782468D01*
X4431487Y-2777490D01*
X4430318Y-2770174D01*
X4428388Y-2767838D01*
G37*
G36*
X4045051Y-2831388D02*
G01*
X4042765Y-2833014D01*
X4041038Y-2838094D01*
X4039666Y-2843530D01*
X4039209Y-2849981D01*
X4037787Y-2853944D01*
X4035755Y-2857042D01*
X4029354Y-2861411D01*
X4021531Y-2865983D01*
X4021328Y-2869438D01*
X4032199Y-2869438D01*
X4036771Y-2866186D01*
X4041901Y-2861919D01*
X4044696Y-2856941D01*
X4045305Y-2852521D01*
X4046270Y-2851251D01*
X4046778Y-2851251D01*
X4047947Y-2854960D01*
X4048709Y-2858516D01*
X4052620Y-2865882D01*
X4055821Y-2869285D01*
X4050233Y-2875330D01*
X4047998Y-2879293D01*
X4045712Y-2888030D01*
X4043984Y-2886964D01*
X4043984Y-2885948D01*
X4040479Y-2877820D01*
X4036771Y-2873248D01*
X4034180Y-2871470D01*
X4032199Y-2869438D01*
X4021328Y-2869438D01*
X4021226Y-2871165D01*
X4022242Y-2872486D01*
X4033469Y-2881122D01*
X4036060Y-2885592D01*
X4038854Y-2893212D01*
X4041190Y-2903118D01*
X4042562Y-2906776D01*
X4044848Y-2908452D01*
X4048099Y-2907893D01*
X4049928Y-2905302D01*
X4051401Y-2897174D01*
X4053840Y-2888234D01*
X4056379Y-2882290D01*
X4061460Y-2876550D01*
X4068826Y-2872536D01*
X4068826Y-2868371D01*
X4065270Y-2864713D01*
X4060596Y-2861157D01*
X4055668Y-2854960D01*
X4052011Y-2844546D01*
X4049928Y-2835097D01*
X4048607Y-2832811D01*
X4045610Y-2831388D01*
G37*
G36*
X4330293Y-2908350D02*
G01*
X4328312Y-2909214D01*
X4327245Y-2910636D01*
X4324451Y-2926943D01*
X4319930Y-2936189D01*
X4315917Y-2941066D01*
X4312056Y-2944063D01*
X4310837Y-2945485D01*
X4300474Y-2952292D01*
X4298391Y-2956915D01*
X4298483Y-2957220D01*
X4308957Y-2957220D01*
X4309618Y-2956052D01*
X4312920Y-2953512D01*
X4313377Y-2953512D01*
X4316577Y-2950819D01*
X4321759Y-2945841D01*
X4324197Y-2942844D01*
X4328261Y-2935884D01*
X4330293Y-2931617D01*
X4330293Y-2930245D01*
X4331817Y-2929280D01*
X4333290Y-2933395D01*
X4336440Y-2940253D01*
X4338675Y-2943352D01*
X4344873Y-2951124D01*
X4350766Y-2955645D01*
X4349953Y-2957271D01*
X4346041Y-2959506D01*
X4338370Y-2968193D01*
X4334002Y-2975610D01*
X4332478Y-2979470D01*
X4332478Y-2980842D01*
X4330750Y-2984550D01*
X4330750Y-2986278D01*
X4328922Y-2985516D01*
X4326991Y-2980029D01*
X4323181Y-2972155D01*
X4319981Y-2967177D01*
X4310989Y-2958236D01*
X4308957Y-2957220D01*
X4298483Y-2957220D01*
X4299356Y-2960268D01*
X4303014Y-2963468D01*
X4304233Y-2963468D01*
X4306976Y-2965653D01*
X4314901Y-2973120D01*
X4318254Y-2979572D01*
X4320184Y-2982569D01*
X4320794Y-2985058D01*
X4323334Y-2990494D01*
X4323334Y-2991662D01*
X4324604Y-2994507D01*
X4324604Y-2996742D01*
X4326432Y-3001162D01*
X4328312Y-3001822D01*
X4331157Y-3001721D01*
X4332732Y-3000756D01*
X4335018Y-2994964D01*
X4335576Y-2992475D01*
X4338116Y-2986024D01*
X4339285Y-2981553D01*
X4344568Y-2972612D01*
X4350715Y-2965958D01*
X4358436Y-2960979D01*
X4359910Y-2957474D01*
X4359910Y-2954020D01*
X4358284Y-2950972D01*
X4350105Y-2944825D01*
X4340758Y-2933598D01*
X4340707Y-2931922D01*
X4338574Y-2927959D01*
X4335119Y-2918510D01*
X4333798Y-2910840D01*
X4330547Y-2908350D01*
G37*
G36*
X4146143Y-3128060D02*
G01*
X4145178Y-3130042D01*
X4145076Y-3147263D01*
X4144568Y-3148177D01*
X4146397Y-3148177D01*
X4146397Y-3139236D01*
X4147972Y-3137408D01*
X4146397Y-3136239D01*
G37*
G36*
X4222648Y-3128213D02*
G01*
X4222800Y-3147110D01*
X4223308Y-3148076D01*
X4225340Y-3146196D01*
X4224477Y-3146196D01*
X4223461Y-3142691D01*
X4224426Y-3138170D01*
X4226356Y-3137306D01*
X4224375Y-3137255D01*
X4223867Y-3135782D01*
X4223715Y-3128619D01*
G37*
G36*
X4117238Y-3128772D02*
G01*
X4116984Y-3133039D01*
X4117238Y-3148177D01*
X4118051Y-3148177D01*
X4118051Y-3143046D01*
X4119067Y-3138982D01*
X4120337Y-3137255D01*
X4118051Y-3136087D01*
X4118051Y-3129330D01*
G37*
G36*
X4135577Y-3130245D02*
G01*
X4135069Y-3131769D01*
X4135729Y-3132226D01*
X4136847Y-3131464D01*
G37*
G36*
X4194301Y-3130804D02*
G01*
X4194301Y-3132175D01*
X4196130Y-3131616D01*
X4194962Y-3130804D01*
G37*
G36*
X4258614Y-3132429D02*
G01*
X4257497Y-3132836D01*
X4257497Y-3135172D01*
X4255109Y-3136138D01*
X4257395Y-3137154D01*
X4257954Y-3138830D01*
X4257954Y-3145078D01*
X4258462Y-3148076D01*
X4260138Y-3148584D01*
X4262526Y-3147771D01*
X4259884Y-3147009D01*
X4258818Y-3146044D01*
X4258919Y-3139948D01*
X4259478Y-3137103D01*
X4262526Y-3135884D01*
X4259529Y-3135477D01*
G37*
G36*
X4208475Y-3135325D02*
G01*
X4206951Y-3135833D01*
X4207459Y-3136747D01*
X4210812Y-3136747D01*
X4213504Y-3139795D01*
X4213504Y-3145180D01*
X4214266Y-3145180D01*
X4214672Y-3140456D01*
X4213352Y-3137154D01*
X4211980Y-3136544D01*
X4211472Y-3135731D01*
G37*
G36*
X4228084Y-3135325D02*
G01*
X4226560Y-3135833D01*
X4227068Y-3136747D01*
X4229557Y-3136747D01*
X4230928Y-3138932D01*
X4230928Y-3145434D01*
X4229252Y-3147110D01*
X4225493Y-3148076D01*
X4230065Y-3148177D01*
X4230065Y-3147161D01*
X4231386Y-3147161D01*
X4231386Y-3145129D01*
X4232656Y-3144570D01*
X4232656Y-3138932D01*
X4230268Y-3135833D01*
G37*
G36*
X4272534Y-3135325D02*
G01*
X4271010Y-3135833D01*
X4271010Y-3136747D01*
X4274870Y-3136747D01*
X4275429Y-3135731D01*
G37*
G36*
X4301286Y-3135325D02*
G01*
X4299153Y-3136036D01*
X4300423Y-3136950D01*
X4302607Y-3136646D01*
X4303420Y-3135731D01*
X4302455Y-3135731D01*
G37*
G36*
X4167530Y-3135376D02*
G01*
X4166006Y-3135833D01*
X4166006Y-3136747D01*
X4169511Y-3136747D01*
X4171848Y-3139186D01*
X4171899Y-3145129D01*
X4170222Y-3146501D01*
X4171086Y-3147110D01*
X4172965Y-3145129D01*
X4172965Y-3139795D01*
X4172153Y-3137306D01*
X4170121Y-3135833D01*
G37*
G36*
X4316984Y-3135376D02*
G01*
X4315002Y-3135833D01*
X4315510Y-3136747D01*
X4318457Y-3136747D01*
X4319016Y-3135731D01*
G37*
G36*
X4335729Y-3135376D02*
G01*
X4334662Y-3135833D01*
X4335119Y-3136747D01*
X4336948Y-3136747D01*
X4338116Y-3138474D01*
X4338116Y-3143300D01*
X4339894Y-3142691D01*
X4339894Y-3138220D01*
X4341164Y-3138220D01*
X4341164Y-3137001D01*
X4337659Y-3136950D01*
X4337050Y-3135934D01*
G37*
G36*
X4122623Y-3135426D02*
G01*
X4121556Y-3135833D01*
X4122013Y-3136747D01*
X4123994Y-3136747D01*
X4125010Y-3139287D01*
X4125010Y-3148177D01*
X4126585Y-3148177D01*
X4126280Y-3141472D01*
X4125772Y-3137509D01*
X4124350Y-3135934D01*
G37*
G36*
X4105605Y-3135477D02*
G01*
X4104030Y-3135833D01*
X4102455Y-3137408D01*
X4102912Y-3140964D01*
X4103166Y-3141319D01*
X4104132Y-3140608D01*
X4103217Y-3139338D01*
X4104233Y-3136747D01*
X4106519Y-3136747D01*
X4107687Y-3135884D01*
G37*
G36*
X4244238Y-3135477D02*
G01*
X4242257Y-3135833D01*
X4242765Y-3136747D01*
X4246118Y-3136747D01*
X4246626Y-3135833D01*
G37*
G36*
X4194301Y-3135680D02*
G01*
X4194301Y-3148177D01*
X4195165Y-3148177D01*
X4195165Y-3136290D01*
G37*
G36*
X4135475Y-3135731D02*
G01*
X4135475Y-3148177D01*
X4136339Y-3148177D01*
X4136339Y-3135731D01*
G37*
G36*
X4152290Y-3135731D02*
G01*
X4149191Y-3135833D01*
X4151884Y-3137154D01*
X4152900Y-3139694D01*
X4153865Y-3139694D01*
X4153255Y-3147568D01*
X4154322Y-3148279D01*
X4153966Y-3137966D01*
G37*
G36*
X4184700Y-3135731D02*
G01*
X4185208Y-3136747D01*
X4186885Y-3136747D01*
X4186885Y-3135731D01*
G37*
G36*
X4330293Y-3135731D02*
G01*
X4330293Y-3148177D01*
X4331970Y-3148177D01*
X4331817Y-3139338D01*
X4333341Y-3137408D01*
X4331766Y-3135731D01*
G37*
G36*
X4341571Y-3135731D02*
G01*
X4342130Y-3136747D01*
X4344314Y-3136747D01*
X4345940Y-3138982D01*
X4345990Y-3148177D01*
X4346803Y-3148177D01*
X4347057Y-3141980D01*
X4346295Y-3136950D01*
X4344060Y-3135731D01*
G37*
G36*
X4181246Y-3136290D02*
G01*
X4181246Y-3148177D01*
X4182516Y-3148177D01*
X4182008Y-3140303D01*
X4183837Y-3137357D01*
G37*
G36*
X4247032Y-3136747D02*
G01*
X4247540Y-3139135D01*
X4246981Y-3141218D01*
X4243832Y-3141218D01*
X4240072Y-3143300D01*
X4240072Y-3146196D01*
X4241800Y-3148177D01*
X4245305Y-3148177D01*
X4245305Y-3147161D01*
X4241952Y-3147161D01*
X4241038Y-3144926D01*
X4242968Y-3142132D01*
X4247286Y-3142437D01*
X4247286Y-3147872D01*
X4248810Y-3148228D01*
X4248810Y-3141980D01*
X4248251Y-3136747D01*
G37*
G36*
X4275378Y-3136747D02*
G01*
X4275378Y-3137712D01*
X4276293Y-3137712D01*
X4276039Y-3140964D01*
X4270756Y-3141522D01*
X4268825Y-3143707D01*
X4268825Y-3146196D01*
X4270146Y-3146755D01*
X4270146Y-3148177D01*
X4274667Y-3148177D01*
X4274058Y-3147517D01*
X4270806Y-3146907D01*
X4270502Y-3143504D01*
X4272076Y-3142183D01*
X4275023Y-3142183D01*
X4276598Y-3143199D01*
X4275785Y-3147212D01*
X4276293Y-3148177D01*
X4277461Y-3148177D01*
X4277563Y-3138474D01*
X4276902Y-3137408D01*
G37*
G36*
X4313428Y-3136747D02*
G01*
X4312869Y-3137408D01*
X4312869Y-3139236D01*
X4313275Y-3139236D01*
X4314952Y-3137306D01*
X4314444Y-3136747D01*
G37*
G36*
X4319422Y-3136747D02*
G01*
X4319422Y-3137662D01*
X4320844Y-3138576D01*
X4320895Y-3145739D01*
X4319625Y-3146653D01*
X4321048Y-3146653D01*
X4322013Y-3145332D01*
X4322216Y-3139440D01*
X4320692Y-3136747D01*
G37*
G36*
X4164025Y-3137255D02*
G01*
X4162806Y-3138830D01*
X4162399Y-3143148D01*
X4162958Y-3146653D01*
X4164177Y-3146653D01*
X4165396Y-3148076D01*
X4168394Y-3148330D01*
X4170578Y-3148126D01*
X4169257Y-3147161D01*
X4165346Y-3147110D01*
X4163822Y-3144723D01*
X4163669Y-3142945D01*
X4163822Y-3139389D01*
X4165600Y-3137255D01*
G37*
G36*
X4204868Y-3137255D02*
G01*
X4204258Y-3139948D01*
X4203954Y-3143707D01*
X4204766Y-3146298D01*
X4206748Y-3148126D01*
X4209135Y-3148736D01*
X4211777Y-3148076D01*
X4211777Y-3147161D01*
X4206900Y-3147161D01*
X4205478Y-3145586D01*
X4205122Y-3140151D01*
X4207002Y-3137255D01*
G37*
G36*
X4241393Y-3137255D02*
G01*
X4241393Y-3137712D01*
X4241800Y-3137712D01*
X4241800Y-3137255D01*
G37*
G36*
X4269587Y-3137255D02*
G01*
X4270146Y-3137916D01*
X4270756Y-3137255D01*
G37*
G36*
X4297730Y-3137255D02*
G01*
X4297172Y-3137916D01*
X4297172Y-3139694D01*
X4298035Y-3139694D01*
X4298035Y-3138779D01*
X4299407Y-3137255D01*
G37*
G36*
X4303674Y-3137255D02*
G01*
X4304182Y-3138220D01*
X4304588Y-3138220D01*
X4304588Y-3137255D01*
G37*
G36*
X4312107Y-3139592D02*
G01*
X4311497Y-3143504D01*
X4312310Y-3145942D01*
X4313732Y-3147314D01*
X4314190Y-3146806D01*
X4312869Y-3143250D01*
X4312869Y-3140964D01*
G37*
G36*
X4296308Y-3140151D02*
G01*
X4296308Y-3143554D01*
X4297629Y-3147263D01*
X4298543Y-3146907D01*
X4297121Y-3140710D01*
G37*
G36*
X4104589Y-3141218D02*
G01*
X4104030Y-3142183D01*
X4106926Y-3142183D01*
X4105605Y-3141218D01*
G37*
G36*
X4107687Y-3142640D02*
G01*
X4107129Y-3143605D01*
X4108094Y-3144266D01*
X4107484Y-3147263D01*
X4108704Y-3146856D01*
X4108704Y-3143046D01*
G37*
G36*
X4338218Y-3144926D02*
G01*
X4338218Y-3147415D01*
X4338624Y-3146196D01*
G37*
G36*
X4212742Y-3145129D02*
G01*
X4212183Y-3146806D01*
X4212640Y-3147364D01*
X4213656Y-3146196D01*
G37*
G36*
X4287316Y-3146196D02*
G01*
X4286300Y-3148076D01*
X4287570Y-3148634D01*
X4288078Y-3147669D01*
G37*
G36*
X4303572Y-3146196D02*
G01*
X4304131Y-3146856D01*
X4304741Y-3146196D01*
G37*
G36*
X4314596Y-3147110D02*
G01*
X4314596Y-3148177D01*
X4319524Y-3148177D01*
X4318965Y-3147517D01*
G37*
G36*
X4103268Y-3147161D02*
G01*
X4102811Y-3148025D01*
X4105300Y-3148584D01*
X4107230Y-3148025D01*
X4106062Y-3147161D01*
G37*
G36*
X4298899Y-3147161D02*
G01*
X4298899Y-3148076D01*
X4301185Y-3148685D01*
X4302861Y-3148076D01*
X4302353Y-3147161D01*
G37*
G36*
X4339437Y-3147669D02*
G01*
X4339437Y-3148177D01*
X4339894Y-3148177D01*
X4339894Y-3147669D01*
G37*
G36*
X7332370Y-2077720D02*
G01*
X7322464Y-2077821D01*
X7314133Y-2080564D01*
X7308037Y-2084070D01*
X7301331Y-2090928D01*
X7297978Y-2097379D01*
X7295896Y-2105710D01*
X7295896Y-2109622D01*
X7298334Y-2119731D01*
X7300010Y-2123033D01*
X7300010Y-2124303D01*
X7323124Y-2173884D01*
X7323886Y-2176475D01*
X7325156Y-2177999D01*
X7326426Y-2182114D01*
X7327696Y-2184196D01*
X7329017Y-2188311D01*
X7330440Y-2190902D01*
X7334046Y-2200656D01*
X7335570Y-2203754D01*
X7339736Y-2216150D01*
X7341158Y-2219248D01*
X7341920Y-2222855D01*
X7343190Y-2225395D01*
X7344968Y-2232101D01*
X7345781Y-2233168D01*
X7347051Y-2238806D01*
X7348372Y-2241905D01*
X7352639Y-2259330D01*
X7353553Y-2261057D01*
X7355128Y-2269947D01*
X7356094Y-2271826D01*
X7357313Y-2280056D01*
X7358786Y-2285288D01*
X7360310Y-2296058D01*
X7361326Y-2299106D01*
X7362494Y-2312517D01*
X7363866Y-2318207D01*
X7365034Y-2336749D01*
X7366152Y-2346553D01*
X7366965Y-2356358D01*
X7366965Y-2415133D01*
X7364984Y-2435199D01*
X7363815Y-2453792D01*
X7362952Y-2455468D01*
X7361377Y-2471826D01*
X7360259Y-2475788D01*
X7358329Y-2487777D01*
X7353300Y-2512060D01*
X7352588Y-2513228D01*
X7350963Y-2521305D01*
X7350150Y-2522321D01*
X7348372Y-2530449D01*
X7346950Y-2533142D01*
X7346950Y-2534920D01*
X7343190Y-2546553D01*
X7341870Y-2549652D01*
X7340701Y-2554274D01*
X7339279Y-2557373D01*
X7335570Y-2568194D01*
X7334199Y-2570784D01*
X7332878Y-2574899D01*
X7331608Y-2576982D01*
X7330287Y-2581097D01*
X7329424Y-2582214D01*
X7327849Y-2586736D01*
X7321042Y-2601214D01*
X7311847Y-2619756D01*
X7306970Y-2628747D01*
X7302449Y-2636266D01*
X7297978Y-2644851D01*
X7294981Y-2652725D01*
X7293356Y-2659938D01*
X7293356Y-2666339D01*
X7295388Y-2675178D01*
X7298131Y-2680563D01*
X7300823Y-2684170D01*
X7305395Y-2688844D01*
X7312152Y-2693416D01*
X7320381Y-2696311D01*
X7329830Y-2696362D01*
X7333284Y-2694889D01*
X7337399Y-2694127D01*
X7343597Y-2690672D01*
X7349286Y-2685846D01*
X7354722Y-2679039D01*
X7359294Y-2670759D01*
X7379055Y-2629306D01*
X7383525Y-2619552D01*
X7383525Y-2618841D01*
X7388606Y-2607868D01*
X7389368Y-2604820D01*
X7390638Y-2603246D01*
X7391857Y-2599131D01*
X7393736Y-2595524D01*
X7394498Y-2591917D01*
X7395819Y-2590393D01*
X7397038Y-2585720D01*
X7398410Y-2583586D01*
X7399578Y-2579014D01*
X7401458Y-2574899D01*
X7402220Y-2571292D01*
X7403592Y-2569210D01*
X7404811Y-2564079D01*
X7406690Y-2559964D01*
X7407402Y-2555849D01*
X7408773Y-2553766D01*
X7410246Y-2547569D01*
X7411770Y-2543454D01*
X7412532Y-2538831D01*
X7413853Y-2536190D01*
X7415377Y-2528976D01*
X7416444Y-2526944D01*
X7417663Y-2520238D01*
X7419492Y-2514600D01*
X7420254Y-2509012D01*
X7421575Y-2505811D01*
X7422845Y-2497582D01*
X7424318Y-2493010D01*
X7425385Y-2484678D01*
X7426756Y-2479903D01*
X7427925Y-2469743D01*
X7429347Y-2464054D01*
X7430566Y-2449118D01*
X7432040Y-2442667D01*
X7434478Y-2404262D01*
X7434427Y-2365095D01*
X7432040Y-2324404D01*
X7430516Y-2316632D01*
X7429347Y-2302205D01*
X7427975Y-2297074D01*
X7427264Y-2289352D01*
X7425740Y-2282139D01*
X7424267Y-2272334D01*
X7423150Y-2269236D01*
X7421219Y-2257552D01*
X7420254Y-2256332D01*
X7419492Y-2250694D01*
X7417663Y-2245004D01*
X7416444Y-2238349D01*
X7415123Y-2235708D01*
X7413853Y-2229053D01*
X7412481Y-2225954D01*
X7411364Y-2220366D01*
X7409942Y-2217166D01*
X7408672Y-2211476D01*
X7407351Y-2208936D01*
X7403541Y-2196541D01*
X7402169Y-2194001D01*
X7398461Y-2183180D01*
X7396429Y-2178964D01*
X7396429Y-2177491D01*
X7394549Y-2174392D01*
X7393178Y-2169464D01*
X7392365Y-2168956D01*
X7390638Y-2163572D01*
X7389317Y-2161997D01*
X7388606Y-2159457D01*
X7381240Y-2142998D01*
X7359853Y-2100326D01*
X7354062Y-2091588D01*
X7347203Y-2084273D01*
X7341565Y-2080666D01*
G37*
G36*
X7206488Y-2141778D02*
G01*
X7199274Y-2142540D01*
X7191552Y-2145131D01*
X7187387Y-2147519D01*
X7180021Y-2153615D01*
X7174280Y-2162200D01*
X7173264Y-2166670D01*
X7173214Y-2174544D01*
X7174738Y-2182114D01*
X7178548Y-2192477D01*
X7185914Y-2208428D01*
X7192822Y-2222347D01*
X7201560Y-2241905D01*
X7206284Y-2254300D01*
X7214920Y-2280056D01*
X7217511Y-2288844D01*
X7219746Y-2297582D01*
X7221169Y-2305659D01*
X7222185Y-2307590D01*
X7223302Y-2315616D01*
X7224674Y-2320798D01*
X7225893Y-2331110D01*
X7227366Y-2337511D01*
X7230414Y-2373376D01*
X7230414Y-2401722D01*
X7227366Y-2438349D01*
X7226350Y-2441803D01*
X7224725Y-2454808D01*
X7223302Y-2459431D01*
X7222642Y-2465120D01*
X7217511Y-2486761D01*
X7215886Y-2491892D01*
X7214057Y-2499156D01*
X7212888Y-2502204D01*
X7206742Y-2521305D01*
X7205624Y-2523236D01*
X7204049Y-2528417D01*
X7202119Y-2532126D01*
X7202119Y-2533294D01*
X7196328Y-2546553D01*
X7188962Y-2562555D01*
X7179614Y-2579522D01*
X7176465Y-2586228D01*
X7175703Y-2588818D01*
X7174738Y-2589987D01*
X7173264Y-2597048D01*
X7173264Y-2606852D01*
X7174280Y-2611526D01*
X7177481Y-2618130D01*
X7179919Y-2621686D01*
X7184948Y-2626715D01*
X7188453Y-2629204D01*
X7194143Y-2632252D01*
X7197699Y-2632964D01*
X7201306Y-2634691D01*
X7215276Y-2634691D01*
X7217816Y-2633065D01*
X7220661Y-2632354D01*
X7226604Y-2628595D01*
X7235545Y-2619502D01*
X7241031Y-2611526D01*
X7246061Y-2602738D01*
X7247534Y-2599639D01*
X7248499Y-2598115D01*
X7257745Y-2577998D01*
X7257745Y-2576322D01*
X7259218Y-2575102D01*
X7259929Y-2572308D01*
X7264908Y-2560980D01*
X7265670Y-2557932D01*
X7267498Y-2554782D01*
X7268209Y-2550922D01*
X7269022Y-2550414D01*
X7270750Y-2545029D01*
X7272629Y-2540863D01*
X7273340Y-2537307D01*
X7274712Y-2535224D01*
X7276287Y-2529535D01*
X7278471Y-2522829D01*
X7280402Y-2517698D01*
X7281113Y-2513584D01*
X7282434Y-2511501D01*
X7284008Y-2504287D01*
X7285481Y-2500172D01*
X7286244Y-2494991D01*
X7287615Y-2492298D01*
X7288834Y-2484678D01*
X7290155Y-2482088D01*
X7291374Y-2473350D01*
X7292797Y-2469032D01*
X7293914Y-2459431D01*
X7295489Y-2454097D01*
X7298436Y-2430576D01*
X7299553Y-2413050D01*
X7300468Y-2404821D01*
X7300468Y-2371801D01*
X7299553Y-2363063D01*
X7298436Y-2345537D01*
X7296912Y-2334717D01*
X7295438Y-2322068D01*
X7293914Y-2316124D01*
X7292695Y-2306370D01*
X7291374Y-2302205D01*
X7290104Y-2293467D01*
X7288784Y-2290368D01*
X7287615Y-2283307D01*
X7286193Y-2279548D01*
X7284974Y-2273350D01*
X7283703Y-2270760D01*
X7282383Y-2264105D01*
X7281113Y-2261514D01*
X7279894Y-2255824D01*
X7278522Y-2253792D01*
X7277811Y-2249627D01*
X7275880Y-2245512D01*
X7275220Y-2241905D01*
X7273340Y-2237790D01*
X7269530Y-2226970D01*
X7267549Y-2222754D01*
X7267549Y-2221280D01*
X7265670Y-2218182D01*
X7264349Y-2213305D01*
X7262926Y-2212136D01*
X7262926Y-2210409D01*
X7253681Y-2190394D01*
X7252614Y-2188819D01*
X7251090Y-2185212D01*
X7250074Y-2183688D01*
X7248499Y-2180082D01*
X7246315Y-2176475D01*
X7244384Y-2173986D01*
X7244384Y-2173071D01*
X7233869Y-2156866D01*
X7229398Y-2151532D01*
X7225385Y-2147722D01*
X7220407Y-2144826D01*
X7213701Y-2142236D01*
G37*
G36*
X7075525Y-2203450D02*
G01*
X7066889Y-2206599D01*
X7065264Y-2208022D01*
X7062165Y-2209596D01*
X7057390Y-2214168D01*
X7053275Y-2219756D01*
X7050278Y-2226462D01*
X7050328Y-2238298D01*
X7053580Y-2247595D01*
X7059117Y-2258415D01*
X7064451Y-2267712D01*
X7071156Y-2281174D01*
X7071156Y-2282240D01*
X7072528Y-2283409D01*
X7073849Y-2287778D01*
X7075119Y-2289860D01*
X7076440Y-2293975D01*
X7077709Y-2296058D01*
X7079030Y-2301189D01*
X7080300Y-2303272D01*
X7081469Y-2308047D01*
X7082688Y-2310993D01*
X7085126Y-2319731D01*
X7087717Y-2330551D01*
X7091172Y-2349652D01*
X7091883Y-2358390D01*
X7093356Y-2368092D01*
X7093356Y-2405481D01*
X7092289Y-2409952D01*
X7090714Y-2427986D01*
X7089292Y-2433675D01*
X7088124Y-2442870D01*
X7087108Y-2444699D01*
X7085533Y-2453233D01*
X7080351Y-2470251D01*
X7079335Y-2472232D01*
X7077760Y-2477465D01*
X7076948Y-2478532D01*
X7075271Y-2484120D01*
X7073900Y-2486253D01*
X7072680Y-2489962D01*
X7062520Y-2510180D01*
X7060336Y-2512923D01*
X7060336Y-2514193D01*
X7058406Y-2516682D01*
X7053173Y-2526639D01*
X7050278Y-2533650D01*
X7050278Y-2547569D01*
X7053376Y-2554782D01*
X7056374Y-2559304D01*
X7061098Y-2564130D01*
X7071410Y-2570429D01*
X7075017Y-2571140D01*
X7077760Y-2572562D01*
X7084314Y-2573578D01*
X7091172Y-2572715D01*
X7097979Y-2569972D01*
X7101840Y-2567482D01*
X7104278Y-2565603D01*
X7109053Y-2560929D01*
X7114031Y-2554376D01*
X7118045Y-2547416D01*
X7119112Y-2545029D01*
X7120128Y-2543454D01*
X7124344Y-2534716D01*
X7125309Y-2533142D01*
X7126833Y-2529535D01*
X7127900Y-2528011D01*
X7129424Y-2524404D01*
X7130389Y-2522829D01*
X7133386Y-2516682D01*
X7134199Y-2514092D01*
X7136130Y-2511602D01*
X7136130Y-2509926D01*
X7138670Y-2505100D01*
X7138670Y-2503881D01*
X7140702Y-2499664D01*
X7143445Y-2492959D01*
X7144664Y-2488844D01*
X7145781Y-2486761D01*
X7147001Y-2482138D01*
X7148525Y-2478735D01*
X7149896Y-2472232D01*
X7150963Y-2470251D01*
X7152182Y-2463546D01*
X7153554Y-2460498D01*
X7154722Y-2452217D01*
X7156196Y-2447594D01*
X7159345Y-2424887D01*
X7160514Y-2402738D01*
X7160514Y-2371293D01*
X7159294Y-2351074D01*
X7156246Y-2329078D01*
X7154773Y-2324404D01*
X7153554Y-2316124D01*
X7152131Y-2312517D01*
X7151065Y-2306574D01*
X7149592Y-2303272D01*
X7148474Y-2297582D01*
X7147001Y-2294686D01*
X7146290Y-2290876D01*
X7144766Y-2287930D01*
X7143242Y-2282647D01*
X7141972Y-2280564D01*
X7140651Y-2275687D01*
X7139228Y-2274519D01*
X7139228Y-2272842D01*
X7136130Y-2266645D01*
X7136130Y-2264968D01*
X7134199Y-2262530D01*
X7133437Y-2260041D01*
X7121042Y-2235962D01*
X7114387Y-2224481D01*
X7108596Y-2216200D01*
X7101484Y-2209241D01*
X7097115Y-2206650D01*
X7090003Y-2203907D01*
G37*
G36*
X6970318Y-2262276D02*
G01*
X6961124Y-2262378D01*
X6957059Y-2263343D01*
X6951319Y-2266086D01*
X6947712Y-2268677D01*
X6943750Y-2272334D01*
X6939940Y-2277465D01*
X6937502Y-2281631D01*
X6935063Y-2289352D01*
X6934504Y-2297074D01*
X6937146Y-2304999D01*
X6942785Y-2316632D01*
X6948525Y-2326944D01*
X6954062Y-2338324D01*
X6956704Y-2345029D01*
X6959752Y-2355850D01*
X6960920Y-2366162D01*
X6962089Y-2372817D01*
X6962089Y-2403246D01*
X6960819Y-2411476D01*
X6959346Y-2423058D01*
X6957161Y-2430068D01*
X6954570Y-2437282D01*
X6952081Y-2442464D01*
X6952081Y-2443175D01*
X6943699Y-2458415D01*
X6942429Y-2459939D01*
X6937197Y-2469896D01*
X6934555Y-2478328D01*
X6934606Y-2485237D01*
X6937044Y-2493975D01*
X6940194Y-2500223D01*
X6941769Y-2501595D01*
X6941769Y-2502966D01*
X6951319Y-2512669D01*
X6957974Y-2516936D01*
X6958838Y-2516936D01*
X6961987Y-2519222D01*
X6974535Y-2519222D01*
X6980377Y-2516378D01*
X6981240Y-2516378D01*
X6985863Y-2513279D01*
X6990892Y-2508910D01*
X6994601Y-2505151D01*
X6998766Y-2500223D01*
X7002627Y-2494686D01*
X7002627Y-2493721D01*
X7003542Y-2493721D01*
X7012279Y-2477465D01*
X7013041Y-2474925D01*
X7014870Y-2472334D01*
X7015581Y-2469032D01*
X7016902Y-2467914D01*
X7018274Y-2463038D01*
X7019544Y-2461006D01*
X7020712Y-2456332D01*
X7022642Y-2452217D01*
X7023404Y-2448102D01*
X7024674Y-2446020D01*
X7025944Y-2439314D01*
X7027773Y-2433675D01*
X7028484Y-2426614D01*
X7029805Y-2423363D01*
X7032599Y-2390648D01*
X7029805Y-2359456D01*
X7028789Y-2356866D01*
X7027418Y-2348077D01*
X7025284Y-2341524D01*
X7025284Y-2339390D01*
X7023353Y-2335225D01*
X7022033Y-2329535D01*
X7020763Y-2327503D01*
X7019544Y-2322830D01*
X7018223Y-2320798D01*
X7016902Y-2316632D01*
X7015632Y-2315108D01*
X7014921Y-2311806D01*
X7013092Y-2309418D01*
X7011822Y-2305608D01*
X7010755Y-2304948D01*
X7008774Y-2300681D01*
X7004761Y-2293467D01*
X7002119Y-2289911D01*
X7002119Y-2289200D01*
X6997953Y-2282647D01*
X6996887Y-2280158D01*
X6994093Y-2276703D01*
X6986879Y-2269032D01*
X6983018Y-2266442D01*
X6977024Y-2263444D01*
G37*
G36*
X551129Y-2770987D02*
G01*
X437591Y-2771038D01*
X423875Y-2771851D01*
X421182Y-2772867D01*
X415137Y-2773730D01*
X411632Y-2775000D01*
X406552Y-2776372D01*
X404571Y-2777642D01*
X401675Y-2778353D01*
X400202Y-2779115D01*
X399694Y-2779725D01*
X396087Y-2780944D01*
X394817Y-2782112D01*
X391414Y-2783535D01*
X390804Y-2784398D01*
X388670Y-2785211D01*
X387045Y-2786329D01*
X387045Y-2786634D01*
X384556Y-2787954D01*
X383844Y-2789021D01*
X382066Y-2789783D01*
X378053Y-2793034D01*
X377850Y-2793542D01*
X376123Y-2794711D01*
X366369Y-2804769D01*
X364998Y-2807106D01*
X363829Y-2807970D01*
X362915Y-2809798D01*
X361899Y-2810510D01*
X360934Y-2812694D01*
X359613Y-2814218D01*
X358394Y-2816961D01*
X357378Y-2817622D01*
X356311Y-2820416D01*
X356311Y-2820822D01*
X354838Y-2822448D01*
X353771Y-2825851D01*
X353212Y-2826156D01*
X352399Y-2827731D01*
X351739Y-2830830D01*
X350520Y-2832760D01*
X349199Y-2837738D01*
X348183Y-2839923D01*
X347624Y-2842768D01*
X347116Y-2847136D01*
X346354Y-2849575D01*
X345744Y-2852978D01*
X345287Y-2862630D01*
X345287Y-2979369D01*
X345586Y-2985262D01*
X369468Y-2985262D01*
X369468Y-2856738D01*
X370636Y-2852928D01*
X371297Y-2848203D01*
X371906Y-2845663D01*
X372922Y-2843174D01*
X374091Y-2838805D01*
X375158Y-2837180D01*
X376275Y-2833776D01*
X377901Y-2831338D01*
X378307Y-2829814D01*
X379780Y-2828137D01*
X381101Y-2825445D01*
X382066Y-2824632D01*
X383082Y-2822600D01*
X383997Y-2822092D01*
X385470Y-2819704D01*
X391109Y-2813913D01*
X396494Y-2809189D01*
X398576Y-2808224D01*
X399491Y-2806954D01*
X400507Y-2806700D01*
X402742Y-2804871D01*
X403961Y-2804261D01*
X405282Y-2803956D01*
X406958Y-2802585D01*
X410819Y-2801061D01*
X412242Y-2800096D01*
X416356Y-2799130D01*
X419303Y-2797759D01*
X427024Y-2796336D01*
X428650Y-2795676D01*
X430936Y-2795270D01*
X559257Y-2795219D01*
X561949Y-2795676D01*
X563575Y-2796336D01*
X571296Y-2797759D01*
X574243Y-2799130D01*
X578358Y-2800096D01*
X579780Y-2801061D01*
X583641Y-2802585D01*
X585317Y-2803956D01*
X586638Y-2804261D01*
X587857Y-2804871D01*
X590092Y-2806700D01*
X591108Y-2806954D01*
X592023Y-2808224D01*
X594106Y-2809189D01*
X599490Y-2813913D01*
X605129Y-2819704D01*
X606602Y-2822092D01*
X607517Y-2822600D01*
X608533Y-2824632D01*
X609498Y-2825445D01*
X610819Y-2828137D01*
X612292Y-2829814D01*
X612698Y-2831338D01*
X614324Y-2833776D01*
X615442Y-2837180D01*
X616508Y-2838805D01*
X617677Y-2843174D01*
X618693Y-2845663D01*
X620115Y-2853486D01*
X621131Y-2856738D01*
X621131Y-2985262D01*
X619963Y-2989072D01*
X619302Y-2993796D01*
X618693Y-2996336D01*
X617677Y-2998825D01*
X616508Y-3003194D01*
X615442Y-3004820D01*
X614324Y-3008223D01*
X612698Y-3010662D01*
X612292Y-3012236D01*
X610819Y-3013862D01*
X609498Y-3016554D01*
X608533Y-3017367D01*
X607517Y-3019399D01*
X606501Y-3020060D01*
X604977Y-3022346D01*
X600557Y-3027019D01*
X594817Y-3031947D01*
X594614Y-3032556D01*
X591972Y-3033776D01*
X591108Y-3035046D01*
X590092Y-3035300D01*
X587857Y-3037128D01*
X586638Y-3037738D01*
X585317Y-3038043D01*
X583641Y-3039414D01*
X579780Y-3040938D01*
X578358Y-3041904D01*
X574243Y-3042869D01*
X571296Y-3044240D01*
X563575Y-3045663D01*
X561949Y-3046323D01*
X559257Y-3046780D01*
X431342Y-3046780D01*
X428650Y-3046323D01*
X427024Y-3045663D01*
X419303Y-3044240D01*
X416356Y-3042869D01*
X412242Y-3041904D01*
X410819Y-3040938D01*
X406958Y-3039414D01*
X405282Y-3038043D01*
X403961Y-3037738D01*
X402742Y-3037128D01*
X400507Y-3035300D01*
X399491Y-3035046D01*
X398627Y-3033776D01*
X395986Y-3032556D01*
X395782Y-3031947D01*
X394004Y-3030677D01*
X390042Y-3027019D01*
X385622Y-3022346D01*
X384098Y-3020060D01*
X383082Y-3019399D01*
X382066Y-3017367D01*
X381101Y-3016554D01*
X379780Y-3013862D01*
X378307Y-3012236D01*
X377901Y-3010662D01*
X376275Y-3008223D01*
X375158Y-3004820D01*
X374091Y-3003194D01*
X372922Y-2998825D01*
X371906Y-2996336D01*
X370484Y-2988513D01*
X369468Y-2985262D01*
X345586Y-2985262D01*
X345744Y-2989021D01*
X346354Y-2992424D01*
X347116Y-2994863D01*
X348183Y-3002076D01*
X349199Y-3004261D01*
X350520Y-3009290D01*
X351739Y-3011170D01*
X352399Y-3014268D01*
X353212Y-3015843D01*
X353771Y-3016148D01*
X354838Y-3019552D01*
X356311Y-3021177D01*
X357378Y-3024378D01*
X358394Y-3025038D01*
X359613Y-3027781D01*
X360934Y-3029305D01*
X361899Y-3031490D01*
X362915Y-3032201D01*
X363829Y-3034030D01*
X364998Y-3034893D01*
X366318Y-3037230D01*
X376885Y-3047746D01*
X377850Y-3048457D01*
X378053Y-3048965D01*
X382066Y-3052216D01*
X383844Y-3052978D01*
X384556Y-3054045D01*
X387045Y-3055416D01*
X387045Y-3055670D01*
X388670Y-3056788D01*
X390804Y-3057601D01*
X391414Y-3058464D01*
X394817Y-3059887D01*
X396087Y-3061055D01*
X399694Y-3062274D01*
X400202Y-3062884D01*
X401675Y-3063646D01*
X404571Y-3064357D01*
X406552Y-3065627D01*
X411632Y-3066999D01*
X415137Y-3068269D01*
X421792Y-3069285D01*
X423418Y-3069996D01*
X425551Y-3070352D01*
X439470Y-3071012D01*
X551129Y-3071012D01*
X565048Y-3070352D01*
X567182Y-3069996D01*
X568807Y-3069285D01*
X575462Y-3068269D01*
X578967Y-3066999D01*
X584047Y-3065627D01*
X586028Y-3064357D01*
X588924Y-3063646D01*
X590397Y-3062884D01*
X590905Y-3062274D01*
X594512Y-3061055D01*
X595782Y-3059887D01*
X599186Y-3058464D01*
X599795Y-3057601D01*
X601929Y-3056788D01*
X603554Y-3055670D01*
X603554Y-3055416D01*
X606044Y-3054045D01*
X606755Y-3052978D01*
X608533Y-3052216D01*
X612546Y-3048965D01*
X612749Y-3048457D01*
X614680Y-3046984D01*
X624230Y-3037230D01*
X625602Y-3034893D01*
X626770Y-3034030D01*
X627684Y-3032201D01*
X628700Y-3031490D01*
X629666Y-3029305D01*
X630986Y-3027781D01*
X632206Y-3025038D01*
X633222Y-3024378D01*
X634288Y-3021584D01*
X634288Y-3021177D01*
X635762Y-3019552D01*
X636828Y-3016148D01*
X637387Y-3015843D01*
X638200Y-3014268D01*
X638860Y-3011170D01*
X640080Y-3009290D01*
X641400Y-3004261D01*
X642366Y-3002076D01*
X642975Y-2999232D01*
X643483Y-2994863D01*
X644245Y-2992424D01*
X644855Y-2989021D01*
X645312Y-2979369D01*
X645312Y-2862630D01*
X644855Y-2852978D01*
X644245Y-2849575D01*
X643483Y-2847136D01*
X642975Y-2842768D01*
X642366Y-2839923D01*
X641400Y-2837738D01*
X640080Y-2832760D01*
X638860Y-2830830D01*
X638200Y-2827731D01*
X637387Y-2826156D01*
X636828Y-2825851D01*
X635762Y-2822448D01*
X634288Y-2820822D01*
X633222Y-2817622D01*
X632206Y-2816961D01*
X630986Y-2814218D01*
X629666Y-2812694D01*
X628700Y-2810510D01*
X627684Y-2809798D01*
X626770Y-2807970D01*
X625602Y-2807106D01*
X624230Y-2804769D01*
X614476Y-2794711D01*
X612749Y-2793542D01*
X612546Y-2793034D01*
X608533Y-2789783D01*
X606755Y-2789021D01*
X606044Y-2787954D01*
X603554Y-2786634D01*
X603554Y-2786329D01*
X601929Y-2785211D01*
X599795Y-2784398D01*
X599186Y-2783535D01*
X595782Y-2782112D01*
X594512Y-2780944D01*
X590905Y-2779725D01*
X590397Y-2779115D01*
X588924Y-2778353D01*
X586028Y-2777642D01*
X584047Y-2776372D01*
X578967Y-2775000D01*
X575462Y-2773730D01*
X568807Y-2772714D01*
X567182Y-2772003D01*
X565048Y-2771648D01*
G37*
G36*
X578154Y-2821381D02*
G01*
X574141Y-2821940D01*
X572516Y-2822803D01*
X571957Y-2823464D01*
X569976Y-2824480D01*
X568807Y-2825902D01*
X567283Y-2826816D01*
X566216Y-2829052D01*
X565302Y-2829966D01*
X564540Y-2831693D01*
X563626Y-2837129D01*
X564083Y-2841752D01*
X564591Y-2844038D01*
X565150Y-2845409D01*
X566420Y-2846679D01*
X566420Y-2847035D01*
X567639Y-2849067D01*
X571804Y-2852420D01*
X573786Y-2852978D01*
X576580Y-2854452D01*
X581304Y-2854604D01*
X584758Y-2854147D01*
X586384Y-2853080D01*
X589280Y-2852064D01*
X592378Y-2849219D01*
X594664Y-2846679D01*
X595731Y-2843377D01*
X596493Y-2842310D01*
X597154Y-2837535D01*
X596747Y-2834081D01*
X595274Y-2831084D01*
X594817Y-2829204D01*
X593191Y-2827528D01*
X593191Y-2827121D01*
X589991Y-2824022D01*
X588568Y-2823413D01*
X587502Y-2822448D01*
X585165Y-2821736D01*
X582066Y-2821381D01*
G37*
G36*
X495300Y-2837688D02*
G01*
X485749Y-2837992D01*
X482447Y-2838500D01*
X479704Y-2839516D01*
X472440Y-2840990D01*
X470814Y-2841802D01*
X465328Y-2843225D01*
X463753Y-2844292D01*
X461873Y-2844800D01*
X460197Y-2845663D01*
X459079Y-2846578D01*
X456184Y-2847492D01*
X454304Y-2849118D01*
X452272Y-2849778D01*
X450596Y-2851251D01*
X448309Y-2852216D01*
X447446Y-2853385D01*
X445770Y-2854198D01*
X444957Y-2855366D01*
X441858Y-2857144D01*
X441858Y-2857500D01*
X438810Y-2860598D01*
X437134Y-2861462D01*
X436626Y-2862681D01*
X434035Y-2865374D01*
X432714Y-2866288D01*
X432054Y-2867558D01*
X427735Y-2872486D01*
X426923Y-2874314D01*
X425805Y-2875076D01*
X424586Y-2877870D01*
X423367Y-2879140D01*
X422401Y-2881630D01*
X420878Y-2883814D01*
X419963Y-2886303D01*
X419709Y-2886303D01*
X418642Y-2888284D01*
X417779Y-2891688D01*
X416712Y-2893568D01*
X415442Y-2899156D01*
X414883Y-2899816D01*
X414274Y-2901289D01*
X413156Y-2908757D01*
X412343Y-2911297D01*
X411901Y-2922168D01*
X435864Y-2922168D01*
X438099Y-2905506D01*
X438962Y-2904286D01*
X440232Y-2899156D01*
X441147Y-2898140D01*
X442671Y-2894228D01*
X443484Y-2893517D01*
X445008Y-2890418D01*
X446379Y-2888945D01*
X447040Y-2887065D01*
X451967Y-2881172D01*
X453796Y-2879699D01*
X457301Y-2876042D01*
X459536Y-2874772D01*
X460349Y-2873603D01*
X462381Y-2872536D01*
X463143Y-2871520D01*
X466293Y-2870200D01*
X467258Y-2869234D01*
X470814Y-2867558D01*
X471881Y-2866644D01*
X475589Y-2865831D01*
X477621Y-2864561D01*
X490321Y-2861919D01*
X500481Y-2861868D01*
X505053Y-2862326D01*
X506577Y-2862884D01*
X514654Y-2864561D01*
X516686Y-2865831D01*
X520750Y-2866694D01*
X522071Y-2867863D01*
X523341Y-2868523D01*
X524967Y-2869031D01*
X526288Y-2870352D01*
X528929Y-2871368D01*
X530606Y-2872892D01*
X532282Y-2873756D01*
X532993Y-2874873D01*
X534111Y-2875330D01*
X538988Y-2879750D01*
X540461Y-2881884D01*
X541477Y-2882595D01*
X542493Y-2884220D01*
X543306Y-2884424D01*
X544474Y-2887014D01*
X545592Y-2887675D01*
X546506Y-2889605D01*
X548081Y-2891536D01*
X548944Y-2894076D01*
X550468Y-2896209D01*
X551180Y-2898394D01*
X552500Y-2900476D01*
X553567Y-2905658D01*
X554736Y-2908147D01*
X555853Y-2915666D01*
X555853Y-2928213D01*
X554736Y-2935935D01*
X554177Y-2936595D01*
X553567Y-2938018D01*
X552704Y-2942844D01*
X551637Y-2944418D01*
X550214Y-2948025D01*
X549452Y-2948889D01*
X547928Y-2952597D01*
X547166Y-2953156D01*
X545795Y-2955594D01*
X543966Y-2957728D01*
X543407Y-2959150D01*
X542086Y-2960116D01*
X541477Y-2961436D01*
X539851Y-2962554D01*
X539038Y-2964180D01*
X537870Y-2964942D01*
X536905Y-2966161D01*
X535228Y-2966974D01*
X534416Y-2968396D01*
X533095Y-2968955D01*
X531215Y-2970682D01*
X528726Y-2971952D01*
X527558Y-2973019D01*
X525729Y-2973832D01*
X523798Y-2975305D01*
X521462Y-2975965D01*
X518769Y-2977591D01*
X514045Y-2978912D01*
X512013Y-2979978D01*
X506933Y-2980537D01*
X502361Y-2981604D01*
X499668Y-2982010D01*
X491032Y-2982010D01*
X486409Y-2980740D01*
X480364Y-2979928D01*
X479298Y-2979623D01*
X478231Y-2978861D01*
X472897Y-2977337D01*
X471525Y-2976168D01*
X468680Y-2975305D01*
X466851Y-2973933D01*
X465328Y-2973425D01*
X463499Y-2971800D01*
X461518Y-2970733D01*
X461009Y-2970733D01*
X459892Y-2969260D01*
X458266Y-2968447D01*
X457504Y-2967482D01*
X456285Y-2966669D01*
X450850Y-2961132D01*
X446887Y-2956560D01*
X446582Y-2955340D01*
X444957Y-2953258D01*
X443484Y-2950260D01*
X442722Y-2949702D01*
X441553Y-2946196D01*
X440435Y-2945028D01*
X438861Y-2939491D01*
X437896Y-2937611D01*
X435864Y-2922168D01*
X411901Y-2922168D01*
X412343Y-2932582D01*
X413004Y-2934919D01*
X414223Y-2942386D01*
X415442Y-2944977D01*
X416763Y-2950159D01*
X417931Y-2952242D01*
X418592Y-2955493D01*
X419049Y-2956407D01*
X420268Y-2957931D01*
X421436Y-2960878D01*
X422503Y-2962148D01*
X423367Y-2964535D01*
X424637Y-2965856D01*
X425602Y-2967939D01*
X426872Y-2969412D01*
X427939Y-2971800D01*
X429361Y-2972612D01*
X429615Y-2973628D01*
X435508Y-2980334D01*
X443992Y-2988056D01*
X445262Y-2988513D01*
X446074Y-2989834D01*
X448411Y-2990951D01*
X449580Y-2992018D01*
X452170Y-2993339D01*
X452932Y-2994152D01*
X455930Y-2995574D01*
X457301Y-2996590D01*
X460654Y-2997911D01*
X461467Y-2998673D01*
X462432Y-2999181D01*
X465683Y-3000146D01*
X467461Y-3001162D01*
X472592Y-3002483D01*
X474319Y-3003499D01*
X483463Y-3004820D01*
X486156Y-3005582D01*
X490067Y-3006039D01*
X501802Y-3006039D01*
X505866Y-3005632D01*
X509625Y-3004820D01*
X517651Y-3003499D01*
X519785Y-3002483D01*
X524814Y-3001213D01*
X526338Y-3000197D01*
X530301Y-2999079D01*
X531723Y-2997809D01*
X535127Y-2996641D01*
X536397Y-2995422D01*
X538073Y-2994914D01*
X539292Y-2994304D01*
X540766Y-2992932D01*
X542340Y-2992424D01*
X544271Y-2990748D01*
X546404Y-2989529D01*
X547268Y-2988513D01*
X548995Y-2987649D01*
X549808Y-2986227D01*
X551434Y-2985516D01*
X558088Y-2979267D01*
X559206Y-2976981D01*
X559765Y-2976981D01*
X561238Y-2975508D01*
X561238Y-2975000D01*
X562457Y-2974035D01*
X563524Y-2971850D01*
X564692Y-2970936D01*
X566013Y-2968548D01*
X567385Y-2967075D01*
X568096Y-2964840D01*
X569264Y-2963519D01*
X570484Y-2960776D01*
X571754Y-2959455D01*
X572668Y-2956306D01*
X573633Y-2955137D01*
X574141Y-2954172D01*
X575106Y-2950667D01*
X576376Y-2948635D01*
X577443Y-2942844D01*
X578205Y-2941370D01*
X579069Y-2937205D01*
X580288Y-2926740D01*
X580542Y-2919831D01*
X578866Y-2905455D01*
X578053Y-2901594D01*
X577392Y-2900324D01*
X576427Y-2895346D01*
X574903Y-2892399D01*
X573836Y-2888792D01*
X572871Y-2887675D01*
X571703Y-2884322D01*
X570484Y-2883103D01*
X569163Y-2879750D01*
X568096Y-2878836D01*
X567791Y-2877667D01*
X566877Y-2875788D01*
X565912Y-2874924D01*
X564540Y-2872740D01*
X563676Y-2872282D01*
X562660Y-2869996D01*
X561441Y-2869285D01*
X560832Y-2867964D01*
X554837Y-2861360D01*
X549046Y-2856230D01*
X547624Y-2855569D01*
X546862Y-2854553D01*
X545185Y-2853690D01*
X543763Y-2852115D01*
X541172Y-2851150D01*
X539851Y-2849778D01*
X537514Y-2848711D01*
X535482Y-2847238D01*
X533196Y-2846476D01*
X531012Y-2844952D01*
X528116Y-2844088D01*
X526491Y-2843022D01*
X521512Y-2841802D01*
X519988Y-2841040D01*
X512521Y-2839466D01*
X510692Y-2838704D01*
X507339Y-2838094D01*
G37*
G36*
X5273497Y-774293D02*
G01*
X5229656Y-774395D01*
X5201158Y-775411D01*
X5176367Y-776935D01*
X5159502Y-778459D01*
X5138928Y-781050D01*
X5125008Y-783336D01*
X5110022Y-786333D01*
X5092750Y-790752D01*
X5080762Y-794512D01*
X5070398Y-798271D01*
X5060492Y-802487D01*
X5050028Y-807618D01*
X5041392Y-812596D01*
X5029758Y-820369D01*
X5022646Y-826109D01*
X5013807Y-834085D01*
X5005019Y-843737D01*
X4998770Y-851712D01*
X4991811Y-862228D01*
X4987290Y-870102D01*
X4982413Y-879856D01*
X4978603Y-888644D01*
X4973777Y-901598D01*
X4969865Y-914349D01*
X4966258Y-928624D01*
X4963261Y-943254D01*
X4960569Y-959358D01*
X4958740Y-973226D01*
X4956860Y-991616D01*
X4955336Y-1013002D01*
X4954574Y-1029106D01*
X4953812Y-1054608D01*
X4953812Y-1093978D01*
X4954574Y-1119124D01*
X4955336Y-1135227D01*
X4956454Y-1151737D01*
X4957978Y-1168603D01*
X4960569Y-1189228D01*
X4962855Y-1203096D01*
X4965903Y-1218133D01*
X4970272Y-1235354D01*
X4974031Y-1247343D01*
X4977790Y-1257706D01*
X4979553Y-1261821D01*
X5141315Y-1261821D01*
X5141315Y-898550D01*
X5223459Y-884529D01*
X5223459Y-1019911D01*
X5223865Y-1019911D01*
X5230672Y-1014425D01*
X5238038Y-1009802D01*
X5246878Y-1005382D01*
X5254091Y-1002690D01*
X5261965Y-1000404D01*
X5270906Y-998575D01*
X5280253Y-997407D01*
X5294884Y-996950D01*
X5305145Y-997813D01*
X5313629Y-999337D01*
X5320233Y-1001217D01*
X5325973Y-1003503D01*
X5332730Y-1006856D01*
X5339181Y-1011275D01*
X5345328Y-1017016D01*
X5349697Y-1022350D01*
X5353659Y-1028293D01*
X5358384Y-1038098D01*
X5361127Y-1045971D01*
X5363260Y-1054608D01*
X5364784Y-1063599D01*
X5366105Y-1074470D01*
X5366359Y-1262176D01*
X5283657Y-1261973D01*
X5283200Y-1085748D01*
X5281930Y-1078687D01*
X5280355Y-1072591D01*
X5277815Y-1067054D01*
X5274767Y-1063091D01*
X5270804Y-1060399D01*
X5266131Y-1058926D01*
X5259984Y-1058926D01*
X5254396Y-1060450D01*
X5248910Y-1063447D01*
X5244642Y-1066698D01*
X5238597Y-1072997D01*
X5233873Y-1080109D01*
X5229860Y-1088339D01*
X5226913Y-1096975D01*
X5224983Y-1105255D01*
X5223662Y-1113129D01*
X5223408Y-1261821D01*
X4979553Y-1261821D01*
X4982006Y-1267612D01*
X4987137Y-1278128D01*
X4992116Y-1286764D01*
X4999888Y-1298346D01*
X5005628Y-1305509D01*
X5013604Y-1314348D01*
X5023307Y-1323136D01*
X5031282Y-1329334D01*
X5041747Y-1336344D01*
X5049621Y-1340815D01*
X5059375Y-1345692D01*
X5068163Y-1349552D01*
X5081117Y-1354378D01*
X5093868Y-1358239D01*
X5108143Y-1361846D01*
X5122773Y-1364894D01*
X5138877Y-1367536D01*
X5152745Y-1369415D01*
X5171135Y-1371295D01*
X5192522Y-1372768D01*
X5208625Y-1373581D01*
X5234127Y-1374292D01*
X5273497Y-1374292D01*
X5298643Y-1373581D01*
X5314746Y-1372768D01*
X5331256Y-1371650D01*
X5348122Y-1370126D01*
X5368747Y-1367536D01*
X5382615Y-1365250D01*
X5397652Y-1362252D01*
X5414873Y-1357884D01*
X5426913Y-1354074D01*
X5437225Y-1350314D01*
X5447131Y-1346098D01*
X5457647Y-1340967D01*
X5466283Y-1336040D01*
X5477865Y-1328216D01*
X5485028Y-1322476D01*
X5493867Y-1314500D01*
X5502656Y-1304848D01*
X5508853Y-1296873D01*
X5515864Y-1286357D01*
X5520385Y-1278483D01*
X5525211Y-1268730D01*
X5529072Y-1259941D01*
X5533898Y-1246987D01*
X5537758Y-1234236D01*
X5541416Y-1219962D01*
X5544413Y-1205382D01*
X5548020Y-1182319D01*
X5550814Y-1156970D01*
X5552287Y-1135634D01*
X5553100Y-1119479D01*
X5553811Y-1093978D01*
X5553811Y-1054608D01*
X5553100Y-1029462D01*
X5552287Y-1013358D01*
X5551170Y-996848D01*
X5549646Y-979982D01*
X5547055Y-959408D01*
X5544769Y-945489D01*
X5541772Y-930503D01*
X5537403Y-913231D01*
X5533644Y-901242D01*
X5529834Y-890879D01*
X5525617Y-880973D01*
X5520486Y-870508D01*
X5515559Y-861872D01*
X5507736Y-850239D01*
X5502046Y-843127D01*
X5494020Y-834237D01*
X5484368Y-825500D01*
X5476392Y-819251D01*
X5465876Y-812292D01*
X5458002Y-807770D01*
X5448249Y-802894D01*
X5439460Y-799084D01*
X5426506Y-794258D01*
X5413756Y-790346D01*
X5399532Y-786739D01*
X5384901Y-783742D01*
X5368747Y-781050D01*
X5354878Y-779221D01*
X5336540Y-777341D01*
X5315153Y-775817D01*
X5298998Y-775055D01*
G37*
G36*
X2267204Y-1605534D02*
G01*
X2229358Y-1615948D01*
X2229358Y-1623568D01*
X2249678Y-1625600D01*
X2249396Y-1767332D01*
X2270252Y-1767332D01*
X2270252Y-1695704D01*
X2279802Y-1688084D01*
X2288032Y-1683715D01*
X2295093Y-1681683D01*
X2301240Y-1681225D01*
X2305964Y-1681581D01*
X2310384Y-1682648D01*
X2314549Y-1684426D01*
X2318359Y-1686864D01*
X2321864Y-1690065D01*
X2324963Y-1693976D01*
X2327706Y-1698548D01*
X2329992Y-1703832D01*
X2331821Y-1709826D01*
X2333142Y-1716532D01*
X2333955Y-1723948D01*
X2334260Y-1732025D01*
X2333955Y-1740306D01*
X2332990Y-1747723D01*
X2331466Y-1754378D01*
X2329434Y-1760220D01*
X2326944Y-1765249D01*
X2324049Y-1769567D01*
X2320747Y-1773174D01*
X2317140Y-1776069D01*
X2313279Y-1778304D01*
X2309164Y-1779828D01*
X2304897Y-1780743D01*
X2300478Y-1781048D01*
X2293162Y-1780286D01*
X2285644Y-1777898D01*
X2278024Y-1773631D01*
X2270252Y-1767332D01*
X2249396Y-1767332D01*
X2249170Y-1780286D01*
X2230374Y-1782825D01*
X2230374Y-1790700D01*
X2267712Y-1793239D01*
X2269744Y-1775968D01*
X2274011Y-1780743D01*
X2278380Y-1784654D01*
X2282799Y-1787804D01*
X2287320Y-1790242D01*
X2291791Y-1791970D01*
X2296261Y-1793138D01*
X2300732Y-1793798D01*
X2305050Y-1794002D01*
X2310587Y-1793697D01*
X2315921Y-1792782D01*
X2321001Y-1791360D01*
X2325827Y-1789328D01*
X2330348Y-1786788D01*
X2334564Y-1783740D01*
X2338476Y-1780184D01*
X2342032Y-1776171D01*
X2345232Y-1771751D01*
X2348077Y-1766874D01*
X2350566Y-1761591D01*
X2352598Y-1755952D01*
X2354224Y-1749958D01*
X2355392Y-1743608D01*
X2356104Y-1736953D01*
X2356358Y-1729993D01*
X2356104Y-1722932D01*
X2355392Y-1716278D01*
X2354275Y-1709978D01*
X2352700Y-1704086D01*
X2350719Y-1698650D01*
X2348331Y-1693570D01*
X2345588Y-1688947D01*
X2342540Y-1684782D01*
X2339187Y-1681073D01*
X2335479Y-1677771D01*
X2331516Y-1675028D01*
X2327300Y-1672691D01*
X2322880Y-1670913D01*
X2318207Y-1669592D01*
X2313381Y-1668780D01*
X2308352Y-1668525D01*
X2303373Y-1668780D01*
X2298446Y-1669643D01*
X2293467Y-1671066D01*
X2288590Y-1673047D01*
X2283714Y-1675688D01*
X2278938Y-1678939D01*
X2274265Y-1682800D01*
X2269744Y-1687322D01*
X2269744Y-1643125D01*
X2270506Y-1607312D01*
G37*
G36*
X2405888Y-1609090D02*
G01*
X2399487Y-1610207D01*
X2394356Y-1613408D01*
X2390902Y-1618284D01*
X2389632Y-1624584D01*
X2390902Y-1630730D01*
X2394305Y-1635658D01*
X2399487Y-1638909D01*
X2405888Y-1640078D01*
X2412034Y-1638909D01*
X2417114Y-1635658D01*
X2420620Y-1630730D01*
X2421890Y-1624584D01*
X2420620Y-1618284D01*
X2417114Y-1613408D01*
X2412034Y-1610207D01*
G37*
G36*
X2536952Y-1668525D02*
G01*
X2531008Y-1668932D01*
X2525064Y-1670151D01*
X2519121Y-1672132D01*
X2513279Y-1674825D01*
X2507589Y-1678178D01*
X2502052Y-1682140D01*
X2496769Y-1686610D01*
X2491740Y-1691639D01*
X2489708Y-1671066D01*
X2486406Y-1668780D01*
X2451100Y-1682496D01*
X2451100Y-1690116D01*
X2470912Y-1692148D01*
X2471470Y-1707134D01*
X2471674Y-1725168D01*
X2471521Y-1758746D01*
X2471166Y-1780286D01*
X2452624Y-1782825D01*
X2452624Y-1790700D01*
X2510282Y-1790700D01*
X2510282Y-1782825D01*
X2493010Y-1780286D01*
X2492654Y-1758746D01*
X2492502Y-1701038D01*
X2497277Y-1696923D01*
X2501849Y-1693418D01*
X2506319Y-1690573D01*
X2510688Y-1688287D01*
X2514955Y-1686610D01*
X2519172Y-1685442D01*
X2523388Y-1684731D01*
X2527554Y-1684528D01*
X2532583Y-1684883D01*
X2536901Y-1686052D01*
X2540508Y-1688134D01*
X2543403Y-1691182D01*
X2545588Y-1695246D01*
X2547162Y-1700479D01*
X2548077Y-1706981D01*
X2548382Y-1714754D01*
X2548229Y-1759000D01*
X2547874Y-1780286D01*
X2529332Y-1782825D01*
X2529332Y-1790700D01*
X2586990Y-1790700D01*
X2586990Y-1782825D01*
X2569210Y-1780286D01*
X2568956Y-1714246D01*
X2568752Y-1706575D01*
X2568041Y-1699666D01*
X2566924Y-1693468D01*
X2565349Y-1688033D01*
X2563317Y-1683308D01*
X2560878Y-1679295D01*
X2557932Y-1675942D01*
X2554630Y-1673199D01*
X2550871Y-1671116D01*
X2546654Y-1669694D01*
X2542032Y-1668830D01*
G37*
G36*
X2721610Y-1668525D02*
G01*
X2716123Y-1668780D01*
X2710688Y-1669542D01*
X2705354Y-1670812D01*
X2700223Y-1672589D01*
X2695244Y-1674875D01*
X2690520Y-1677619D01*
X2686050Y-1680870D01*
X2681884Y-1684629D01*
X2678023Y-1688846D01*
X2674620Y-1693570D01*
X2671572Y-1698752D01*
X2669032Y-1704441D01*
X2667000Y-1710537D01*
X2665476Y-1717192D01*
X2664510Y-1724253D01*
X2664206Y-1731772D01*
X2687066Y-1731772D01*
X2687320Y-1723389D01*
X2688082Y-1715719D01*
X2689352Y-1708708D01*
X2691130Y-1702409D01*
X2693365Y-1696821D01*
X2696057Y-1691944D01*
X2699207Y-1687779D01*
X2702814Y-1684324D01*
X2706878Y-1681683D01*
X2711399Y-1679752D01*
X2716276Y-1678584D01*
X2721610Y-1678178D01*
X2726842Y-1678584D01*
X2731668Y-1679752D01*
X2736138Y-1681683D01*
X2740152Y-1684324D01*
X2743809Y-1687779D01*
X2746959Y-1691944D01*
X2749702Y-1696821D01*
X2751988Y-1702409D01*
X2753817Y-1708708D01*
X2755087Y-1715719D01*
X2755900Y-1723389D01*
X2756154Y-1731772D01*
X2755900Y-1740052D01*
X2755087Y-1747672D01*
X2753817Y-1754581D01*
X2751988Y-1760778D01*
X2749702Y-1766265D01*
X2746959Y-1770989D01*
X2743809Y-1775053D01*
X2740152Y-1778406D01*
X2736138Y-1780997D01*
X2731668Y-1782876D01*
X2726842Y-1783994D01*
X2721610Y-1784350D01*
X2716276Y-1783994D01*
X2711399Y-1782876D01*
X2706878Y-1780997D01*
X2702814Y-1778406D01*
X2699207Y-1775053D01*
X2696057Y-1770989D01*
X2693365Y-1766265D01*
X2691130Y-1760778D01*
X2689352Y-1754581D01*
X2688082Y-1747672D01*
X2687320Y-1740052D01*
X2687066Y-1731772D01*
X2664206Y-1731772D01*
X2664510Y-1739239D01*
X2665476Y-1746250D01*
X2667000Y-1752803D01*
X2669032Y-1758848D01*
X2671572Y-1764436D01*
X2674620Y-1769567D01*
X2678023Y-1774189D01*
X2681884Y-1778304D01*
X2686050Y-1781962D01*
X2690520Y-1785162D01*
X2695244Y-1787855D01*
X2700223Y-1790090D01*
X2705354Y-1791766D01*
X2710688Y-1793036D01*
X2716123Y-1793748D01*
X2721610Y-1794002D01*
X2727045Y-1793748D01*
X2732481Y-1793036D01*
X2737764Y-1791817D01*
X2742895Y-1790090D01*
X2747873Y-1787906D01*
X2752598Y-1785213D01*
X2757068Y-1782064D01*
X2761284Y-1778406D01*
X2765094Y-1774291D01*
X2768549Y-1769668D01*
X2771597Y-1764538D01*
X2774137Y-1758950D01*
X2776220Y-1752904D01*
X2777744Y-1746351D01*
X2778709Y-1739290D01*
X2779014Y-1731772D01*
X2778709Y-1724202D01*
X2777744Y-1717090D01*
X2776220Y-1710486D01*
X2774137Y-1704339D01*
X2771546Y-1698650D01*
X2768498Y-1693468D01*
X2764993Y-1688744D01*
X2761183Y-1684528D01*
X2756966Y-1680819D01*
X2752496Y-1677568D01*
X2747772Y-1674825D01*
X2742793Y-1672539D01*
X2737662Y-1670812D01*
X2732379Y-1669542D01*
X2727045Y-1668780D01*
G37*
G36*
X2847594Y-1668525D02*
G01*
X2840786Y-1668881D01*
X2834589Y-1669846D01*
X2828848Y-1671370D01*
X2823718Y-1673504D01*
X2819146Y-1676095D01*
X2815183Y-1679092D01*
X2811780Y-1682496D01*
X2808986Y-1686255D01*
X2806750Y-1690268D01*
X2805176Y-1694535D01*
X2804210Y-1699006D01*
X2803906Y-1703578D01*
X2804464Y-1709724D01*
X2806039Y-1715160D01*
X2808681Y-1720037D01*
X2812186Y-1724355D01*
X2816606Y-1728216D01*
X2821787Y-1731619D01*
X2827731Y-1734667D01*
X2834386Y-1737360D01*
X2846070Y-1741424D01*
X2856687Y-1745996D01*
X2863951Y-1750923D01*
X2868117Y-1756867D01*
X2869438Y-1764284D01*
X2869031Y-1768500D01*
X2867710Y-1772361D01*
X2865526Y-1775764D01*
X2862427Y-1778711D01*
X2858414Y-1781098D01*
X2853486Y-1782876D01*
X2847594Y-1783943D01*
X2840736Y-1784350D01*
X2834894Y-1784096D01*
X2829610Y-1783283D01*
X2824683Y-1782013D01*
X2820162Y-1780286D01*
X2814574Y-1757172D01*
X2802636Y-1757172D01*
X2803144Y-1784604D01*
X2812288Y-1788668D01*
X2821279Y-1791614D01*
X2825851Y-1792630D01*
X2830626Y-1793392D01*
X2835554Y-1793849D01*
X2840736Y-1794002D01*
X2848406Y-1793646D01*
X2855417Y-1792681D01*
X2861818Y-1791106D01*
X2867558Y-1789023D01*
X2872587Y-1786382D01*
X2877007Y-1783334D01*
X2880715Y-1779879D01*
X2883763Y-1776069D01*
X2886151Y-1771904D01*
X2887878Y-1767535D01*
X2888894Y-1762963D01*
X2889250Y-1758188D01*
X2888792Y-1752447D01*
X2887370Y-1747113D01*
X2884982Y-1742135D01*
X2881426Y-1737461D01*
X2876753Y-1733194D01*
X2870809Y-1729181D01*
X2863596Y-1725523D01*
X2846324Y-1718818D01*
X2835503Y-1714347D01*
X2828239Y-1709674D01*
X2824226Y-1704035D01*
X2822956Y-1696720D01*
X2823362Y-1692808D01*
X2824530Y-1689252D01*
X2826512Y-1686153D01*
X2829255Y-1683461D01*
X2832760Y-1681327D01*
X2836976Y-1679752D01*
X2841955Y-1678787D01*
X2847594Y-1678432D01*
X2852115Y-1678736D01*
X2856636Y-1679549D01*
X2861106Y-1681022D01*
X2865628Y-1683004D01*
X2870454Y-1704339D01*
X2881630Y-1704339D01*
X2882392Y-1678939D01*
X2874264Y-1674520D01*
X2865932Y-1671269D01*
X2857195Y-1669237D01*
G37*
G36*
X2962148Y-1668525D02*
G01*
X2955899Y-1668780D01*
X2949956Y-1669491D01*
X2944368Y-1670659D01*
X2939186Y-1672285D01*
X2934411Y-1674317D01*
X2929991Y-1676755D01*
X2926080Y-1679651D01*
X2922625Y-1682902D01*
X2919628Y-1686509D01*
X2917190Y-1690522D01*
X2915259Y-1694840D01*
X2913888Y-1699514D01*
X2914904Y-1703578D01*
X2917088Y-1706625D01*
X2920492Y-1708505D01*
X2925064Y-1709166D01*
X2929382Y-1708404D01*
X2932887Y-1706168D01*
X2935579Y-1702511D01*
X2937510Y-1697482D01*
X2942336Y-1680210D01*
X2949854Y-1678736D01*
X2956560Y-1678178D01*
X2962402Y-1678482D01*
X2967380Y-1679549D01*
X2971495Y-1681480D01*
X2974797Y-1684477D01*
X2977286Y-1688592D01*
X2979064Y-1694027D01*
X2980080Y-1700936D01*
X2980436Y-1709420D01*
X2980436Y-1717039D01*
X2965297Y-1720951D01*
X2958134Y-1723136D01*
X2944012Y-1728317D01*
X2937306Y-1731213D01*
X2931464Y-1734108D01*
X2926435Y-1737055D01*
X2922219Y-1740001D01*
X2918764Y-1742998D01*
X2915970Y-1746097D01*
X2913786Y-1749298D01*
X2912211Y-1752549D01*
X2911144Y-1756003D01*
X2910526Y-1759712D01*
X2931668Y-1759712D01*
X2931871Y-1756359D01*
X2932582Y-1752904D01*
X2934004Y-1749399D01*
X2936290Y-1745894D01*
X2939592Y-1742389D01*
X2944114Y-1738934D01*
X2949956Y-1735582D01*
X2957322Y-1732280D01*
X2967634Y-1728774D01*
X2980436Y-1724914D01*
X2980436Y-1764538D01*
X2971342Y-1771548D01*
X2964281Y-1776069D01*
X2958236Y-1778558D01*
X2951988Y-1779270D01*
X2943860Y-1778152D01*
X2937459Y-1774647D01*
X2933192Y-1768551D01*
X2931668Y-1759712D01*
X2910526Y-1759712D01*
X2910332Y-1763268D01*
X2910992Y-1770329D01*
X2912973Y-1776526D01*
X2916021Y-1781810D01*
X2920136Y-1786178D01*
X2925064Y-1789582D01*
X2930702Y-1792020D01*
X2936900Y-1793493D01*
X2943606Y-1794002D01*
X2948940Y-1793697D01*
X2953816Y-1792732D01*
X2958388Y-1791106D01*
X2962757Y-1788871D01*
X2967075Y-1786026D01*
X2971444Y-1782521D01*
X2980944Y-1773682D01*
X2983585Y-1781911D01*
X2988310Y-1788160D01*
X2994964Y-1792122D01*
X3003296Y-1793493D01*
X3009595Y-1792782D01*
X3015234Y-1790547D01*
X3020314Y-1786534D01*
X3024886Y-1780539D01*
X3020314Y-1775714D01*
X3017926Y-1778406D01*
X3015640Y-1780387D01*
X3013100Y-1781657D01*
X3010154Y-1782064D01*
X3006344Y-1781251D01*
X3003499Y-1778558D01*
X3001670Y-1773580D01*
X3001010Y-1766062D01*
X3001010Y-1711706D01*
X3000756Y-1704289D01*
X2999943Y-1697634D01*
X2998673Y-1691792D01*
X2996793Y-1686610D01*
X2994406Y-1682191D01*
X2991459Y-1678381D01*
X2988005Y-1675282D01*
X2983941Y-1672793D01*
X2979369Y-1670862D01*
X2974187Y-1669542D01*
X2968447Y-1668780D01*
G37*
G36*
X3118358Y-1668525D02*
G01*
X3112617Y-1668932D01*
X3106877Y-1670151D01*
X3101136Y-1672132D01*
X3095447Y-1674825D01*
X3089960Y-1678127D01*
X3084626Y-1682038D01*
X3079496Y-1686458D01*
X3074670Y-1691386D01*
X3072638Y-1671066D01*
X3069336Y-1668780D01*
X3034030Y-1682496D01*
X3034030Y-1690116D01*
X3053842Y-1692148D01*
X3054299Y-1699615D01*
X3054604Y-1715414D01*
X3054451Y-1758746D01*
X3054096Y-1780286D01*
X3035554Y-1782825D01*
X3035554Y-1790700D01*
X3093212Y-1790700D01*
X3093212Y-1782825D01*
X3075940Y-1780286D01*
X3075584Y-1758746D01*
X3075432Y-1701038D01*
X3080054Y-1696974D01*
X3084525Y-1693519D01*
X3088792Y-1690674D01*
X3092907Y-1688388D01*
X3097022Y-1686661D01*
X3101136Y-1685442D01*
X3105251Y-1684782D01*
X3109468Y-1684528D01*
X3114446Y-1684883D01*
X3118662Y-1686052D01*
X3122218Y-1688134D01*
X3125063Y-1691182D01*
X3127298Y-1695297D01*
X3128822Y-1700580D01*
X3129737Y-1707134D01*
X3130042Y-1715007D01*
X3129889Y-1759000D01*
X3129534Y-1780286D01*
X3110484Y-1782825D01*
X3110484Y-1790700D01*
X3168142Y-1790700D01*
X3168142Y-1782825D01*
X3151124Y-1780286D01*
X3150565Y-1759000D01*
X3150362Y-1714246D01*
X3150158Y-1707388D01*
X3149600Y-1701292D01*
X3154527Y-1697075D01*
X3159150Y-1693519D01*
X3163620Y-1690624D01*
X3167888Y-1688338D01*
X3172002Y-1686610D01*
X3176016Y-1685442D01*
X3179978Y-1684731D01*
X3183890Y-1684528D01*
X3188970Y-1684883D01*
X3193288Y-1685950D01*
X3196945Y-1687931D01*
X3199841Y-1690827D01*
X3202127Y-1694840D01*
X3203702Y-1700072D01*
X3204667Y-1706575D01*
X3204972Y-1714500D01*
X3204819Y-1759000D01*
X3204464Y-1780286D01*
X3185922Y-1782825D01*
X3185922Y-1790700D01*
X3243326Y-1790700D01*
X3243326Y-1782825D01*
X3225800Y-1780286D01*
X3225444Y-1759000D01*
X3225292Y-1711960D01*
X3225038Y-1704644D01*
X3224326Y-1698091D01*
X3223158Y-1692198D01*
X3221532Y-1687017D01*
X3219450Y-1682546D01*
X3216910Y-1678736D01*
X3213963Y-1675536D01*
X3210610Y-1672945D01*
X3206851Y-1671015D01*
X3202736Y-1669592D01*
X3198164Y-1668780D01*
X3193288Y-1668525D01*
X3187293Y-1668881D01*
X3181350Y-1669948D01*
X3175457Y-1671777D01*
X3169615Y-1674317D01*
X3163976Y-1677619D01*
X3158439Y-1681683D01*
X3153156Y-1686560D01*
X3148076Y-1692148D01*
X3146196Y-1686407D01*
X3143808Y-1681480D01*
X3140862Y-1677416D01*
X3137408Y-1674164D01*
X3133445Y-1671624D01*
X3128924Y-1669897D01*
X3123895Y-1668881D01*
G37*
G36*
X3314192Y-1668525D02*
G01*
X3307943Y-1668780D01*
X3302000Y-1669491D01*
X3296412Y-1670659D01*
X3291230Y-1672285D01*
X3286455Y-1674317D01*
X3282086Y-1676755D01*
X3278124Y-1679651D01*
X3274669Y-1682902D01*
X3271672Y-1686509D01*
X3269234Y-1690522D01*
X3267303Y-1694840D01*
X3265932Y-1699514D01*
X3266948Y-1703578D01*
X3269132Y-1706625D01*
X3272536Y-1708505D01*
X3277108Y-1709166D01*
X3281426Y-1708404D01*
X3284931Y-1706168D01*
X3287623Y-1702511D01*
X3289554Y-1697482D01*
X3294379Y-1680210D01*
X3301847Y-1678736D01*
X3308604Y-1678178D01*
X3314446Y-1678482D01*
X3319424Y-1679549D01*
X3323539Y-1681480D01*
X3326841Y-1684477D01*
X3329330Y-1688592D01*
X3331108Y-1694027D01*
X3332124Y-1700936D01*
X3332479Y-1709420D01*
X3332479Y-1717039D01*
X3317341Y-1720951D01*
X3310178Y-1723136D01*
X3296056Y-1728317D01*
X3289350Y-1731213D01*
X3283508Y-1734108D01*
X3278479Y-1737055D01*
X3274263Y-1740001D01*
X3270808Y-1742998D01*
X3268014Y-1746097D01*
X3265830Y-1749298D01*
X3264255Y-1752549D01*
X3263188Y-1756003D01*
X3262570Y-1759712D01*
X3283712Y-1759712D01*
X3283915Y-1756359D01*
X3284626Y-1752904D01*
X3286048Y-1749399D01*
X3288334Y-1745894D01*
X3291636Y-1742389D01*
X3296158Y-1738934D01*
X3302000Y-1735582D01*
X3309365Y-1732280D01*
X3319678Y-1728774D01*
X3332479Y-1724914D01*
X3332479Y-1764538D01*
X3323386Y-1771548D01*
X3316325Y-1776069D01*
X3310280Y-1778558D01*
X3304032Y-1779270D01*
X3295904Y-1778152D01*
X3289503Y-1774647D01*
X3285236Y-1768551D01*
X3283712Y-1759712D01*
X3262570Y-1759712D01*
X3262376Y-1763268D01*
X3263036Y-1770329D01*
X3265017Y-1776526D01*
X3268065Y-1781810D01*
X3272129Y-1786178D01*
X3277108Y-1789582D01*
X3282746Y-1792020D01*
X3288944Y-1793493D01*
X3295650Y-1794002D01*
X3300984Y-1793697D01*
X3305860Y-1792732D01*
X3310432Y-1791106D01*
X3314801Y-1788871D01*
X3319119Y-1786026D01*
X3323488Y-1782521D01*
X3332987Y-1773682D01*
X3335629Y-1781911D01*
X3340354Y-1788160D01*
X3347008Y-1792122D01*
X3355340Y-1793493D01*
X3361639Y-1792782D01*
X3367278Y-1790547D01*
X3372358Y-1786534D01*
X3376929Y-1780539D01*
X3372358Y-1775714D01*
X3369970Y-1778406D01*
X3367684Y-1780387D01*
X3365144Y-1781657D01*
X3362198Y-1782064D01*
X3358387Y-1781251D01*
X3355543Y-1778558D01*
X3353714Y-1773580D01*
X3353054Y-1766062D01*
X3353054Y-1711706D01*
X3352800Y-1704289D01*
X3351987Y-1697634D01*
X3350717Y-1691792D01*
X3348837Y-1686610D01*
X3346450Y-1682191D01*
X3343554Y-1678381D01*
X3340049Y-1675282D01*
X3335985Y-1672793D01*
X3331413Y-1670862D01*
X3326231Y-1669542D01*
X3320491Y-1668780D01*
G37*
G36*
X2413508Y-1668780D02*
G01*
X2374900Y-1682242D01*
X2374900Y-1689862D01*
X2395220Y-1691639D01*
X2395778Y-1707134D01*
X2395982Y-1724914D01*
X2395829Y-1758746D01*
X2395474Y-1780286D01*
X2376424Y-1782825D01*
X2376424Y-1790700D01*
X2433828Y-1790700D01*
X2433828Y-1782825D01*
X2416810Y-1780286D01*
X2416454Y-1758746D01*
X2416302Y-1704593D01*
X2416810Y-1671066D01*
G37*
G36*
X547370Y-908050D02*
G01*
X441959Y-937260D01*
X441959Y-958087D01*
X498601Y-963930D01*
X498500Y-1303324D01*
X497846Y-1357630D01*
X555752Y-1357630D01*
X555752Y-1158240D01*
X562762Y-1151991D01*
X569518Y-1146454D01*
X576021Y-1141526D01*
X582269Y-1137208D01*
X588314Y-1133449D01*
X594106Y-1130198D01*
X599744Y-1127455D01*
X605129Y-1125169D01*
X610311Y-1123238D01*
X615340Y-1121714D01*
X620166Y-1120546D01*
X629412Y-1119022D01*
X637997Y-1118412D01*
X647090Y-1118514D01*
X651916Y-1118920D01*
X656691Y-1119632D01*
X661365Y-1120597D01*
X665886Y-1121816D01*
X670356Y-1123340D01*
X674674Y-1125169D01*
X678891Y-1127252D01*
X683006Y-1129588D01*
X686968Y-1132230D01*
X690778Y-1135126D01*
X694486Y-1138326D01*
X698042Y-1141780D01*
X701446Y-1145489D01*
X707847Y-1153769D01*
X710793Y-1158290D01*
X713587Y-1163116D01*
X716229Y-1168247D01*
X718667Y-1173581D01*
X723087Y-1185113D01*
X725017Y-1191310D01*
X728319Y-1204468D01*
X730859Y-1218742D01*
X732586Y-1234084D01*
X733450Y-1250492D01*
X733399Y-1268018D01*
X733044Y-1276654D01*
X732434Y-1284935D01*
X730453Y-1300530D01*
X727608Y-1314805D01*
X723900Y-1327810D01*
X719378Y-1339646D01*
X716889Y-1345082D01*
X714197Y-1350213D01*
X708304Y-1359611D01*
X705154Y-1363878D01*
X701802Y-1367891D01*
X694791Y-1375003D01*
X691083Y-1378153D01*
X683310Y-1383639D01*
X679297Y-1385976D01*
X670915Y-1389888D01*
X666648Y-1391462D01*
X662279Y-1392783D01*
X653338Y-1394663D01*
X644194Y-1395628D01*
X634542Y-1395628D01*
X624382Y-1394561D01*
X619201Y-1393647D01*
X614019Y-1392428D01*
X608838Y-1390904D01*
X598322Y-1386992D01*
X587756Y-1381760D01*
X582422Y-1378610D01*
X577088Y-1375156D01*
X571754Y-1371346D01*
X566420Y-1367129D01*
X561086Y-1362557D01*
X555752Y-1357630D01*
X497846Y-1357630D01*
X497332Y-1393190D01*
X445262Y-1400810D01*
X445262Y-1422400D01*
X548640Y-1429512D01*
X554482Y-1381760D01*
X559155Y-1387398D01*
X563880Y-1392580D01*
X568655Y-1397406D01*
X573481Y-1401826D01*
X578358Y-1405890D01*
X583285Y-1409598D01*
X588213Y-1412951D01*
X593140Y-1415999D01*
X598119Y-1418691D01*
X608076Y-1423212D01*
X618032Y-1426616D01*
X627938Y-1429004D01*
X637794Y-1430528D01*
X647496Y-1431188D01*
X657910Y-1431188D01*
X668985Y-1430274D01*
X679754Y-1428546D01*
X684987Y-1427378D01*
X695198Y-1424330D01*
X700125Y-1422552D01*
X709726Y-1418336D01*
X718972Y-1413357D01*
X723392Y-1410614D01*
X731926Y-1404518D01*
X740003Y-1397711D01*
X747623Y-1390192D01*
X754735Y-1382014D01*
X761339Y-1373174D01*
X767384Y-1363726D01*
X772871Y-1353667D01*
X777798Y-1343050D01*
X782116Y-1331874D01*
X785825Y-1320139D01*
X788873Y-1307896D01*
X791311Y-1295146D01*
X793089Y-1281938D01*
X794156Y-1268323D01*
X794512Y-1254252D01*
X794156Y-1239875D01*
X793089Y-1226058D01*
X791362Y-1212799D01*
X789025Y-1200099D01*
X786028Y-1188059D01*
X782421Y-1176528D01*
X778256Y-1165656D01*
X773480Y-1155395D01*
X768248Y-1145794D01*
X762457Y-1136802D01*
X756208Y-1128471D01*
X749452Y-1120851D01*
X742289Y-1113840D01*
X734669Y-1107541D01*
X726694Y-1101953D01*
X718362Y-1097076D01*
X709625Y-1092911D01*
X700582Y-1089507D01*
X695960Y-1088034D01*
X686511Y-1085748D01*
X676757Y-1084173D01*
X666750Y-1083411D01*
X656132Y-1083411D01*
X645058Y-1084427D01*
X639572Y-1085240D01*
X628497Y-1087729D01*
X617524Y-1091234D01*
X606653Y-1095806D01*
X601218Y-1098499D01*
X595884Y-1101445D01*
X585216Y-1108202D01*
X574751Y-1116126D01*
X564489Y-1125169D01*
X559460Y-1130096D01*
X554482Y-1135380D01*
X554482Y-1012190D01*
X556260Y-913130D01*
G37*
G36*
X1590548Y-908050D02*
G01*
X1485138Y-937260D01*
X1485138Y-958087D01*
X1541780Y-963421D01*
X1541627Y-1303324D01*
X1540510Y-1393190D01*
X1488440Y-1400810D01*
X1488440Y-1422400D01*
X1648460Y-1422400D01*
X1648460Y-1400810D01*
X1600200Y-1393190D01*
X1599438Y-1346047D01*
X1598980Y-1291996D01*
X1598930Y-1173480D01*
X1610106Y-1163675D01*
X1620875Y-1155192D01*
X1631238Y-1148029D01*
X1641297Y-1142085D01*
X1651101Y-1137208D01*
X1655927Y-1135176D01*
X1665478Y-1131925D01*
X1674926Y-1129538D01*
X1679600Y-1128674D01*
X1688998Y-1127607D01*
X1698498Y-1127252D01*
X1704238Y-1127404D01*
X1709724Y-1127861D01*
X1714855Y-1128725D01*
X1719681Y-1129893D01*
X1724253Y-1131417D01*
X1728470Y-1133348D01*
X1732432Y-1135735D01*
X1736089Y-1138478D01*
X1739442Y-1141730D01*
X1742490Y-1145387D01*
X1745234Y-1149604D01*
X1747672Y-1154226D01*
X1749856Y-1159408D01*
X1751736Y-1165148D01*
X1753311Y-1171397D01*
X1754632Y-1178255D01*
X1755648Y-1185621D01*
X1756359Y-1193647D01*
X1756765Y-1202283D01*
X1756918Y-1211580D01*
X1756816Y-1303832D01*
X1756257Y-1358849D01*
X1755648Y-1393190D01*
X1703578Y-1400810D01*
X1703578Y-1422400D01*
X1863598Y-1422400D01*
X1863598Y-1400810D01*
X1815338Y-1393190D01*
X1814169Y-1297990D01*
X1813966Y-1201928D01*
X1813255Y-1186180D01*
X1811832Y-1171651D01*
X1809699Y-1158290D01*
X1806905Y-1146200D01*
X1803349Y-1135227D01*
X1801317Y-1130147D01*
X1799132Y-1125372D01*
X1796745Y-1120902D01*
X1794205Y-1116685D01*
X1791462Y-1112723D01*
X1788566Y-1109014D01*
X1785518Y-1105611D01*
X1782267Y-1102410D01*
X1778863Y-1099515D01*
X1771497Y-1094435D01*
X1767586Y-1092301D01*
X1763471Y-1090371D01*
X1754784Y-1087221D01*
X1750212Y-1086002D01*
X1740458Y-1084275D01*
X1735378Y-1083716D01*
X1724660Y-1083310D01*
X1713331Y-1083868D01*
X1701952Y-1085443D01*
X1690624Y-1088034D01*
X1684985Y-1089660D01*
X1673758Y-1093673D01*
X1668221Y-1095959D01*
X1657248Y-1101293D01*
X1646478Y-1107389D01*
X1636014Y-1114298D01*
X1625803Y-1121867D01*
X1615998Y-1130147D01*
X1606600Y-1139088D01*
X1597660Y-1148588D01*
X1597660Y-1012190D01*
X1599438Y-913130D01*
G37*
G36*
X1991868Y-918210D02*
G01*
X1985670Y-918565D01*
X1979726Y-919581D01*
X1974138Y-921258D01*
X1968906Y-923544D01*
X1964131Y-926439D01*
X1959864Y-929894D01*
X1956104Y-933856D01*
X1952904Y-938326D01*
X1950364Y-943305D01*
X1948484Y-948690D01*
X1947316Y-954481D01*
X1946910Y-960628D01*
X1947316Y-966724D01*
X1948484Y-972464D01*
X1950364Y-977900D01*
X1952904Y-982929D01*
X1956104Y-987552D01*
X1959864Y-991666D01*
X1964131Y-995273D01*
X1968906Y-998321D01*
X1974138Y-1000760D01*
X1979726Y-1002588D01*
X1985670Y-1003706D01*
X1991868Y-1004062D01*
X1997811Y-1003706D01*
X2003552Y-1002588D01*
X2008987Y-1000760D01*
X2014118Y-998321D01*
X2018842Y-995273D01*
X2023160Y-991666D01*
X2026920Y-987552D01*
X2030171Y-982929D01*
X2032762Y-977900D01*
X2034692Y-972464D01*
X2035911Y-966724D01*
X2036318Y-960628D01*
X2035911Y-954481D01*
X2034692Y-948690D01*
X2032762Y-943305D01*
X2030171Y-938326D01*
X2026920Y-933856D01*
X2023160Y-929894D01*
X2018842Y-926439D01*
X2014118Y-923544D01*
X2008987Y-921258D01*
X2003552Y-919581D01*
X1997811Y-918565D01*
G37*
G36*
X196088Y-957071D02*
G01*
X196088Y-981202D01*
X261112Y-988060D01*
X261772Y-1040434D01*
X262077Y-1113028D01*
X262077Y-1280007D01*
X261569Y-1358747D01*
X261112Y-1391412D01*
X196088Y-1398270D01*
X196088Y-1422400D01*
X391922Y-1422400D01*
X391922Y-1398270D01*
X327152Y-1390650D01*
X326085Y-1331722D01*
X325678Y-1259636D01*
X325678Y-1106271D01*
X325983Y-1059942D01*
X326694Y-1007567D01*
X327152Y-988060D01*
X391922Y-981202D01*
X391922Y-957071D01*
G37*
G36*
X1065022Y-1083310D02*
G01*
X1060145Y-1083462D01*
X1055268Y-1084021D01*
X1050442Y-1084884D01*
X1045565Y-1086053D01*
X1040739Y-1087577D01*
X1035913Y-1089456D01*
X1031138Y-1091641D01*
X1026414Y-1094130D01*
X1021740Y-1096924D01*
X1017117Y-1100074D01*
X1012596Y-1103477D01*
X1008126Y-1107236D01*
X1003757Y-1111250D01*
X999439Y-1115568D01*
X991158Y-1125067D01*
X987196Y-1130249D01*
X983386Y-1135684D01*
X979678Y-1141425D01*
X972667Y-1153668D01*
X966317Y-1166977D01*
X963421Y-1173988D01*
X956310Y-1090422D01*
X946912Y-1084072D01*
X849121Y-1122172D01*
X849121Y-1143000D01*
X904240Y-1148588D01*
X905103Y-1169162D01*
X906119Y-1213154D01*
X906271Y-1286560D01*
X905002Y-1393190D01*
X854202Y-1400810D01*
X854202Y-1422400D01*
X1023112Y-1422400D01*
X1023112Y-1400810D01*
X965200Y-1392428D01*
X964437Y-1345692D01*
X963980Y-1291945D01*
X963930Y-1221740D01*
X969162Y-1206449D01*
X971956Y-1199286D01*
X978001Y-1185824D01*
X984707Y-1173429D01*
X988314Y-1167638D01*
X992073Y-1162100D01*
X996086Y-1156766D01*
X1000201Y-1151737D01*
X1004569Y-1146860D01*
X1009142Y-1142238D01*
X1013917Y-1137818D01*
X1018895Y-1133602D01*
X1024128Y-1129538D01*
X1032510Y-1137412D01*
X1037539Y-1141679D01*
X1042619Y-1145489D01*
X1047750Y-1148842D01*
X1052931Y-1151686D01*
X1058316Y-1153922D01*
X1063853Y-1155598D01*
X1069644Y-1156614D01*
X1075690Y-1156970D01*
X1082344Y-1156563D01*
X1088288Y-1155446D01*
X1093622Y-1153617D01*
X1098296Y-1151077D01*
X1102360Y-1147876D01*
X1105865Y-1144066D01*
X1108760Y-1139647D01*
X1111046Y-1134668D01*
X1112824Y-1129131D01*
X1114094Y-1123035D01*
X1114806Y-1116482D01*
X1115060Y-1109472D01*
X1111402Y-1103630D01*
X1106728Y-1098397D01*
X1101242Y-1093927D01*
X1094994Y-1090218D01*
X1088136Y-1087221D01*
X1080770Y-1085088D01*
X1073048Y-1083767D01*
G37*
G36*
X1287780Y-1083310D02*
G01*
X1280160Y-1083411D01*
X1265428Y-1084427D01*
X1251407Y-1086358D01*
X1238097Y-1089202D01*
X1231747Y-1090980D01*
X1219657Y-1095197D01*
X1213916Y-1097635D01*
X1203096Y-1103172D01*
X1198016Y-1106220D01*
X1193139Y-1109522D01*
X1188516Y-1112977D01*
X1184148Y-1116634D01*
X1180033Y-1120495D01*
X1176121Y-1124559D01*
X1169111Y-1133246D01*
X1166012Y-1137869D01*
X1163167Y-1142644D01*
X1158290Y-1152753D01*
X1156309Y-1158036D01*
X1154582Y-1163523D01*
X1153160Y-1169162D01*
X1154226Y-1175207D01*
X1156055Y-1180490D01*
X1158748Y-1185011D01*
X1162151Y-1188770D01*
X1166418Y-1191717D01*
X1171498Y-1193850D01*
X1177442Y-1195120D01*
X1184148Y-1195578D01*
X1190498Y-1195070D01*
X1196289Y-1193596D01*
X1201521Y-1191056D01*
X1206144Y-1187551D01*
X1210208Y-1183030D01*
X1213764Y-1177493D01*
X1216761Y-1170889D01*
X1219200Y-1163320D01*
X1232408Y-1115822D01*
X1243076Y-1113282D01*
X1253134Y-1111453D01*
X1262684Y-1110335D01*
X1271778Y-1109980D01*
X1282954Y-1110386D01*
X1293063Y-1111605D01*
X1297686Y-1112570D01*
X1302054Y-1113840D01*
X1306118Y-1115314D01*
X1309979Y-1117142D01*
X1313586Y-1119225D01*
X1316888Y-1121613D01*
X1319987Y-1124356D01*
X1322781Y-1127455D01*
X1325372Y-1130858D01*
X1327708Y-1134668D01*
X1329842Y-1138885D01*
X1331722Y-1143457D01*
X1333347Y-1148486D01*
X1334770Y-1153922D01*
X1335938Y-1159814D01*
X1336903Y-1166114D01*
X1338173Y-1180236D01*
X1338580Y-1196340D01*
X1338580Y-1217930D01*
X1310335Y-1224889D01*
X1296365Y-1228699D01*
X1282903Y-1232662D01*
X1270254Y-1236726D01*
X1258570Y-1240790D01*
X1240078Y-1247749D01*
X1223568Y-1254607D01*
X1208887Y-1261516D01*
X1195984Y-1268425D01*
X1184757Y-1275435D01*
X1179728Y-1278940D01*
X1170838Y-1286052D01*
X1163370Y-1293317D01*
X1160170Y-1297025D01*
X1157274Y-1300784D01*
X1154684Y-1304594D01*
X1152398Y-1308404D01*
X1148689Y-1316278D01*
X1146048Y-1324457D01*
X1144371Y-1332890D01*
X1143962Y-1336802D01*
X1202690Y-1336802D01*
X1203045Y-1329131D01*
X1204264Y-1321358D01*
X1206652Y-1313535D01*
X1208328Y-1309624D01*
X1210360Y-1305712D01*
X1212799Y-1301851D01*
X1215644Y-1297940D01*
X1218946Y-1294079D01*
X1222756Y-1290218D01*
X1227074Y-1286357D01*
X1231950Y-1282547D01*
X1237386Y-1278788D01*
X1243482Y-1275080D01*
X1250137Y-1271371D01*
X1257503Y-1267714D01*
X1265529Y-1264158D01*
X1278331Y-1259078D01*
X1297432Y-1252270D01*
X1320190Y-1244904D01*
X1338580Y-1239520D01*
X1338580Y-1350010D01*
X1325016Y-1360525D01*
X1313281Y-1369212D01*
X1302918Y-1376273D01*
X1293571Y-1381760D01*
X1284935Y-1385824D01*
X1280718Y-1387348D01*
X1276553Y-1388567D01*
X1272336Y-1389532D01*
X1263650Y-1390548D01*
X1259078Y-1390650D01*
X1253134Y-1390446D01*
X1247394Y-1389888D01*
X1241907Y-1388872D01*
X1236675Y-1387500D01*
X1231696Y-1385671D01*
X1227074Y-1383436D01*
X1222756Y-1380794D01*
X1218793Y-1377746D01*
X1215186Y-1374190D01*
X1212037Y-1370228D01*
X1209294Y-1365859D01*
X1206957Y-1360982D01*
X1205128Y-1355648D01*
X1203807Y-1349857D01*
X1202944Y-1343558D01*
X1202690Y-1336802D01*
X1143962Y-1336802D01*
X1143508Y-1346200D01*
X1143711Y-1353058D01*
X1144371Y-1359611D01*
X1145387Y-1365910D01*
X1146810Y-1371904D01*
X1148588Y-1377645D01*
X1150772Y-1383080D01*
X1153261Y-1388211D01*
X1156106Y-1393088D01*
X1159306Y-1397660D01*
X1162761Y-1401978D01*
X1166520Y-1405991D01*
X1170584Y-1409700D01*
X1174851Y-1413103D01*
X1179423Y-1416253D01*
X1184198Y-1419098D01*
X1189228Y-1421638D01*
X1194460Y-1423873D01*
X1199896Y-1425854D01*
X1205484Y-1427530D01*
X1211224Y-1428851D01*
X1217168Y-1429918D01*
X1223213Y-1430680D01*
X1229410Y-1431137D01*
X1235710Y-1431290D01*
X1241856Y-1431137D01*
X1247800Y-1430731D01*
X1253490Y-1430070D01*
X1258976Y-1429105D01*
X1264310Y-1427835D01*
X1269492Y-1426311D01*
X1274521Y-1424533D01*
X1279499Y-1422450D01*
X1289202Y-1417472D01*
X1298803Y-1411325D01*
X1308455Y-1404061D01*
X1318412Y-1395679D01*
X1328826Y-1386128D01*
X1339850Y-1375410D01*
X1341069Y-1381556D01*
X1342745Y-1387398D01*
X1344726Y-1392885D01*
X1347114Y-1398066D01*
X1349857Y-1402943D01*
X1352956Y-1407414D01*
X1356410Y-1411528D01*
X1360220Y-1415288D01*
X1364335Y-1418640D01*
X1368806Y-1421587D01*
X1373581Y-1424127D01*
X1378661Y-1426210D01*
X1384096Y-1427835D01*
X1389786Y-1429054D01*
X1395780Y-1429766D01*
X1402080Y-1430020D01*
X1408023Y-1429816D01*
X1413764Y-1429207D01*
X1419352Y-1428140D01*
X1424736Y-1426616D01*
X1429918Y-1424584D01*
X1434998Y-1422044D01*
X1439824Y-1418945D01*
X1444548Y-1415288D01*
X1449070Y-1411071D01*
X1453489Y-1406194D01*
X1457706Y-1400657D01*
X1461770Y-1394460D01*
X1449070Y-1381252D01*
X1442567Y-1388414D01*
X1436065Y-1393748D01*
X1429054Y-1397101D01*
X1421130Y-1398270D01*
X1417269Y-1398016D01*
X1413713Y-1397254D01*
X1410411Y-1395984D01*
X1407414Y-1394104D01*
X1404772Y-1391564D01*
X1402435Y-1388414D01*
X1400403Y-1384604D01*
X1398778Y-1380032D01*
X1397457Y-1374698D01*
X1396492Y-1368602D01*
X1395933Y-1361643D01*
X1395730Y-1353820D01*
X1395628Y-1194765D01*
X1394815Y-1179779D01*
X1394104Y-1172768D01*
X1392021Y-1159611D01*
X1389126Y-1147622D01*
X1387348Y-1142034D01*
X1385366Y-1136751D01*
X1383182Y-1131722D01*
X1380794Y-1126947D01*
X1378204Y-1122476D01*
X1375359Y-1118260D01*
X1372362Y-1114298D01*
X1369110Y-1110640D01*
X1365656Y-1107186D01*
X1361948Y-1103985D01*
X1358087Y-1101039D01*
X1353972Y-1098296D01*
X1349654Y-1095857D01*
X1345133Y-1093622D01*
X1340358Y-1091590D01*
X1335379Y-1089812D01*
X1330198Y-1088237D01*
X1319174Y-1085799D01*
X1307287Y-1084173D01*
X1294485Y-1083411D01*
G37*
G36*
X2352040Y-1083310D02*
G01*
X2341422Y-1083818D01*
X2330704Y-1085342D01*
X2320036Y-1087780D01*
X2309368Y-1091184D01*
X2298801Y-1095451D01*
X2288387Y-1100582D01*
X2283206Y-1103426D01*
X2273046Y-1109776D01*
X2263089Y-1116787D01*
X2253386Y-1124559D01*
X2244039Y-1132992D01*
X2234996Y-1142034D01*
X2230628Y-1146810D01*
X2225040Y-1090422D01*
X2215388Y-1084072D01*
X2117852Y-1122172D01*
X2117852Y-1143000D01*
X2172970Y-1148588D01*
X2174341Y-1174292D01*
X2174849Y-1195628D01*
X2175002Y-1219454D01*
X2174849Y-1303324D01*
X2174138Y-1358392D01*
X2173478Y-1393190D01*
X2122170Y-1400810D01*
X2122170Y-1422400D01*
X2282190Y-1422400D01*
X2282190Y-1400810D01*
X2233930Y-1393190D01*
X2232710Y-1291996D01*
X2232660Y-1173480D01*
X2245614Y-1162253D01*
X2251862Y-1157274D01*
X2258009Y-1152702D01*
X2269896Y-1144828D01*
X2275687Y-1141476D01*
X2281478Y-1138529D01*
X2287168Y-1135938D01*
X2292858Y-1133703D01*
X2298496Y-1131874D01*
X2304186Y-1130350D01*
X2309926Y-1129233D01*
X2315667Y-1128420D01*
X2321509Y-1127912D01*
X2327402Y-1127760D01*
X2333142Y-1127912D01*
X2338578Y-1128420D01*
X2343658Y-1129233D01*
X2348484Y-1130452D01*
X2352954Y-1132027D01*
X2357120Y-1133957D01*
X2360980Y-1136345D01*
X2364536Y-1139139D01*
X2367788Y-1142390D01*
X2370734Y-1146098D01*
X2373426Y-1150315D01*
X2375763Y-1154988D01*
X2377846Y-1160170D01*
X2379624Y-1165860D01*
X2381148Y-1172108D01*
X2382367Y-1178915D01*
X2383332Y-1186332D01*
X2383993Y-1194308D01*
X2384399Y-1202893D01*
X2384552Y-1212088D01*
X2384399Y-1303832D01*
X2383790Y-1352753D01*
X2383028Y-1393190D01*
X2330450Y-1400810D01*
X2330450Y-1422400D01*
X2490470Y-1422400D01*
X2490470Y-1400810D01*
X2442972Y-1393190D01*
X2441702Y-1346555D01*
X2440990Y-1292352D01*
X2440940Y-1209802D01*
X2440787Y-1200048D01*
X2439771Y-1182319D01*
X2438908Y-1173988D01*
X2452370Y-1162354D01*
X2458872Y-1157274D01*
X2465273Y-1152601D01*
X2471470Y-1148384D01*
X2477617Y-1144625D01*
X2483612Y-1141272D01*
X2489504Y-1138326D01*
X2495296Y-1135735D01*
X2500985Y-1133551D01*
X2506675Y-1131722D01*
X2512263Y-1130249D01*
X2517749Y-1129131D01*
X2523286Y-1128369D01*
X2528722Y-1127912D01*
X2534158Y-1127760D01*
X2540000Y-1127912D01*
X2545537Y-1128318D01*
X2550769Y-1129080D01*
X2555646Y-1130198D01*
X2560218Y-1131671D01*
X2564485Y-1133500D01*
X2568397Y-1135786D01*
X2572054Y-1138428D01*
X2575407Y-1141526D01*
X2578404Y-1145133D01*
X2581148Y-1149197D01*
X2583586Y-1153769D01*
X2585720Y-1158849D01*
X2587548Y-1164488D01*
X2589072Y-1170736D01*
X2590342Y-1177544D01*
X2591308Y-1184960D01*
X2592019Y-1192987D01*
X2592425Y-1201724D01*
X2592578Y-1211072D01*
X2592476Y-1303832D01*
X2591917Y-1358849D01*
X2591308Y-1393190D01*
X2540000Y-1400810D01*
X2540000Y-1422400D01*
X2699258Y-1422400D01*
X2699258Y-1400810D01*
X2650490Y-1393190D01*
X2649728Y-1346555D01*
X2649270Y-1292352D01*
X2649118Y-1194968D01*
X2648102Y-1178153D01*
X2646172Y-1162862D01*
X2644851Y-1155750D01*
X2643276Y-1148994D01*
X2641447Y-1142593D01*
X2639415Y-1136548D01*
X2637180Y-1130858D01*
X2634691Y-1125524D01*
X2631998Y-1120546D01*
X2629052Y-1115872D01*
X2625902Y-1111554D01*
X2622550Y-1107541D01*
X2618994Y-1103833D01*
X2615184Y-1100480D01*
X2611221Y-1097432D01*
X2607005Y-1094689D01*
X2602585Y-1092250D01*
X2598013Y-1090117D01*
X2593187Y-1088288D01*
X2588209Y-1086764D01*
X2582976Y-1085494D01*
X2577592Y-1084529D01*
X2572054Y-1083868D01*
X2566263Y-1083462D01*
X2554782Y-1083411D01*
X2543657Y-1084275D01*
X2532583Y-1086053D01*
X2521610Y-1088694D01*
X2510739Y-1092250D01*
X2499918Y-1096721D01*
X2494584Y-1099261D01*
X2484069Y-1105103D01*
X2473655Y-1111910D01*
X2463546Y-1119632D01*
X2458516Y-1123848D01*
X2453589Y-1128318D01*
X2443937Y-1137970D01*
X2434590Y-1148588D01*
X2432659Y-1141984D01*
X2430526Y-1135735D01*
X2428189Y-1129842D01*
X2425547Y-1124356D01*
X2422702Y-1119225D01*
X2419654Y-1114450D01*
X2416352Y-1110030D01*
X2412796Y-1105966D01*
X2409037Y-1102258D01*
X2405024Y-1098905D01*
X2400808Y-1095857D01*
X2396337Y-1093216D01*
X2391613Y-1090828D01*
X2386634Y-1088796D01*
X2381453Y-1087120D01*
X2376068Y-1085748D01*
X2370429Y-1084681D01*
X2364536Y-1083919D01*
X2358390Y-1083462D01*
G37*
G36*
X2012950Y-1084072D02*
G01*
X1906270Y-1121410D01*
X1906270Y-1142238D01*
X1962657Y-1147572D01*
X1964131Y-1190498D01*
X1964537Y-1213154D01*
X1964689Y-1286560D01*
X1963420Y-1393190D01*
X1910080Y-1400810D01*
X1910080Y-1422400D01*
X2070100Y-1422400D01*
X2070100Y-1400810D01*
X2022348Y-1393190D01*
X2021128Y-1291996D01*
X2021078Y-1182878D01*
X2022348Y-1090422D01*
G37*
D10*
X836168Y-3387089D02*
G01*
X836168Y-3509771D01*
X774700Y-3448304D02*
G01*
X897381Y-3448304D01*
X1030986Y-3414268D02*
G01*
X1024128Y-3434842D01*
X1010665Y-3448304D01*
X990092Y-3455162D01*
X983234Y-3455162D01*
X962913Y-3448304D01*
X949197Y-3434842D01*
X942339Y-3414268D01*
X942339Y-3407410D01*
X949197Y-3387089D01*
X962913Y-3373373D01*
X983234Y-3366515D01*
X990092Y-3366515D01*
X1010665Y-3373373D01*
X1024128Y-3387089D01*
X1030986Y-3414268D01*
X1030986Y-3448304D01*
X1024128Y-3482339D01*
X1010665Y-3502913D01*
X990092Y-3509771D01*
X976629Y-3509771D01*
X956055Y-3502913D01*
X949197Y-3489197D01*
X1082802Y-3400552D02*
G01*
X1082802Y-3393694D01*
X1089660Y-3380231D01*
X1096518Y-3373373D01*
X1110234Y-3366515D01*
X1137412Y-3366515D01*
X1151128Y-3373373D01*
X1157986Y-3380231D01*
X1164589Y-3393694D01*
X1164589Y-3407410D01*
X1157986Y-3421126D01*
X1144270Y-3441445D01*
X1075944Y-3509771D01*
X1171447Y-3509771D01*
X1335278Y-3366515D02*
G01*
X1410207Y-3366515D01*
X1369313Y-3421126D01*
X1389634Y-3421126D01*
X1403350Y-3427984D01*
X1410207Y-3434842D01*
X1417065Y-3455162D01*
X1417065Y-3468878D01*
X1410207Y-3489197D01*
X1396492Y-3502913D01*
X1376171Y-3509771D01*
X1355597Y-3509771D01*
X1335278Y-3502913D01*
X1328420Y-3496055D01*
X1321562Y-3482339D01*
X1475486Y-3366515D02*
G01*
X1550670Y-3366515D01*
X1509776Y-3421126D01*
X1530095Y-3421126D01*
X1543812Y-3427984D01*
X1550670Y-3434842D01*
X1557528Y-3455162D01*
X1557528Y-3468878D01*
X1550670Y-3489197D01*
X1536954Y-3502913D01*
X1516634Y-3509771D01*
X1496060Y-3509771D01*
X1475486Y-3502913D01*
X1468881Y-3496055D01*
X1462023Y-3482339D01*
X1615947Y-3366515D02*
G01*
X1691131Y-3366515D01*
X1650237Y-3421126D01*
X1670557Y-3421126D01*
X1684273Y-3427984D01*
X1691131Y-3434842D01*
X1697989Y-3455162D01*
X1697989Y-3468878D01*
X1691131Y-3489197D01*
X1677415Y-3502913D01*
X1657095Y-3509771D01*
X1636521Y-3509771D01*
X1615947Y-3502913D01*
X1609344Y-3496055D01*
X1602486Y-3482339D01*
X1824736Y-3366515D02*
G01*
X1756410Y-3366515D01*
X1749805Y-3427984D01*
X1756410Y-3421126D01*
X1776984Y-3414268D01*
X1797304Y-3414268D01*
X1817878Y-3421126D01*
X1831594Y-3434842D01*
X1838452Y-3455162D01*
X1838452Y-3468878D01*
X1831594Y-3489197D01*
X1817878Y-3502913D01*
X1797304Y-3509771D01*
X1776984Y-3509771D01*
X1756410Y-3502913D01*
X1749805Y-3496055D01*
X1742947Y-3482339D01*
X1924304Y-3366515D02*
G01*
X1903729Y-3373373D01*
X1890268Y-3393694D01*
X1883410Y-3427984D01*
X1883410Y-3448304D01*
X1890268Y-3482339D01*
X1903729Y-3502913D01*
X1924304Y-3509771D01*
X1937765Y-3509771D01*
X1958340Y-3502913D01*
X1972056Y-3482339D01*
X1978913Y-3448304D01*
X1978913Y-3427984D01*
X1972056Y-3393694D01*
X1958340Y-3373373D01*
X1937765Y-3366515D01*
X1924304Y-3366515D01*
X2030729Y-3400552D02*
G01*
X2030729Y-3393694D01*
X2037334Y-3380231D01*
X2044191Y-3373373D01*
X2057908Y-3366515D01*
X2085086Y-3366515D01*
X2098802Y-3373373D01*
X2105659Y-3380231D01*
X2112518Y-3393694D01*
X2112518Y-3407410D01*
X2105659Y-3421126D01*
X2091943Y-3441445D01*
X2023872Y-3509771D01*
X2119122Y-3509771D01*
X2252979Y-3414268D02*
G01*
X2246122Y-3434842D01*
X2232406Y-3448304D01*
X2212086Y-3455162D01*
X2205227Y-3455162D01*
X2184654Y-3448304D01*
X2170938Y-3434842D01*
X2164334Y-3414268D01*
X2164334Y-3407410D01*
X2170938Y-3387089D01*
X2184654Y-3373373D01*
X2205227Y-3366515D01*
X2212086Y-3366515D01*
X2232406Y-3373373D01*
X2246122Y-3387089D01*
X2252979Y-3414268D01*
X2252979Y-3448304D01*
X2246122Y-3482339D01*
X2232406Y-3502913D01*
X2212086Y-3509771D01*
X2198370Y-3509771D01*
X2177795Y-3502913D01*
X2170938Y-3489197D01*
X2379725Y-3387089D02*
G01*
X2372868Y-3373373D01*
X2352547Y-3366515D01*
X2338831Y-3366515D01*
X2318258Y-3373373D01*
X2304795Y-3393694D01*
X2297938Y-3427984D01*
X2297938Y-3462020D01*
X2304795Y-3489197D01*
X2318258Y-3502913D01*
X2338831Y-3509771D01*
X2345690Y-3509771D01*
X2366009Y-3502913D01*
X2379725Y-3489197D01*
X2386584Y-3468878D01*
X2386584Y-3462020D01*
X2379725Y-3441445D01*
X2366009Y-3427984D01*
X2345690Y-3421126D01*
X2338831Y-3421126D01*
X2318258Y-3427984D01*
X2304795Y-3441445D01*
X2297938Y-3462020D01*
X2513329Y-3366515D02*
G01*
X2445258Y-3366515D01*
X2438400Y-3427984D01*
X2445258Y-3421126D01*
X2465577Y-3414268D01*
X2486152Y-3414268D01*
X2506472Y-3421126D01*
X2520188Y-3434842D01*
X2527045Y-3455162D01*
X2527045Y-3468878D01*
X2520188Y-3489197D01*
X2506472Y-3502913D01*
X2486152Y-3509771D01*
X2465577Y-3509771D01*
X2445258Y-3502913D01*
X2438400Y-3496055D01*
X2431541Y-3482339D01*
X2606040Y-3366515D02*
G01*
X2585720Y-3373373D01*
X2578861Y-3387089D01*
X2578861Y-3400552D01*
X2585720Y-3414268D01*
X2599181Y-3421126D01*
X2626613Y-3427984D01*
X2646934Y-3434842D01*
X2660650Y-3448304D01*
X2667508Y-3462020D01*
X2667508Y-3482339D01*
X2660650Y-3496055D01*
X2653791Y-3502913D01*
X2633218Y-3509771D01*
X2606040Y-3509771D01*
X2585720Y-3502913D01*
X2578861Y-3496055D01*
X2572004Y-3482339D01*
X2572004Y-3462020D01*
X2578861Y-3448304D01*
X2592324Y-3434842D01*
X2612897Y-3427984D01*
X2640075Y-3421126D01*
X2653791Y-3414268D01*
X2660650Y-3400552D01*
X2660650Y-3387089D01*
X2653791Y-3373373D01*
X2633218Y-3366515D01*
X2606040Y-3366515D01*
X850900Y-4382515D02*
G01*
X850900Y-4525771D01*
X895857Y-4382515D02*
G01*
X895857Y-4525771D01*
X895857Y-4450842D02*
G01*
X909573Y-4437126D01*
X923289Y-4430268D01*
X943610Y-4430268D01*
X957326Y-4437126D01*
X970787Y-4450842D01*
X977645Y-4471162D01*
X977645Y-4484878D01*
X970787Y-4505197D01*
X957326Y-4518913D01*
X943610Y-4525771D01*
X923289Y-4525771D01*
X909573Y-4518913D01*
X895857Y-4505197D01*
X1056894Y-4430268D02*
G01*
X1043178Y-4437126D01*
X1029462Y-4450842D01*
X1022604Y-4471162D01*
X1022604Y-4484878D01*
X1029462Y-4505197D01*
X1043178Y-4518913D01*
X1056894Y-4525771D01*
X1077213Y-4525771D01*
X1090929Y-4518913D01*
X1104645Y-4505197D01*
X1111250Y-4484878D01*
X1111250Y-4471162D01*
X1104645Y-4450842D01*
X1090929Y-4437126D01*
X1077213Y-4430268D01*
X1056894Y-4430268D01*
X1156462Y-4464304D02*
G01*
X1279144Y-4464304D01*
X1405889Y-4450842D02*
G01*
X1392173Y-4437126D01*
X1378712Y-4430268D01*
X1358137Y-4430268D01*
X1344421Y-4437126D01*
X1330960Y-4450842D01*
X1324102Y-4471162D01*
X1324102Y-4484878D01*
X1330960Y-4505197D01*
X1344421Y-4518913D01*
X1358137Y-4525771D01*
X1378712Y-4525771D01*
X1392173Y-4518913D01*
X1405889Y-4505197D01*
X1450847Y-4430268D02*
G01*
X1450847Y-4525771D01*
X1450847Y-4471162D02*
G01*
X1457705Y-4450842D01*
X1471421Y-4437126D01*
X1484884Y-4430268D01*
X1505457Y-4430268D01*
X1550415Y-4471162D02*
G01*
X1632204Y-4471162D01*
X1632204Y-4457445D01*
X1625345Y-4443984D01*
X1618742Y-4437126D01*
X1605026Y-4430268D01*
X1584452Y-4430268D01*
X1570989Y-4437126D01*
X1557273Y-4450842D01*
X1550415Y-4471162D01*
X1550415Y-4484878D01*
X1557273Y-4505197D01*
X1570989Y-4518913D01*
X1584452Y-4525771D01*
X1605026Y-4525771D01*
X1618742Y-4518913D01*
X1632204Y-4505197D01*
X1759204Y-4430268D02*
G01*
X1759204Y-4525771D01*
X1759204Y-4450842D02*
G01*
X1745487Y-4437126D01*
X1731771Y-4430268D01*
X1711452Y-4430268D01*
X1697736Y-4437126D01*
X1684020Y-4450842D01*
X1677162Y-4471162D01*
X1677162Y-4484878D01*
X1684020Y-4505197D01*
X1697736Y-4518913D01*
X1711452Y-4525771D01*
X1731771Y-4525771D01*
X1745487Y-4518913D01*
X1759204Y-4505197D01*
X1824481Y-4382515D02*
G01*
X1824481Y-4498339D01*
X1831339Y-4518913D01*
X1845055Y-4525771D01*
X1858518Y-4525771D01*
X1804162Y-4430268D02*
G01*
X1851913Y-4430268D01*
X1903729Y-4471162D02*
G01*
X1985518Y-4471162D01*
X1985518Y-4457445D01*
X1978659Y-4443984D01*
X1971802Y-4437126D01*
X1958086Y-4430268D01*
X1937765Y-4430268D01*
X1924050Y-4437126D01*
X1910334Y-4450842D01*
X1903729Y-4471162D01*
X1903729Y-4484878D01*
X1910334Y-4505197D01*
X1924050Y-4518913D01*
X1937765Y-4525771D01*
X1958086Y-4525771D01*
X1971802Y-4518913D01*
X1985518Y-4505197D01*
X2105406Y-4450842D02*
G01*
X2098547Y-4437126D01*
X2078227Y-4430268D01*
X2057654Y-4430268D01*
X2037334Y-4437126D01*
X2030475Y-4450842D01*
X2037334Y-4464304D01*
X2050795Y-4471162D01*
X2085086Y-4478020D01*
X2098547Y-4484878D01*
X2105406Y-4498339D01*
X2105406Y-4505197D01*
X2098547Y-4518913D01*
X2078227Y-4525771D01*
X2057654Y-4525771D01*
X2037334Y-4518913D01*
X2030475Y-4505197D01*
X863600Y-3887215D02*
G01*
X863600Y-4030471D01*
X863600Y-3887215D02*
G01*
X918210Y-4030471D01*
X972565Y-3887215D02*
G01*
X918210Y-4030471D01*
X972565Y-3887215D02*
G01*
X972565Y-4030471D01*
X1024381Y-3996436D02*
G01*
X1017778Y-4003039D01*
X1024381Y-4009897D01*
X1031239Y-4003039D01*
X1024381Y-3996436D01*
X1076452Y-3887215D02*
G01*
X1083055Y-3894073D01*
X1089913Y-3887215D01*
X1083055Y-3880357D01*
X1076452Y-3887215D01*
X1083055Y-3934968D02*
G01*
X1083055Y-4030471D01*
X1134871Y-3887215D02*
G01*
X1134871Y-4030471D01*
X1134871Y-3955542D02*
G01*
X1148587Y-3941826D01*
X1162304Y-3934968D01*
X1182623Y-3934968D01*
X1196339Y-3941826D01*
X1210055Y-3955542D01*
X1216660Y-3975862D01*
X1216660Y-3989578D01*
X1210055Y-4009897D01*
X1196339Y-4023613D01*
X1182623Y-4030471D01*
X1162304Y-4030471D01*
X1148587Y-4023613D01*
X1134871Y-4009897D01*
X1261871Y-3934968D02*
G01*
X1261871Y-4030471D01*
X1261871Y-3975862D02*
G01*
X1268476Y-3955542D01*
X1282192Y-3941826D01*
X1295907Y-3934968D01*
X1316228Y-3934968D01*
X1443228Y-3934968D02*
G01*
X1443228Y-4030471D01*
X1443228Y-3955542D02*
G01*
X1429512Y-3941826D01*
X1415795Y-3934968D01*
X1395476Y-3934968D01*
X1381760Y-3941826D01*
X1368044Y-3955542D01*
X1361439Y-3975862D01*
X1361439Y-3989578D01*
X1368044Y-4009897D01*
X1381760Y-4023613D01*
X1395476Y-4030471D01*
X1415795Y-4030471D01*
X1429512Y-4023613D01*
X1443228Y-4009897D01*
X1488186Y-3887215D02*
G01*
X1488186Y-4030471D01*
X1488186Y-3962145D02*
G01*
X1508505Y-3941826D01*
X1522221Y-3934968D01*
X1542795Y-3934968D01*
X1556257Y-3941826D01*
X1563115Y-3962145D01*
X1563115Y-4030471D01*
X1608073Y-3887215D02*
G01*
X1614931Y-3894073D01*
X1621789Y-3887215D01*
X1614931Y-3880357D01*
X1608073Y-3887215D01*
X1614931Y-3934968D02*
G01*
X1614931Y-4030471D01*
X1666747Y-3934968D02*
G01*
X1666747Y-4030471D01*
X1666747Y-3962145D02*
G01*
X1687321Y-3941826D01*
X1700784Y-3934968D01*
X1721357Y-3934968D01*
X1735073Y-3941826D01*
X1741678Y-3962145D01*
X1741678Y-4030471D01*
X1741678Y-3962145D02*
G01*
X1762252Y-3941826D01*
X1775968Y-3934968D01*
X1796287Y-3934968D01*
X1810004Y-3941826D01*
X1816862Y-3962145D01*
X1816862Y-4030471D01*
X1861820Y-3887215D02*
G01*
X1861820Y-4030471D01*
X1861820Y-3955542D02*
G01*
X1875536Y-3941826D01*
X1888997Y-3934968D01*
X1909571Y-3934968D01*
X1923034Y-3941826D01*
X1936750Y-3955542D01*
X1943608Y-3975862D01*
X1943608Y-3989578D01*
X1936750Y-4009897D01*
X1923034Y-4023613D01*
X1909571Y-4030471D01*
X1888997Y-4030471D01*
X1875536Y-4023613D01*
X1861820Y-4009897D01*
X1988565Y-3887215D02*
G01*
X1995424Y-3894073D01*
X2002281Y-3887215D01*
X1995424Y-3880357D01*
X1988565Y-3887215D01*
X1995424Y-3934968D02*
G01*
X1995424Y-4030471D01*
X2047240Y-3934968D02*
G01*
X2047240Y-4030471D01*
X2047240Y-3962145D02*
G01*
X2067813Y-3941826D01*
X2081275Y-3934968D01*
X2101850Y-3934968D01*
X2115311Y-3941826D01*
X2122170Y-3962145D01*
X2122170Y-4030471D01*
X2208022Y-3887215D02*
G01*
X2187702Y-3894073D01*
X2173986Y-3914394D01*
X2167127Y-3948684D01*
X2167127Y-3969004D01*
X2173986Y-4003039D01*
X2187702Y-4023613D01*
X2208022Y-4030471D01*
X2221738Y-4030471D01*
X2242311Y-4023613D01*
X2255774Y-4003039D01*
X2262631Y-3969004D01*
X2262631Y-3948684D01*
X2255774Y-3914394D01*
X2242311Y-3894073D01*
X2221738Y-3887215D01*
X2208022Y-3887215D01*
X2307590Y-3914394D02*
G01*
X2321306Y-3907789D01*
X2341879Y-3887215D01*
X2341879Y-4030471D01*
X2488945Y-3941826D02*
G01*
X2482341Y-3928110D01*
X2468625Y-3921252D01*
X2448052Y-3921252D01*
X2434590Y-3928110D01*
X2427731Y-3934968D01*
X2420874Y-3955542D01*
X2420874Y-3975862D01*
X2427731Y-3989578D01*
X2441447Y-3996436D01*
X2461768Y-3996436D01*
X2475484Y-3989578D01*
X2482341Y-3975862D01*
X2448052Y-3921252D02*
G01*
X2434590Y-3934968D01*
X2427731Y-3955542D01*
X2427731Y-3975862D01*
X2434590Y-3989578D01*
X2441447Y-3996436D01*
X2488945Y-3921252D02*
G01*
X2482341Y-3975862D01*
X2482341Y-3989578D01*
X2495804Y-3996436D01*
X2509520Y-3996436D01*
X2523236Y-3982720D01*
X2529840Y-3962145D01*
X2529840Y-3948684D01*
X2523236Y-3928110D01*
X2516377Y-3914394D01*
X2502661Y-3900931D01*
X2488945Y-3894073D01*
X2468625Y-3887215D01*
X2448052Y-3887215D01*
X2427731Y-3894073D01*
X2414015Y-3900931D01*
X2400300Y-3914394D01*
X2393695Y-3928110D01*
X2386838Y-3948684D01*
X2386838Y-3969004D01*
X2393695Y-3989578D01*
X2400300Y-4003039D01*
X2414015Y-4016755D01*
X2427731Y-4023613D01*
X2448052Y-4030471D01*
X2468625Y-4030471D01*
X2488945Y-4023613D01*
X2502661Y-4016755D01*
X2509520Y-4009897D01*
X2495804Y-3921252D02*
G01*
X2488945Y-3975862D01*
X2488945Y-3989578D01*
X2495804Y-3996436D01*
X2656840Y-3934968D02*
G01*
X2656840Y-4043934D01*
X2649981Y-4064507D01*
X2643124Y-4071365D01*
X2629408Y-4078223D01*
X2609088Y-4078223D01*
X2595372Y-4071365D01*
X2656840Y-3955542D02*
G01*
X2643124Y-3941826D01*
X2629408Y-3934968D01*
X2609088Y-3934968D01*
X2595372Y-3941826D01*
X2581656Y-3955542D01*
X2575052Y-3975862D01*
X2575052Y-3989578D01*
X2581656Y-4009897D01*
X2595372Y-4023613D01*
X2609088Y-4030471D01*
X2629408Y-4030471D01*
X2643124Y-4023613D01*
X2656840Y-4009897D01*
X2701797Y-3934968D02*
G01*
X2701797Y-4030471D01*
X2701797Y-3962145D02*
G01*
X2722118Y-3941826D01*
X2735834Y-3934968D01*
X2756408Y-3934968D01*
X2769870Y-3941826D01*
X2776727Y-3962145D01*
X2776727Y-4030471D01*
X2776727Y-3962145D02*
G01*
X2797302Y-3941826D01*
X2810763Y-3934968D01*
X2831338Y-3934968D01*
X2845054Y-3941826D01*
X2851658Y-3962145D01*
X2851658Y-4030471D01*
X2978658Y-3934968D02*
G01*
X2978658Y-4030471D01*
X2978658Y-3955542D02*
G01*
X2964941Y-3941826D01*
X2951225Y-3934968D01*
X2930906Y-3934968D01*
X2917190Y-3941826D01*
X2903474Y-3955542D01*
X2896870Y-3975862D01*
X2896870Y-3989578D01*
X2903474Y-4009897D01*
X2917190Y-4023613D01*
X2930906Y-4030471D01*
X2951225Y-4030471D01*
X2964941Y-4023613D01*
X2978658Y-4009897D01*
X3023615Y-3887215D02*
G01*
X3030474Y-3894073D01*
X3037331Y-3887215D01*
X3030474Y-3880357D01*
X3023615Y-3887215D01*
X3030474Y-3934968D02*
G01*
X3030474Y-4030471D01*
X3082290Y-3887215D02*
G01*
X3082290Y-4030471D01*
X3134106Y-3996436D02*
G01*
X3127247Y-4003039D01*
X3134106Y-4009897D01*
X3140963Y-4003039D01*
X3134106Y-3996436D01*
X3267709Y-3955542D02*
G01*
X3253993Y-3941826D01*
X3240531Y-3934968D01*
X3219958Y-3934968D01*
X3206241Y-3941826D01*
X3192779Y-3955542D01*
X3185922Y-3975862D01*
X3185922Y-3989578D01*
X3192779Y-4009897D01*
X3206241Y-4023613D01*
X3219958Y-4030471D01*
X3240531Y-4030471D01*
X3253993Y-4023613D01*
X3267709Y-4009897D01*
X3346704Y-3934968D02*
G01*
X3333241Y-3941826D01*
X3319525Y-3955542D01*
X3312668Y-3975862D01*
X3312668Y-3989578D01*
X3319525Y-4009897D01*
X3333241Y-4023613D01*
X3346704Y-4030471D01*
X3367277Y-4030471D01*
X3380993Y-4023613D01*
X3394456Y-4009897D01*
X3401313Y-3989578D01*
X3401313Y-3975862D01*
X3394456Y-3955542D01*
X3380993Y-3941826D01*
X3367277Y-3934968D01*
X3346704Y-3934968D01*
X3446272Y-3934968D02*
G01*
X3446272Y-4030471D01*
X3446272Y-3962145D02*
G01*
X3466845Y-3941826D01*
X3480308Y-3934968D01*
X3500881Y-3934968D01*
X3514597Y-3941826D01*
X3521202Y-3962145D01*
X3521202Y-4030471D01*
X3521202Y-3962145D02*
G01*
X3541775Y-3941826D01*
X3555491Y-3934968D01*
X3575811Y-3934968D01*
X3589527Y-3941826D01*
X3596386Y-3962145D01*
X3596386Y-4030471D01*
X165100Y-2096515D02*
G01*
X165100Y-2239771D01*
X165100Y-2096515D02*
G01*
X219710Y-2239771D01*
X274065Y-2096515D02*
G01*
X219710Y-2239771D01*
X274065Y-2096515D02*
G01*
X274065Y-2239771D01*
X401065Y-2144268D02*
G01*
X401065Y-2239771D01*
X401065Y-2164842D02*
G01*
X387350Y-2151126D01*
X373634Y-2144268D01*
X353313Y-2144268D01*
X339597Y-2151126D01*
X325881Y-2164842D01*
X319278Y-2185162D01*
X319278Y-2198878D01*
X325881Y-2219197D01*
X339597Y-2232913D01*
X353313Y-2239771D01*
X373634Y-2239771D01*
X387350Y-2232913D01*
X401065Y-2219197D01*
X446023Y-2096515D02*
G01*
X446023Y-2239771D01*
X514095Y-2144268D02*
G01*
X446023Y-2212339D01*
X473202Y-2185162D02*
G01*
X520954Y-2239771D01*
X565912Y-2185162D02*
G01*
X647700Y-2185162D01*
X647700Y-2171445D01*
X641095Y-2157984D01*
X634237Y-2151126D01*
X620521Y-2144268D01*
X600202Y-2144268D01*
X586486Y-2151126D01*
X572770Y-2164842D01*
X565912Y-2185162D01*
X565912Y-2198878D01*
X572770Y-2219197D01*
X586486Y-2232913D01*
X600202Y-2239771D01*
X620521Y-2239771D01*
X634237Y-2232913D01*
X647700Y-2219197D01*
X692912Y-2144268D02*
G01*
X692912Y-2239771D01*
X692912Y-2185162D02*
G01*
X699770Y-2164842D01*
X713231Y-2151126D01*
X726947Y-2144268D01*
X747268Y-2144268D01*
X897381Y-2069337D02*
G01*
X897381Y-2287523D01*
X1047495Y-2096515D02*
G01*
X1047495Y-2239771D01*
X1047495Y-2096515D02*
G01*
X1135887Y-2096515D01*
X1047495Y-2164842D02*
G01*
X1101852Y-2164842D01*
X1047495Y-2239771D02*
G01*
X1135887Y-2239771D01*
X1181100Y-2096515D02*
G01*
X1181100Y-2239771D01*
X1226057Y-2185162D02*
G01*
X1307845Y-2185162D01*
X1307845Y-2171445D01*
X1300987Y-2157984D01*
X1294129Y-2151126D01*
X1280668Y-2144268D01*
X1260094Y-2144268D01*
X1246378Y-2151126D01*
X1232915Y-2164842D01*
X1226057Y-2185162D01*
X1226057Y-2198878D01*
X1232915Y-2219197D01*
X1246378Y-2232913D01*
X1260094Y-2239771D01*
X1280668Y-2239771D01*
X1294129Y-2232913D01*
X1307845Y-2219197D01*
X1434592Y-2164842D02*
G01*
X1421129Y-2151126D01*
X1407413Y-2144268D01*
X1386839Y-2144268D01*
X1373378Y-2151126D01*
X1359662Y-2164842D01*
X1352804Y-2185162D01*
X1352804Y-2198878D01*
X1359662Y-2219197D01*
X1373378Y-2232913D01*
X1386839Y-2239771D01*
X1407413Y-2239771D01*
X1421129Y-2232913D01*
X1434592Y-2219197D01*
X1500123Y-2096515D02*
G01*
X1500123Y-2212339D01*
X1506981Y-2232913D01*
X1520444Y-2239771D01*
X1534160Y-2239771D01*
X1479550Y-2144268D02*
G01*
X1527302Y-2144268D01*
X1579118Y-2144268D02*
G01*
X1579118Y-2239771D01*
X1579118Y-2185162D02*
G01*
X1585976Y-2164842D01*
X1599692Y-2151126D01*
X1613154Y-2144268D01*
X1633728Y-2144268D01*
X1712721Y-2144268D02*
G01*
X1699260Y-2151126D01*
X1685544Y-2164842D01*
X1678686Y-2185162D01*
X1678686Y-2198878D01*
X1685544Y-2219197D01*
X1699260Y-2232913D01*
X1712721Y-2239771D01*
X1733295Y-2239771D01*
X1747012Y-2232913D01*
X1760473Y-2219197D01*
X1767331Y-2198878D01*
X1767331Y-2185162D01*
X1760473Y-2164842D01*
X1747012Y-2151126D01*
X1733295Y-2144268D01*
X1712721Y-2144268D01*
X1812289Y-2144268D02*
G01*
X1812289Y-2239771D01*
X1812289Y-2171445D02*
G01*
X1832863Y-2151126D01*
X1846579Y-2144268D01*
X1866900Y-2144268D01*
X1880615Y-2151126D01*
X1887473Y-2171445D01*
X1887473Y-2239771D01*
X1932431Y-2096515D02*
G01*
X1939290Y-2103373D01*
X1945893Y-2096515D01*
X1939290Y-2089657D01*
X1932431Y-2096515D01*
X1939290Y-2144268D02*
G01*
X1939290Y-2239771D01*
X2072893Y-2164842D02*
G01*
X2059177Y-2151126D01*
X2045461Y-2144268D01*
X2025141Y-2144268D01*
X2011425Y-2151126D01*
X1997709Y-2164842D01*
X1991106Y-2185162D01*
X1991106Y-2198878D01*
X1997709Y-2219197D01*
X2011425Y-2232913D01*
X2025141Y-2239771D01*
X2045461Y-2239771D01*
X2059177Y-2232913D01*
X2072893Y-2219197D01*
X2192781Y-2164842D02*
G01*
X2185924Y-2151126D01*
X2165604Y-2144268D01*
X2145029Y-2144268D01*
X2124709Y-2151126D01*
X2117852Y-2164842D01*
X2124709Y-2178304D01*
X2138172Y-2185162D01*
X2172461Y-2192020D01*
X2185924Y-2198878D01*
X2192781Y-2212339D01*
X2192781Y-2219197D01*
X2185924Y-2232913D01*
X2165604Y-2239771D01*
X2145029Y-2239771D01*
X2124709Y-2232913D01*
X2117852Y-2219197D01*
X2342895Y-2096515D02*
G01*
X2342895Y-2239771D01*
X2342895Y-2171445D02*
G01*
X2363215Y-2151126D01*
X2376931Y-2144268D01*
X2397252Y-2144268D01*
X2410968Y-2151126D01*
X2417825Y-2171445D01*
X2417825Y-2239771D01*
X2496820Y-2144268D02*
G01*
X2483358Y-2151126D01*
X2469641Y-2164842D01*
X2462784Y-2185162D01*
X2462784Y-2198878D01*
X2469641Y-2219197D01*
X2483358Y-2232913D01*
X2496820Y-2239771D01*
X2517393Y-2239771D01*
X2531109Y-2232913D01*
X2544572Y-2219197D01*
X2551429Y-2198878D01*
X2551429Y-2185162D01*
X2544572Y-2164842D01*
X2531109Y-2151126D01*
X2517393Y-2144268D01*
X2496820Y-2144268D01*
X2596388Y-2096515D02*
G01*
X2596388Y-2239771D01*
X2596388Y-2164842D02*
G01*
X2610104Y-2151126D01*
X2623820Y-2144268D01*
X2644140Y-2144268D01*
X2657856Y-2151126D01*
X2671572Y-2164842D01*
X2678175Y-2185162D01*
X2678175Y-2198878D01*
X2671572Y-2219197D01*
X2657856Y-2232913D01*
X2644140Y-2239771D01*
X2623820Y-2239771D01*
X2610104Y-2232913D01*
X2596388Y-2219197D01*
X2723388Y-2096515D02*
G01*
X2723388Y-2239771D01*
X2723388Y-2164842D02*
G01*
X2736850Y-2151126D01*
X2750565Y-2144268D01*
X2770886Y-2144268D01*
X2784602Y-2151126D01*
X2798318Y-2164842D01*
X2805175Y-2185162D01*
X2805175Y-2198878D01*
X2798318Y-2219197D01*
X2784602Y-2232913D01*
X2770886Y-2239771D01*
X2750565Y-2239771D01*
X2736850Y-2232913D01*
X2723388Y-2219197D01*
X2856991Y-2144268D02*
G01*
X2897886Y-2239771D01*
X2938779Y-2144268D02*
G01*
X2897886Y-2239771D01*
X2884170Y-2266950D01*
X2870454Y-2280665D01*
X2856991Y-2287523D01*
X2850134Y-2287523D01*
X2983738Y-2096515D02*
G01*
X2990595Y-2103373D01*
X2997454Y-2096515D01*
X2990595Y-2089657D01*
X2983738Y-2096515D01*
X2990595Y-2144268D02*
G01*
X2990595Y-2239771D01*
X3117341Y-2164842D02*
G01*
X3110484Y-2151126D01*
X3090163Y-2144268D01*
X3069590Y-2144268D01*
X3049270Y-2151126D01*
X3042411Y-2164842D01*
X3049270Y-2178304D01*
X3062731Y-2185162D01*
X3097022Y-2192020D01*
X3110484Y-2198878D01*
X3117341Y-2212339D01*
X3117341Y-2219197D01*
X3110484Y-2232913D01*
X3090163Y-2239771D01*
X3069590Y-2239771D01*
X3049270Y-2232913D01*
X3042411Y-2219197D01*
X3182874Y-2096515D02*
G01*
X3182874Y-2212339D01*
X3189731Y-2232913D01*
X3203193Y-2239771D01*
X3216909Y-2239771D01*
X3162300Y-2144268D02*
G01*
X3210052Y-2144268D01*
X3367024Y-2069337D02*
G01*
X3367024Y-2287523D01*
X3516884Y-2096515D02*
G01*
X3516884Y-2239771D01*
X3516884Y-2096515D02*
G01*
X3578352Y-2096515D01*
X3598672Y-2103373D01*
X3605529Y-2110231D01*
X3612388Y-2123694D01*
X3612388Y-2137410D01*
X3605529Y-2151126D01*
X3598672Y-2157984D01*
X3578352Y-2164842D01*
X3516884Y-2164842D01*
X3564636Y-2164842D02*
G01*
X3612388Y-2239771D01*
X3691381Y-2144268D02*
G01*
X3677920Y-2151126D01*
X3664204Y-2164842D01*
X3657345Y-2185162D01*
X3657345Y-2198878D01*
X3664204Y-2219197D01*
X3677920Y-2232913D01*
X3691381Y-2239771D01*
X3711956Y-2239771D01*
X3725672Y-2232913D01*
X3739134Y-2219197D01*
X3745991Y-2198878D01*
X3745991Y-2185162D01*
X3739134Y-2164842D01*
X3725672Y-2151126D01*
X3711956Y-2144268D01*
X3691381Y-2144268D01*
X3790950Y-2096515D02*
G01*
X3790950Y-2239771D01*
X3790950Y-2164842D02*
G01*
X3804665Y-2151126D01*
X3818381Y-2144268D01*
X3838702Y-2144268D01*
X3852418Y-2151126D01*
X3865879Y-2164842D01*
X3872738Y-2185162D01*
X3872738Y-2198878D01*
X3865879Y-2219197D01*
X3852418Y-2232913D01*
X3838702Y-2239771D01*
X3818381Y-2239771D01*
X3804665Y-2232913D01*
X3790950Y-2219197D01*
X3951986Y-2144268D02*
G01*
X3938270Y-2151126D01*
X3924554Y-2164842D01*
X3917695Y-2185162D01*
X3917695Y-2198878D01*
X3924554Y-2219197D01*
X3938270Y-2232913D01*
X3951986Y-2239771D01*
X3972306Y-2239771D01*
X3986022Y-2232913D01*
X3999738Y-2219197D01*
X4006341Y-2198878D01*
X4006341Y-2185162D01*
X3999738Y-2164842D01*
X3986022Y-2151126D01*
X3972306Y-2144268D01*
X3951986Y-2144268D01*
X4071874Y-2096515D02*
G01*
X4071874Y-2212339D01*
X4078731Y-2232913D01*
X4092447Y-2239771D01*
X4105909Y-2239771D01*
X4051554Y-2144268D02*
G01*
X4099306Y-2144268D01*
X4151122Y-2096515D02*
G01*
X4157725Y-2103373D01*
X4164584Y-2096515D01*
X4157725Y-2089657D01*
X4151122Y-2096515D01*
X4157725Y-2144268D02*
G01*
X4157725Y-2239771D01*
X4291329Y-2164842D02*
G01*
X4277868Y-2151126D01*
X4264152Y-2144268D01*
X4243831Y-2144268D01*
X4230115Y-2151126D01*
X4216400Y-2164842D01*
X4209541Y-2185162D01*
X4209541Y-2198878D01*
X4216400Y-2219197D01*
X4230115Y-2232913D01*
X4243831Y-2239771D01*
X4264152Y-2239771D01*
X4277868Y-2232913D01*
X4291329Y-2219197D01*
X4411472Y-2164842D02*
G01*
X4404613Y-2151126D01*
X4384293Y-2144268D01*
X4363720Y-2144268D01*
X4343400Y-2151126D01*
X4336541Y-2164842D01*
X4343400Y-2178304D01*
X4356861Y-2185162D01*
X4390897Y-2192020D01*
X4404613Y-2198878D01*
X4411472Y-2212339D01*
X4411472Y-2219197D01*
X4404613Y-2232913D01*
X4384293Y-2239771D01*
X4363720Y-2239771D01*
X4343400Y-2232913D01*
X4336541Y-2219197D01*
X901700Y-2858515D02*
G01*
X901700Y-3001771D01*
X946657Y-2858515D02*
G01*
X946657Y-3001771D01*
X946657Y-2926842D02*
G01*
X960373Y-2913126D01*
X974089Y-2906268D01*
X994410Y-2906268D01*
X1008126Y-2913126D01*
X1021587Y-2926842D01*
X1028445Y-2947162D01*
X1028445Y-2960878D01*
X1021587Y-2981197D01*
X1008126Y-2994913D01*
X994410Y-3001771D01*
X974089Y-3001771D01*
X960373Y-2994913D01*
X946657Y-2981197D01*
X1107694Y-2906268D02*
G01*
X1093978Y-2913126D01*
X1080262Y-2926842D01*
X1073404Y-2947162D01*
X1073404Y-2960878D01*
X1080262Y-2981197D01*
X1093978Y-2994913D01*
X1107694Y-3001771D01*
X1128013Y-3001771D01*
X1141729Y-2994913D01*
X1155445Y-2981197D01*
X1162050Y-2960878D01*
X1162050Y-2947162D01*
X1155445Y-2926842D01*
X1141729Y-2913126D01*
X1128013Y-2906268D01*
X1107694Y-2906268D01*
X1207262Y-3049523D02*
G01*
X1329944Y-3049523D01*
X1374902Y-2906268D02*
G01*
X1374902Y-3001771D01*
X1374902Y-2947162D02*
G01*
X1381760Y-2926842D01*
X1395221Y-2913126D01*
X1408937Y-2906268D01*
X1429512Y-2906268D01*
X1508505Y-2906268D02*
G01*
X1494789Y-2913126D01*
X1481328Y-2926842D01*
X1474470Y-2947162D01*
X1474470Y-2960878D01*
X1481328Y-2981197D01*
X1494789Y-2994913D01*
X1508505Y-3001771D01*
X1529079Y-3001771D01*
X1542542Y-2994913D01*
X1556257Y-2981197D01*
X1563115Y-2960878D01*
X1563115Y-2947162D01*
X1556257Y-2926842D01*
X1542542Y-2913126D01*
X1529079Y-2906268D01*
X1508505Y-2906268D01*
X1608073Y-2858515D02*
G01*
X1608073Y-3001771D01*
X1608073Y-2926842D02*
G01*
X1621789Y-2913126D01*
X1635252Y-2906268D01*
X1655826Y-2906268D01*
X1669542Y-2913126D01*
X1683004Y-2926842D01*
X1689862Y-2947162D01*
X1689862Y-2960878D01*
X1683004Y-2981197D01*
X1669542Y-2994913D01*
X1655826Y-3001771D01*
X1635252Y-3001771D01*
X1621789Y-2994913D01*
X1608073Y-2981197D01*
X1768855Y-2906268D02*
G01*
X1755394Y-2913126D01*
X1741678Y-2926842D01*
X1734820Y-2947162D01*
X1734820Y-2960878D01*
X1741678Y-2981197D01*
X1755394Y-2994913D01*
X1768855Y-3001771D01*
X1789429Y-3001771D01*
X1803145Y-2994913D01*
X1816607Y-2981197D01*
X1823465Y-2960878D01*
X1823465Y-2947162D01*
X1816607Y-2926842D01*
X1803145Y-2913126D01*
X1789429Y-2906268D01*
X1768855Y-2906268D01*
D11*
X5229781Y-2115657D02*
G01*
X5149783Y-2115657D01*
X5285826Y-2115703D02*
G01*
X5365823Y-2115703D01*
X5229781Y-1973689D02*
G01*
X5149783Y-1973689D01*
X5285826Y-1973737D02*
G01*
X5365823Y-1973737D01*
X5118808Y-2084674D02*
G01*
X5118808Y-2004669D01*
X5396801Y-2004722D02*
G01*
X5396801Y-2084725D01*
D12*
X790757Y-488348D02*
G01*
X791753Y-488348D01*
X824758Y-521352D01*
X790757Y-556351D02*
G01*
X790757Y-555353D01*
X824758Y-521352D01*
X790757Y-556351D02*
G01*
X790757Y-488348D01*
X788753Y-596358D02*
G01*
X673752Y-596358D01*
X788753Y-446346D02*
G01*
X673752Y-446346D01*
X673752Y-596348D02*
G01*
X673752Y-448355D01*
X826754Y-446115D02*
G01*
X931765Y-446115D01*
X961760Y-486122D02*
G01*
X961760Y-476120D01*
X931765Y-446115D01*
X961760Y-556117D02*
G01*
X961760Y-486122D01*
X961760Y-556117D02*
G01*
X961760Y-566132D01*
X931765Y-596127D01*
X826754Y-596127D02*
G01*
X931765Y-596127D01*
X790757Y-521352D02*
G01*
X824758Y-521352D01*
D13*
X5275021Y-2936260D02*
G01*
X5370908Y-2936260D01*
X5370908Y-2804139D01*
X5275021Y-2804139D01*
X5189778Y-2936260D02*
G01*
X5093891Y-2936260D01*
X5093891Y-2804139D01*
X5189778Y-2804139D01*
D11*
X5133893Y-2614612D02*
G01*
X5119705Y-2614612D01*
X5319707Y-2547119D02*
G01*
X5319707Y-2614612D01*
X5305511Y-2614612D01*
X5305511Y-2414612D02*
G01*
X5319707Y-2414612D01*
X5319707Y-2482110D01*
X5119705Y-2414612D02*
G01*
X5133893Y-2414612D01*
X5119705Y-2482110D02*
G01*
X5119705Y-2414612D01*
X5119705Y-2614612D02*
G01*
X5119705Y-2547119D01*
G75*
G01*
X5365819Y-1973737D02*
G02*
X5396801Y-2004723I0J-30983D01*
G75*
G01*
X5396801Y-2084720D02*
G02*
X5365819Y-2115703I-30982J0D01*
G75*
G01*
X5149789Y-2115657D02*
G02*
X5118809Y-2084675I3J30982D01*
G75*
G01*
X5118809Y-2004677D02*
G02*
X5149789Y-1973689I30983J5D01*
G75*
G01
X5276817Y-2387603D02*
G03X5276817Y-2387603I-6350J0D01*
M02*
