G04 Layer: TopLayer*
G04 EasyEDA v6.5.54, 2026-09-21 01:04:33*
G04 fc7dc202ae2448acb5ae20b8b62974b0,464b855ecb6c4de38edc212a3dabf789,10*
G04 Gerber Generator version 0.2*
G04 Scale: 100 percent, Rotated: No, Reflected: No *
G04 Dimensions in millimeters *
G04 leading zeros omitted , absolute positions ,4 integer and 5 decimal *
%FSLAX45Y45*%
%MOMM*%

%AMMACRO1*21,1,$1,$2,0,0,$3*%
%ADD10C,0.2540*%
%ADD11C,0.3000*%
%ADD12R,0.7501X0.3000*%
%ADD13R,0.8000X0.9000*%
%ADD14R,0.8000X0.8000*%
%ADD15MACRO1,0.864X0.8065X90.0000*%
%ADD16R,0.4000X0.2200*%
%ADD17R,0.2200X0.4000*%
%ADD18R,0.0162X0.4000*%
%ADD19R,0.2800X0.4000*%
%ADD20C,0.8080*%
%ADD21C,0.6096*%
%ADD22C,0.6200*%

%LPD*%
D10*
X887729Y-520700D02*
G01*
X887729Y-711200D01*
X3556000Y-711200D01*
X5169717Y-2324917D01*
X5169717Y-2406624D01*
X5156956Y-2870200D02*
G01*
X5118100Y-2870200D01*
X4991100Y-2743200D01*
X4991100Y-2362200D01*
X3467100Y-838200D01*
X889000Y-838200D01*
X737920Y-687120D01*
X737920Y-520725D01*
X5638800Y-2489200D02*
G01*
X5740400Y-2590800D01*
X5753100Y-2590800D01*
X5422900Y-2362200D02*
G01*
X5397500Y-2362200D01*
X5359400Y-2400300D01*
X5359400Y-2489200D01*
X5334000Y-2514600D01*
X5279689Y-2514600D01*
X5651500Y-2489200D02*
G01*
X5638800Y-2489200D01*
X6134100Y-2463800D02*
G01*
X6093109Y-2463800D01*
X6076589Y-2447292D01*
X6076589Y-397309D01*
X6076701Y-394840D01*
X6077000Y-392379D01*
X6077508Y-389966D01*
X6078189Y-387604D01*
X6079109Y-385315D01*
X6080175Y-383082D01*
X6081440Y-380974D01*
X6082865Y-378965D01*
X6084440Y-377062D01*
X6086190Y-375307D01*
X6088075Y-373707D01*
X6090058Y-372262D01*
X6092192Y-370992D01*
X6094399Y-369900D01*
X6096683Y-368988D01*
X6099050Y-368274D01*
X6101455Y-367741D01*
X6103899Y-367438D01*
X6106368Y-367306D01*
X6106591Y-367306D01*
X5327898Y-2044700D02*
G01*
X5461000Y-2044700D01*
X5486400Y-2070100D01*
X5486400Y-2374900D01*
X5375658Y-2574546D01*
X5269743Y-2574546D01*
X5307731Y-2870200D02*
G01*
X5307731Y-2799029D01*
X5219700Y-2574597D02*
G01*
X5269682Y-2574597D01*
X5269682Y-2574597D02*
G01*
X5269682Y-2760979D01*
X5307731Y-2799029D01*
X5219700Y-2454602D02*
G01*
X5219700Y-2122934D01*
X5217665Y-2120900D01*
X5187800Y-2044700D02*
G01*
X5187800Y-2091034D01*
X5217665Y-2120900D01*
X737920Y-520725D02*
G01*
X737920Y-554329D01*
X818591Y-635000D01*
X5169717Y-2454602D02*
G01*
X5169717Y-2406624D01*
X5269682Y-2454602D02*
G01*
X5269682Y-2363017D01*
X5334000Y-2298700D01*
X5753100Y-2590800D02*
G01*
X5753100Y-2590800D01*
D11*
X8096605Y-4657293D02*
G01*
X8096605Y-397306D01*
X8156600Y-4657293D02*
G01*
X8156600Y-397306D01*
X8216595Y-4657293D02*
G01*
X8216595Y-397306D01*
X8276590Y-4657293D02*
G01*
X8276590Y-397306D01*
X8336584Y-4657293D02*
G01*
X8336584Y-397306D01*
X6106591Y-4687290D02*
G01*
X8066608Y-4687290D01*
X6106591Y-4747285D02*
G01*
X8066608Y-4747285D01*
X6106591Y-4807305D02*
G01*
X8066608Y-4807305D01*
X6106591Y-4867300D02*
G01*
X8066608Y-4867300D01*
X6106591Y-4927295D02*
G01*
X8066608Y-4927295D01*
X6106591Y-367309D02*
G01*
X8066608Y-367309D01*
X6106591Y-307314D02*
G01*
X8066608Y-307314D01*
X6106591Y-247294D02*
G01*
X8066608Y-247294D01*
X6106591Y-187299D02*
G01*
X8066608Y-187299D01*
X6106591Y-127304D02*
G01*
X8066608Y-127304D01*
X6076594Y-4657293D02*
G01*
X6076594Y-2527300D01*
X6016599Y-2467305D01*
X6016599Y-397306D01*
X5956604Y-4657293D02*
G01*
X5956604Y-2567304D01*
X5896609Y-2507310D01*
X5896609Y-397306D01*
X6016599Y-4657293D02*
G01*
X6016599Y-2547289D01*
X5956604Y-2487295D01*
X5956604Y-397306D01*
X5896609Y-4657293D02*
G01*
X5896609Y-2587294D01*
X5836589Y-2527300D01*
X5836589Y-397306D01*
X6076594Y-397306D02*
G01*
X6076594Y-2447289D01*
X6093104Y-2463800D01*
X6134100Y-2463800D01*
X5740400Y-2590800D02*
G01*
X5753100Y-2590800D01*
X5820105Y-2590800D01*
X5836589Y-2607310D01*
X5836589Y-4657293D01*
D12*
G01*
X5753100Y-2590800D03*
D13*
G01*
X5327802Y-2044700D03*
G01*
X5187797Y-2044700D03*
D14*
G01*
X737908Y-520712D03*
G01*
X887717Y-520687D03*
D15*
G01*
X5307724Y-2870200D03*
G01*
X5157075Y-2870200D03*
D16*
G01*
X5279687Y-2514602D03*
D17*
G01*
X5269679Y-2574597D03*
G01*
X5219692Y-2574597D03*
G01*
X5169679Y-2574597D03*
D16*
G01*
X5159697Y-2514602D03*
D17*
G01*
X5169705Y-2454607D03*
G01*
X5219692Y-2454607D03*
D19*
G01*
X5269679Y-2454607D03*
D11*
G75*
G01*
X6076594Y-397307D02*
G02*
X6106592Y-367309I29998J0D01*
G75*
G01*
X6016600Y-397307D02*
G02*
X6106592Y-307315I89992J0D01*
G75*
G01*
X5956605Y-397307D02*
G02*
X6106592Y-247294I149987J26D01*
G75*
G01*
X5896610Y-397307D02*
G02*
X6106592Y-187300I210007J0D01*
G75*
G01*
X5836590Y-397307D02*
G02*
X6106592Y-127305I270002J0D01*
G75*
G01*
X6076594Y-4657293D02*
G03*
X6106592Y-4687291I29998J0D01*
G75*
G01*
X6016600Y-4657293D02*
G03*
X6106592Y-4747285I89992J0D01*
G75*
G01*
X5956605Y-4657293D02*
G03*
X6106592Y-4807306I149987J-26D01*
G75*
G01*
X5896610Y-4657293D02*
G03*
X6106592Y-4867300I210007J0D01*
G75*
G01*
X5836590Y-4657293D02*
G03*
X6106592Y-4927295I270002J0D01*
G75*
G01*
X8096606Y-4657293D02*
G02*
X8066608Y-4687291I-29998J0D01*
G75*
G01*
X8156600Y-4657293D02*
G02*
X8066608Y-4747285I-89992J0D01*
G75*
G01*
X8216595Y-4657293D02*
G02*
X8066608Y-4807306I-149987J-26D01*
G75*
G01*
X8276590Y-4657293D02*
G02*
X8066608Y-4867300I-210007J0D01*
G75*
G01*
X8336610Y-4657293D02*
G02*
X8066608Y-4927295I-270002J0D01*
G75*
G01*
X8096606Y-397307D02*
G03*
X8066608Y-367309I-29998J0D01*
G75*
G01*
X8156600Y-397307D02*
G03*
X8066608Y-307315I-89992J0D01*
G75*
G01*
X8216595Y-397307D02*
G03*
X8066608Y-247294I-149987J26D01*
G75*
G01*
X8276590Y-397307D02*
G03*
X8066608Y-187300I-210007J0D01*
G75*
G01*
X8336610Y-397307D02*
G03*
X8066608Y-127305I-270002J0D01*
D20*
G01*
X6134100Y-2463800D03*
D21*
G01*
X5334000Y-2298700D03*
D22*
G01*
X5638800Y-2489200D03*
G01*
X5422900Y-2362200D03*
M02*
